<mxfile host="app.diagrams.net" agent="Mozilla/5.0 (Windows NT 10.0; Win64; x64) AppleWebKit/537.36 (KHTML, like Gecko) Chrome/133.0.0.0 Safari/537.36 Edg/133.0.0.0" version="26.0.16">
  <diagram name="第 1 页" id="ZYvzjeREgjlTMC5aMJ39">
    <mxGraphModel dx="1906" dy="3158" grid="1" gridSize="10" guides="1" tooltips="1" connect="1" arrows="1" fold="1" page="1" pageScale="1" pageWidth="827" pageHeight="1169" math="0" shadow="0">
      <root>
        <mxCell id="0" />
        <mxCell id="1" parent="0" />
        <mxCell id="Hp2LMigl68Y7-yu4LN-_-1" value="LetsGo.Script.Model.UGCEditor.UGCDSLoadMapModel:Init()" style="swimlane;" vertex="1" parent="1">
          <mxGeometry x="-726" y="-2120" width="1950" height="1030" as="geometry">
            <mxRectangle x="1080" y="80" width="390" height="30" as="alternateBounds" />
          </mxGeometry>
        </mxCell>
        <mxCell id="Hp2LMigl68Y7-yu4LN-_-2" value="LetsGo.Script.Core.Class.BaseModel:Init()" style="rounded=0;" vertex="1" parent="Hp2LMigl68Y7-yu4LN-_-1">
          <mxGeometry x="450" y="85.63" width="300" height="28.75" as="geometry" />
        </mxCell>
        <mxCell id="Hp2LMigl68Y7-yu4LN-_-3" style="edgeStyle=orthogonalEdgeStyle;rounded=0;orthogonalLoop=1;jettySize=auto;html=1;dashed=1;" edge="1" parent="Hp2LMigl68Y7-yu4LN-_-1" source="Hp2LMigl68Y7-yu4LN-_-4" target="Hp2LMigl68Y7-yu4LN-_-2">
          <mxGeometry relative="1" as="geometry" />
        </mxCell>
        <mxCell id="Hp2LMigl68Y7-yu4LN-_-4" value="LetsGo.Script.Model.UGCEditor.UGCDSLoadMapModel:Init()" style="rounded=0;" vertex="1" parent="Hp2LMigl68Y7-yu4LN-_-1">
          <mxGeometry x="30" y="80" width="350" height="40" as="geometry" />
        </mxCell>
        <mxCell id="Hp2LMigl68Y7-yu4LN-_-5" style="edgeStyle=orthogonalEdgeStyle;rounded=0;orthogonalLoop=1;jettySize=auto;html=1;entryX=1;entryY=0.5;entryDx=0;entryDy=0;dashed=1;exitX=0.5;exitY=1;exitDx=0;exitDy=0;" edge="1" parent="Hp2LMigl68Y7-yu4LN-_-1" source="Hp2LMigl68Y7-yu4LN-_-38" target="Hp2LMigl68Y7-yu4LN-_-6">
          <mxGeometry relative="1" as="geometry">
            <mxPoint x="551.5" y="390" as="sourcePoint" />
          </mxGeometry>
        </mxCell>
        <mxCell id="Hp2LMigl68Y7-yu4LN-_-6" value="LetsGo.Script.Model.UGCEditor.UGCDSLoadMapModel:OnInit()" style="rounded=0;" vertex="1" parent="Hp2LMigl68Y7-yu4LN-_-1">
          <mxGeometry x="30" y="370" width="350" height="40" as="geometry" />
        </mxCell>
        <mxCell id="Hp2LMigl68Y7-yu4LN-_-7" value="" style="endArrow=none;dashed=1;html=1;rounded=0;edgeStyle=orthogonalEdgeStyle;curved=1;entryX=-0.001;entryY=0.549;entryDx=0;entryDy=0;entryPerimeter=0;exitX=1;exitY=0.5;exitDx=0;exitDy=0;" edge="1" parent="Hp2LMigl68Y7-yu4LN-_-1" source="Hp2LMigl68Y7-yu4LN-_-13" target="Hp2LMigl68Y7-yu4LN-_-14">
          <mxGeometry width="50" height="50" relative="1" as="geometry">
            <mxPoint x="360" y="801" as="sourcePoint" />
            <mxPoint x="530" y="801" as="targetPoint" />
            <Array as="points">
              <mxPoint x="350" y="811" />
              <mxPoint x="363" y="811" />
              <mxPoint x="363" y="876" />
              <mxPoint x="464" y="876" />
              <mxPoint x="464" y="846" />
              <mxPoint x="450" y="846" />
              <mxPoint x="450" y="886" />
              <mxPoint x="530" y="886" />
              <mxPoint x="530" y="791" />
              <mxPoint x="561" y="791" />
            </Array>
          </mxGeometry>
        </mxCell>
        <mxCell id="Hp2LMigl68Y7-yu4LN-_-8" style="edgeStyle=orthogonalEdgeStyle;rounded=0;orthogonalLoop=1;jettySize=auto;html=1;entryX=0.5;entryY=0;entryDx=0;entryDy=0;" edge="1" parent="Hp2LMigl68Y7-yu4LN-_-1" source="Hp2LMigl68Y7-yu4LN-_-9" target="Hp2LMigl68Y7-yu4LN-_-13">
          <mxGeometry relative="1" as="geometry" />
        </mxCell>
        <mxCell id="Hp2LMigl68Y7-yu4LN-_-9" value="_MOE:UGCGameStatic:InitUGCFeaturesModel()" style="whiteSpace=wrap;html=1;fillColor=#ffe6cc;strokeColor=#d79b00;" vertex="1" parent="Hp2LMigl68Y7-yu4LN-_-1">
          <mxGeometry x="60" y="490" width="290" height="50" as="geometry" />
        </mxCell>
        <mxCell id="Hp2LMigl68Y7-yu4LN-_-10" style="rounded=0;orthogonalLoop=1;jettySize=auto;html=1;entryX=0;entryY=0.5;entryDx=0;entryDy=0;" edge="1" parent="Hp2LMigl68Y7-yu4LN-_-1" source="Hp2LMigl68Y7-yu4LN-_-12" target="Hp2LMigl68Y7-yu4LN-_-16">
          <mxGeometry relative="1" as="geometry">
            <mxPoint x="649.9999999999884" y="528.5000000000002" as="targetPoint" />
            <Array as="points">
              <mxPoint x="730" y="621" />
            </Array>
          </mxGeometry>
        </mxCell>
        <mxCell id="Hp2LMigl68Y7-yu4LN-_-11" value="~=_MOE.UGCGameStatic.UGCFeaturesType.UGC" style="edgeLabel;html=1;align=center;verticalAlign=middle;resizable=0;points=[];" vertex="1" connectable="0" parent="Hp2LMigl68Y7-yu4LN-_-10">
          <mxGeometry x="-0.7405" y="2" relative="1" as="geometry">
            <mxPoint y="1" as="offset" />
          </mxGeometry>
        </mxCell>
        <mxCell id="Hp2LMigl68Y7-yu4LN-_-12" value="self.FeaturesType" style="rhombus;fillColor=#ffe6cc;strokeColor=#d79b00;" vertex="1" parent="Hp2LMigl68Y7-yu4LN-_-1">
          <mxGeometry x="540" y="475" width="190" height="80" as="geometry" />
        </mxCell>
        <mxCell id="Hp2LMigl68Y7-yu4LN-_-13" value="清空变量&lt;br&gt;" style="rounded=0;whiteSpace=wrap;html=1;" vertex="1" parent="Hp2LMigl68Y7-yu4LN-_-1">
          <mxGeometry x="60" y="781" width="290" height="50" as="geometry" />
        </mxCell>
        <mxCell id="Hp2LMigl68Y7-yu4LN-_-14" value="" style="shape=image;verticalLabelPosition=bottom;labelBackgroundColor=default;verticalAlign=top;aspect=fixed;imageAspect=0;image=data:image/png,iVBORw0KGgoAAAANSUhEUgAAAcQAAAFPCAYAAADTKL4EAAAgAElEQVR4Aeyda1MT2dbH+4t0LJACtRS1jihjKYjjlKDjbRRBmfI+IipGVIxIRLkTrnIX5CIRL0gIAoFAJxElmpk6U6fOmXkz1qmp8TwzzOf4P9XBTnY6HUgASQjrRaq7Q2df1lp7/XrtXnvDqVZFgj4kg2DZAHftGkLpEyw5UL00BskGgm8DHCkh+EpYyToIJRiKbVnJuqC+ky9Y6TZAQKQIOagQICCSE17pTpj6HzpjgIBIQCQgMtO25JxCxzmRLkgXS20DBEQCIgGRgBhUG1hqp0f1EWh92QABkYAYVGdIU6bknHw5J/qebGOpbYCASEAkIFKEGFQbWGqnR/URaH3ZAAGRgBhUZ7jgCPF2HbgP/wL33ghOk73gJRy+Bgp9T06UbCD8bYCASEBc3kDseA/u779nPo9vEhDJnoNqzwTN5Q3NJQdibHILfrxn8fg4tK9QsCXCL0PmI+Jx4mgd+m8MYSpfcJVjST/k1++Xg8HyqgMoGLLD+ua94scyVIJklX/yOqabhMXWj+s7/Lt/qeWz4AjxQRe4j5/AfZwCV6AQIXY73MCUwDn9G7hyhXtpHWLYjKGltmOqb3mDUNLfkgMxeusllKXdd31ar40hECDuONCJ91oBluwa6NLd5RQk7QybwcyrtiNdU4KCB+KnGfoJOywT/ah1XpegQHMKcQRE/6LBSj04k8n9+eX/wBEQw2asSI6MjuEBpGDrccmBKO/w4fTXfgORV0XhzNkJOLSdUK8PzYhH3r+FXvOqgygcscMyUo59fkKQrTPsI0QmIcavaHPsdwIiTavSAwHZgKIN+AQiH5WE88fq8PL6AN7cFfDh7jDM6nY8PHQU2yK8YcSrovFVwk00ZD2HkGeGXWPE4CUdNAnxiJzFkQcGxGhcOC/AoW3H1TXebWBB4O85r4rHtR47LJ23cPxGFwxjVrxsuYHdaxJwrsaAYfM4ehtu4Zt1nvXxkXFIySxCfY8RA6Y3GDONoLe7BXmn92DtKtm9O3Kht9lh1p1A7IGbqHwyjOGJSZiML1GrSceWSM/72bb7C0Q+Mh7HNM3QG60wT0zgVfdDXN2/CUd1ttCfMi3sAzc9Dc7aDK6uH9x/PoL73ydwv/4M7kUNOLVsejO7Etx/p72nQrs1c0eNBERFR8DaHJ1TtLVSbUARiLwqDj9cGIJDOw7haj1qTtxH2YkytF8bwgftBEYzUrGegRyvisT2lGZYtQLe5/ag/XQJqk41oD93HA7tMLpSdmAVcz8r7LmAKALr+++kqdFCdOWIQDRAnyF9N3Oc75SpC4j9BjzqeIiyZgNGbVN48rgdXU3V0HWaMGGz48WdvS5Hwqs24XilCYJtCiN9Xaiq0KGoogltBhE+b6HX7PN4COAlILY2o2FkCG111SjRtaJn+B0stik8y0tBhA/5+ANE8WFkz10DBJsd48PPUa+rRGndE/QNt6OySVgwEPmEc8iXpmsVj0XISPANdVbf8nNnVCcB0TEF7vffwE0K4GwOcH9Mz4DSWAEum4FidgE4IzMN+tPHGTgSEF02KpczXRPkyAbmtgFlIEafR5dWwIesq9jCOGo+YifUF3oxeO0BUpmohl+dhkaNgA/XC3E4mqk0+iB0ORNwaKqQsVrZYc4NxH0ou+VOnpEn5EjX802qcQFxtAZHVkeAVyXixjM7LL0afKWKgNg33agdlvar2PBZFnzMMdxubkND8QXEMdEyH7UP+a/E932NSIty91cComDuwbXENS6nxW84jopBOyxCK07GuO9nDdcvIMacwUPBDouxGoeZSHZ14i20jS48qYY/WgWzbZYkH9skSo8qt5/ti9K5BxA//QyuNMcd5d3Xg/s0De7PN95RIjtVKiXOEBBdtqUka/qO8U00ZUi2omADykCMuQi9VoD93ClEM0D0NaD4bfcgaAUYjyR5CTnpSC8c2kGUbFN2mHMBka1TjIS+2JSp4QF2iwBUxeJCqx2W1iysdV4n467BDkvPTb8SWY5XvYXF9gLZ8e7+SkC0tF7CGpk8D5dbYLG9Ru5u9/2efZ77HSK/Ox8vbXaMlKV6yJ9XbcB5sS+hnmUqRYg/PpFFgmpw7/4CN/0LuEImQmRhKJ4TED30ztoPnRMEyQb8twFlIKq2QZ1ldk53Gn+oQNnRHKj3fo+0+ETEMhGRJGg+ocKZ+WnOKnVlj0qZpNVZBji0ZtT5mFJbrkCMTjwPbXMfBsyTzqlKdomEHEASEMV3iJLMpOM3+cOw2AQUHloAEA+VY8Rmx6v8fV7lL4ukGgmI1iZ3dChBb453fs4Ik4DopXfJvujovzMkWZGsFIHoNIyYb6E+2Yi+nEG8Y9b7fdA8gS5xG1RMpMMn6pxAlKYv5UfxXeTDRGWHvxyByMddRJNJjLws6G2pQRHzXq3hpfhe0HPdHwHR90DzmDIlIBLYFKaxCFS+xw/JZnFl4xuIrGFGrMfm2K9xcFcOHt8U4NDU4FS0G3BShKjfFxfwgF6OQEzINTiTYbpvJHklwyhFZMsdiEuWVENADHj8kENcXIdI8lzZ8lQEIh8Ri83r4rAxKsprgO468hQOrRHFzDtB6R3i0Hd7vO6fy8CWIxAPl1thsY0iP9n9UCD2k1etx7mWKZ8R4hd7h/i1Fn2K7xDXL8o7xCVLqiEgBjx+5hpf9PeV7eBJ/4HpXxmIm3MxpBXw5txp2fKKDTh9RlyO0Y/CrW4YOLNM7whw3NThxJrVrkHNRyTi1sUBWHJrcZ6JKFklzSTdmPAwMcb1O/bv7Pl8kmqik2/h0YAVJmMX1MlrvepwZZkGkFQTf/25M0LUa/a6lleIS0/WpuSj2+wbiOOjT5DN9HPRs0wH5VmmN9Cu0B5WpsE+X/IpU8Ov4Kb/ANfMZLNK7ytp6zav8RFs+6D6A3PoJK+FyUsZiKsSkXtlzJkMM3a5FtXiFmnpZWi9bIBdzD7NzsVuJrlGhMHOfa2wiUs1bvei43QJdBk1eJpjcpZhTDuEdcw7R1ZpkVtuw5gv4ENuN5pOsmsLzzmzPtl75wPEA8Xjrv1AB4uOeA34+QCR33gKteLuMbY36OtoRGlZFapaDRgaa0N1sxg9Kr9DHG5sQMvIazyqqULxLOsQA926zWMd4pC4DlGH0pouvBzpQP2jhS+7YHWw2OfzAmJRu3srNnFbNmkd4k/jzPdPwd1QyEwtN4D7axrc7/8GZ2bWMpo6nRmui90/Km9hDorkR/JbShtQBKKzAWtScCWtEf05RkzeFeC4a4KQ04PHaZlIWeOtJNEpb991Cw1ZL2DJM2NKY8DQ5Vo8+GYvYn3AUKxH3I4tPuE2HmX3w5o34dqs26GtRobsd/MBYsz+PLQP2jA6qMeN/esWBYhiu6O3f4879c/QN2zF2NgonrdX4lJyLI44p1OVgWiqOI6Nh3JR3TOCkYm3MA0q71Qzn829+chtOKppQo+4U40gwKBvwvVDW6D0TnMpDWyuuuYFxEZhZsG+tFm30nH6n+DuKAAxWw2u0TizG86fzG4305MERDZvgM69fMVctkx/9+bCcpOJbyDSgFi0ASEl1Yzp0hetzOVmaL7a6wQiM2UZ7Gtf7aTvl7+zIx2SDueyAQLiEoBfAqLSOsS5FBTufw82AOX1h7u8qX8EBbIB3zZAQCQgBjVqlQMp2NfkLHw7C5INySbcbYCASEAkIDJTtuE+4Kl/BDWyAd82QEBcAiCSAc5igAyMgh0divWTrnzrimRDsgl3GyAgEhCDCoFQgCDbhnAf8NQ/ghrZgG8bICASEAmITJRKzsK3syDZkGzC3QYIiAREAiIBMag2EO5Olvq3fB4kCIgExKA6Q3a6MhTOyXktH+dFuiJdLbYNEBAJiEEF4mIb9ELLCwUos21YaH/o9wQNsgH/bYCASEAkIDI2wMIoFM7JmfnvzEhWJKuF2gABkXGGCxUm/X75D8hQgCDbBrKp5W9TpMPlo0MCIgGRIkTGBlgYhcI5OdPl40xJV8tfVwRExhmSQS9/g16oDkMBgmwbFtof+j3ZNNmA/zZAQCQgUoTI2AALo1A4J2fmvzMjWZGsFmoDBETGGS5UmPT75T8gQwGCbBvIppa/TZEOl48OCYgERIoQGRtgYRQK5+RMl48zJV0tf10REBlnOB+D5mOP4U5LL7qatTi4IYLgskB5zkcHi/mbBUPwdh24D/8C994ITpONhZa3mH2jspa/wyYdflkdEhAX6MBjzrbC+ua981N/Zh0BcYHyDPaAXyjAuI734P7+e+bz+CYBcZnbQ7Dtker/sgCUy3fJgRib3IIf71k8Pg7tKxRs8S+64iPiceJoHfpvDGEqX3CVY0k/tCgw4iO3I/VOC/QDExiz2l2we118RLF8/qtM1BusMBlacTbeuw8bLna4ypDAabENQ7PH+165cvy95vfcwyubHRbbJBrObfJo5zf5w1js+vxt13K8b8FAfNAF7uMncB+nwBUoRIjdDjcwJXBO/wauXOFe+ndUHra8HO2J2ry0QFuovJcciNFbL6Es7b7r03ptDIEAcceBTrzXCrBk10CX7i6nIGnnogyer9S9GLfZ8VrfhKLCEhQ8mPloTibMq/zolKuuMsSyap+9WXRASUAUgTvRno2NKjdsCYiBDcgFA5HZKFyxrEo9OJPJ/fnl/8AREOc1thbq/Oj3gY2NlSCvJQeiXKiH01/7DUReFYUzZyfg0HZCvd7t9OVlzveaV0Uj4+EULLZeXN66+OWL7TpQPP7FgNhnGILF+gxXtrnbTkAMbNArQmwuyC3k72O/ExBpWpUeCELEBnwCkY9KwvljdXh5fQBv7gr4cHcYZnU7Hh46im0RbocrwUeEyVcJN9GQ9RxCnhl2jRGDl3TQJMQjkolYpPulY2BAjMaF8wIc2nZcXePdBqnM+R55VQxON4pTjz3I3OS7fF51AAVD7ulUaSq05aLndKVSO/wFoijPbal3oOs0YnD8LcxjY3j2uBbXU7d7yVOKEB/fL0Kn1Q79zV2uAeYLiHxkHFIyi1DfY8SA6Q3GTCPo7W5B3uk9WLvK3XdeFY9rPXZYOm/h+I0uGMaseNlyA7vXJOBcjQHD5nH0NtzCN+vcvxH7HUj7leQUrO+cQCzsAzc9Dc7aDK6uH9x/PoL73ydwv/4M7kUNOLVsejO7Etx/p72nQrs1c79DJCC6bDVYOqd6A3toDGd5KQKRV8XhhwtDcGjHIVytR82J+yg7UYb2a0P4oJ3AaEYq1jOQ41WR2J7SDKtWwPvcHrSfLkHVqQb0547DoR1GV8oOrGLuZwU6FxBFh/z9d9LUaCG6ckQgGqDPkL6bOc53ypRXbUe6RpoaLUeLQQSiCY/Kpe+8p0w9f1OC4rYR53vCxQKiKM/4zA4M2+yYGO5DQ1UlSqoeoWf4HSw2Ac2ZCR7ylICov3UEF9vewtJfgKTPUFMCIq/ahOOVJgi2KYz0daGqQoeiiia0GWyw2N5Cr9nngq4LiP0GPOp4iLJmA0ZtU3jyuB1dTdXQdZowYbPjxZ29LscWaPtZe/DnnE84h/zPU9nSlLbnsQgZCZ6A9qdc8R4PIDqmwP3+G7hJAZzNAe6P6RlQGivAZTNQzC4AZ2SmQX/6OANHAqLLJvyVP91HcAqmDSgDMfo8urQCPmRdxRYGZHzETqgv9GLw2gOkRrodDr86DY0aAR+uF+JwNKPQ6IPQ5UzAoalCxmr3/WyH5wbiPpTdcifPyBNypOv5JtX4ivakqE86+kqqEfsiJc4sGhBjTqJyzA7hVTm+Xc/Ic/0RFPZPwTLWgOMxbnlKQBShtO5sK8w2E7T7VjudkSIQY47hdnMbGoovII6J9vmofch/ZYdlohFpUTPlu4A4WoMjqyPAqxJx45kdll4NvlJFQNS9btQOS/tVbPhsK3yA7WftwZ9z/mgVzDbvCF3SlZhcVHrULR9/ypTu8QDip5/Blea4o7z7enCfpsH9+cY7SmSnTaXEGQIiATFEpgIl+6Yj408VdKMMxJiL0GsF2M+dQjQDRF/C5Lfdg6AVYDyS5DUAko70wqEdRAnzXostZy4gsveK03ChMGXKtkk8X3Qg7i/Ga5sdvbm7veSZcNsAi82Me/vdDl8CYl9+CviY71FttmOw7BgiVBFQAqK8/ez18aq3sNheIPtzxqwLiIYH2C0CUBWLC612WFqzsNZ5nYy7YlTdcxNxEhADbD9bf7DPPYD44xNZJKgG9+4vcNO/gCtkIkQWhuI5AdHLboOtV6p/dhCQfGbkowxE1Taos8zO6U7jDxUoO5oD9d7vkRafiFgmopCEyCdUODM/zVmlruxRKZO0OssAh9aMOh9TWAREb0PlU2ucma4DHZUeGaritGBph8k5rVmR6g3EV/n7ICYeHSmfgGX0IY5F+QZidOJ5aJv7MGCehCCLtiy2flzfIYsQAwFigO2X7CgUjh5AtDa5o0MJenO883P+noBIQFSIPkLBvqkN3v6WlYkiEJ03xHwL9clG9OUM4h2z3u+D5gl0idugYiJHPlHnBKI0fSk/iu8iHya6HTjbAAKit4L447XO93LSFKD8aLG9Q8VxtzylCFEEoijbiAOlMNreoOb7Dfg6b9Arq5WPu4gmk/iu1ILelhoUMe/jGl6K7ykXCMQA28/aQ7DPCYje9hhsnVD9pJOlsgHfQGSfcCLWY3Ps1zi4KwePbwpwaGpwKppxyJ8jRP2+uICfDAmI3sYuRYhtV7b6JU85EPlVM9OY4y2Z2J8rTrF6bgSQ4PxuCt03kpzTqqyxHdNNLhyInyNEf9vP1u/P+ZIl1VCE6Jf9+aMzusd7nJNMQk8mikDkI2KxeV0cNkZFeQ2IXUeewqE1oph5Jyi9Qxz6bo/X/XMpnYDobRT853dwbObmbHKUA1G8N1GEnrUHeQVPvYB4uNwKi20U+cnuhxrxN7xqPc61iOswFxghBtj+2fqm9LclS6ohIAY8npX0Rd95j3GSSWjKRBmIm3MxpBXw5txp2fKKDTh9RlyO0Y9CZuG6M8v0jgDHTR1OrJnJbhQVzkck4tbFAVhya3GeiShZY5hJujHhYWLMnINvPkk10cm38GjACpOxC+rktbPW4e86RLb94nkgSTUzSTFW6NLW+GyLM0vTbIdlsA6pGxl5Ru2C+tEoXg834xSzkbgSEPn4G+ix2fG8z+gFxPjrz2GxTUGv2cssr4jE2pR8dJsXAYhilmkA7ZfLM5jXSz5lavgV3PQf4JqZbFbpfSVt3eZzjATTRqju0ITZYuhFGYirEpF7RdxSzYyxy7WoFrdISy9D62UD7GL2aXYudjPJNeK6s537WmETl2rc7kXH6RLoMmrwNMfkLMOYdgjrmHeObMMjt9yGMV/Ah9xuNJ1k1xaec2Y1svfOB4jiQnjpHdxgkfJ+pFId/gJRPmUnrUM0tOmYJBg1UhQ2D4jYk49eqx3CyHNUl5Yy919EopSlKa7rzOrCiM0OwWRAU1Ulisqb0P55nWDv/e+cGZ6udn/ey1R6hyh+L64lzep45+y7fMqU33gKtSPiO8Q36OtoRGlZFapaDRgaa0N1sxg9LjBCDLD9Uj9C4TgvIBa1u7diE7dlk9Yh/jTOfP8U3A2FzNRyA7i/psH9/m9wZmYto6nTmeEaCjKhNoQvAEi3nrpVBKJTSGtScCWtEf05RkzeFeC4a4KQ04PHaZlIWeNZiHi/CKvtu26hIesFLHlmTGkMGLpciwff7EWsDxjO/C4K8Qm38Si7H9a8Cddm3Q5tNTJkv5sPEGP256F90IbRQT1u7J/9v1H4DcQ51sGJAPa1242YBbo1NR8Pn45gWJhywdpia0Qa01+xLfHpeajsHMTribcYM5nwvLsZeedTsJ7ZScYpQwUgit+vP9/mzFaVA1H8W/T273Gn/hn6hq0YGxvF8/ZKXEqOxRHndOrCgDijV//bL94fKp95AbFRmFmwL23WrXSc/ie4OwpAzFaDazTO7IbzJ7PbzfQkATGE7CJU7JPa8WV9hW8gkjGGjJOmQfBlBwErXycQmSnLYF+zbaPzpbMDkvXKlDUBkcBP4GdsINgAlNdPjnllOmbSe3D0TkBknCEZYXCMMJTkLgdSsK9DSTbUFhof4W4DBEQCIkWIjA0EG4Dy+sPdAVH/CLKhZAMERMYZhpJiqC3BcRRyIAX7muwgOHZAcl+ZcicgEhApQmRsINgAlNdPjnllOmbSe3D0TkBknCEZYXCMMJTkLgdSsK9DSTbUFhof4W4DBEQCIkWIjA0EG4Dy+sPdAVH/CLKhZAMERMYZhpJiqC3BcRRyIAX7muwgOHZAcl+ZcicgEhApQmRsINgAlNdPjnllOmbSe3D0TkBknCEZYXCMMJTkLgdSsK9DSTbUFhof4W4DBEQCIkWIjA0EG4Dy+sPdAVH/CLKhZAMERMYZhpJiqC3BcRRyIAX7muwgOHZAcl+ZcicgEhApQmRsINgAlNdPjnllOmbSe3D0TkBknCEZYXCMMJTkLgdSsK9DSTbUFhof4W4DBEQCIkWIjA0EG4Dy+sPdAVH/CLKhZAMERMYZhpJiqC3BcRRyIAX7muwgOHZAcl+ZcicgLhCIfOwx3GnpRVezFgc3RFC0tUB5BtsRLRiAt+vAffgXuPdGcJpsLLS8YMuD6l+ZYFipeicgLtCBx5xthfXNe+en/sw6AuIC5RnsgbhQgHEd78H9/ffM5/FNAuIyt4dg2yPVv7QPJEsOxNjkFvx4z+LxcWhfoWCLf9EVHxGPE0fr0H9jCFP5gqscS/qhRYERH7kdqXdaoB+YwJjV7oLd6+IjiuXzX2Wi3mCFydCKs/HefdhwscNVhgROi20Ymj3e987X+PkdudDb3G0V67FYJ2EaMqCt6i5St69RbHug9fGqAygYssMyVIJkle/2S+0x604sSr2BtnMh9y8YiA+6wH38BO7jFLgChQix2+EGpgTO6d/AlSvce+3aspPfQmRPv11a50/y9pb3kgMxeusllKXdd31ar40hECDuONCJ91oBluwa6NLd5RQk7VwU5/GVuhfjNjte65tQVFiCggczH83JhHmVH51y1VWGWFbtszf4UkCceNnqrqu4CtUdrzFms8MypsfVxKh5tZ8dNATEawuO+LhKPTiTyf355f/AERAXbJusndK5t6MnmfgnkyUHolwxh9Nf+w1EXhWFM2cn4NB2Qr3ed4Qir8Pfa14VjYyHU7DYenF56+KXL7bjQPH4FwOiPCIT5RWf2YYRmx3mlkysnyWq80dGBMRFAOI1WRljvxMQaVqVHghCxAZ8ApGPSsL5Y3V4eX0Ab+4K+HB3GGZ1Ox4eOoptEd6wEGHyVcJNNGQ9h5Bnhl1jxOAlHTQJ8YicxREHBsRoXDgvwKFtx9U13m3wx6nPdg+visHpRjssth5kbvJdvgQGaQpUOrZc3DSnYfsLRFGe21LvQNdpxOD4W5jHxvDscS2up273kudsU5T8qmMoHbXDYq7CYUYPfGQcUjKLUN9jxIDpDcZMI+jtbkHe6T1Yu8rdd35dJlpk07FSf9kj23d3e05i8+E81D0dwci4FYYXelSoD2Gjgv3Mppel/JtzyrSwD9z0NDhrM7i6fnD/+Qjuf5/A/fozuBc14NSy6c3sSnD/nfaeCu3WzB1REhDnHDNLqX+qy79IKlzlpAhEXhWHHy4MwaEdh3C1HjUn7qPsRBnarw3hg3YCoxmpHtEGr4rE9pRmWLUC3uf2oP10CapONaA/dxwO7TC6UnZgFeOMWWHOBUReFY/vv5OmRgvRlSMC0QB9hvTdzHG+U6a8ajvSNdLUaDlaDCIQTXhULn3nPWXq+ZsSFLeNON8TslBg+8ie+wNEUZ7xmR0YttkxMdyHhqpKlFQ9Qs/wO1hsApozEzzk6QaQ9zs7JxDHRCBW4tBnHfCqTTheaYJgm8JIXxeqKnQoqmhCm8EGi+0t9Jp9Lujy0QdxtbwKpc7PI/RO2GGZMKDB9d3M364ecCcUudrT2oqmkWG01VWjtKoDz0Uw26bw9M5eRPiwB1ZWvs75hHPI/zyVLU1pex6LkJHghrqvcpS+9wCiYwrc77+BmxTA2Rzg/pieAaWxAlw2A8XsAnBGZhr0p48zcCQgEuxCJPJRsnX6zhv+ykCMPo8urYAPWVexhXFcfMROqC/0YvDaA6RGuh0OvzoNjRoBH64X4nA0U0n0QehyJuDQVCFjtft+VhFzA3Efym65k2fkCTnS9XyTanxFe2z0I577SqoR+yIlziwaEGNOonLMDuFVOb5dz8hz/REU9k/BMtaA4zFueboAJEticU6ZXvKeMuVjjuF2cxsaii8gjonW+Kh9yH8lAq8RaVHu8iV9SbLyN6lGMOtxPcmd0BMRn41Wsx0WoQHHfdiDVNdsR/5oFcyzRK0W2yRKj3q3f7Yypb95APHTz+BKc9xR3n09uE/T4P584x0lslOhUuIMAZGASEBcVjagDMSYi9BrBdjPnUI0A0TJaciP/LZ7ELQCjEeSvDqfdKQXDu0gSrYpO6i5gMjWJU4jhsKUKdsm8XzRgbi/GK9tdvTm7vaSZ8JtAyw2M+7td8tTAqJXUs3jz0k15l5kJ/mXVHO86i0sthfIVsiYDRSIlkeXsY6xHxHQJ+vEKLcf13e42y+XZzCvPYD44xNZJKgG9+4vcNO/gCtkIkQWhuI5AdHLboOpU6qbeagmQM9qm8pAVG2DOsvsnO40/lCBsqM5UO/9HmnxiYhlIgrJ0PiECmfmpzmr1JU9KmWSVmcZ4NCaUedjCouA6G2sfGqNM9N1oKPSnTX6eYqwtMPknNasSHUDRQIiG9U6l10MG9FWnY/0nWu9jCA68Ty0zX0YME9CkEVbvoAVKBDlST6ivfgzZSzZVTCOHkC0NrmjQwl6c7zzc/6egOhlb8HQJdXp7VtIJrPLRBGITqHFfAv1yUb05QziHbPe74PmCXSJ26Bin/wTdU4gStOX8qP4LvJhotuBs0ohIHoriD9eiwkZpDxgZ3uHiqzG8L0AACAASURBVONueUpAVAIQK2vpnI+7iCaT+D7Pgt6WGhQx7+MaXvqO4AiI18AREAl2FGWFrQ34BiKr9Ij12Bz7NQ7uysHjmwIcmhqcimYc8ucIUb8vLmBBERAVgPg5Qmy7stUveQYKxIRccdp1Ct03krySW47pJn1OaYYKEJcsqYYiRL/sT3rQoqP3WCaZLC+ZKAKRj4jF5nVx2Bjl/d5p15GncGiNKGbeCUrvEIe+2xPwACIgehsM//kd4os7e/2SZ6BAPFxuhcU2ivxk90ONOHB51XqcaxHXYSq/4wsZIC5VUg0B0S/7I6fvPYZJJstTJspA3JyLIa2AN+dOy5ZXbMDpM+JyjH4UMgvXnVmmdwQ4bupwYs1q1yDiIxJx6+IALLm1OM9ElKyxzCTdmPAwMcb1O/bv7Pl8kmqik2/h0YAVJmMX1Mne79I8y/dvHSL7G/E8kKSamaQYK3Rp7uxLeXm8mGUqZmMO1iF1IyPPqF1QPxrF6+FmnGI2Eg8UiPHXnzsjRL1mr3t5hSoSa1Py0W2eDYiJuPncdxaq1I/Z2kPvEGUL8w2/gpv+A1wzk80qva+krdvm9AmSzdFxeQIo1PSmDMRVici9Im6pZsbY5VpUi1ukpZeh9bIBdjH7NDsXu5nkGnHd3M59rbCJSzVu96LjdAl0GTV4mmNylmFMO+SRbcgKIXLLbRjzBXzI7UbTSXZt4TnsZt5Tir+ZDxBFByy9fxssUt6PVGqP3wvzZevgpHWIhjYdkwSjRorC5gERe/LRa7VDGHmO6tJS5v6LSPzcX+e6zqwu5w4zgsmApqpKFJU3of3zOsHe+99hLSOb2QAk9Y098htPoXZEfIf4Bn0djSgtq0JVqwFDY22obhajR18RYhS+yTc61y8OPm1FhWstog7ndrmjzdnaE5ZALGp3b8UmbssmrUP8aZz5/im4GwqZqeUGcH9Ng/v93+DMzFpGU6czw5XVG52T0ycb+LI2oAhEp9DXpOBKWiP6c4yYvCvAcdcEIacHj9MykbLGu1EirLbvuoWGrBew5JkxpTFg6HItHnyzF7GM85Yr1LlWLuE2HmX3w5o34dqs26GtRobsd/MBYsz+PLQP2jA6qMeN/e7F4/J2iNd+A3GOKTsRwL52uxH7uzU1Hw+fjmBYmHLB2mJrRBrTX7Et8el5qOwcxOuJtxgzmfC8uxl551OwntlJxtnuz5t7+5tUI/4mevv3uFP/DH3DVoyNjeJ5eyUuJcfiiHM6VRmIzrqiE5FxvwPPhqyuxB/5ur8VB8RGYWbBvrRZt9Jx+p/g7igAMVsNrtE4sxvOn8xuN9OTBEQ2j4HOKVpeAhvwDcQlqFx0sPQhGYSSDTiXTTBTlsG+DiXZUFtorIa7DRAQCcr0UMLYQLABKK8/3B0Q9Y8gG0o2QEBknGEoKYbaEhxHIQdSsK/JDoJjByT3lSl3AiIBkSJExgaCDUB5/eSYV6ZjJr0HR+8ERMYZkhEGxwhDSe5yIAX7OpRkQ22h8RHuNkBAJCBShMjYQLABKK8/3B0Q9Y8gG0o2QEBknGEoKYbaEhxHIQdSsK/JDoJjByT3lSl3AiIBkSJExgaCDUB5/eSYV6ZjJr0HR+8ERMYZkhEGxwhDSe5yIAX7OpRkQ22h8RHuNkBAJCCGdYQYbKDJ6w93h0L9I2guZxsgIBIQCYhLuDPNcnYW1HaCXbjbAAGRgEhAJCCGtQ2EuxOn/i3egwoBkYAY1s5QPmUZ7GtyXovnvEiWJMvFtgECIgGRgEgRYljbwGI7TSovfEFMQCQghrUzDHZEKK+fnGn4OlPS7fLXLQGRgEhApAgxrG2AQLX8QbVUOiQgEhDD2hnKI7RgXy/VwKZ6CAJkA4HbAAFxgUDkY4/hTksvupq1OLghIqzhshwH2IIBeLsO3Id/gXtvBKdR+I/3AUaXy1GG1ObAHSvJbHnKjIC4QCDGnG2F9c1756f+zDoC4gLludiOZMFA7HgP7u+/Zz6Pb2Kh5S12/6i85el4SW+hqbclB2Jscgt+vGfx+Di0r1Cwxb/oio+Ix4mjdei/MYSpfMFVjiX90KLAiI/cjtQ7LdAPTGDManfB7nXxEcXy+a8yUW+wwmRoxdl47z5suNjhKkMCp8U2DM0e73vnO0iSC0ZgsU5BsI3i3n63oa06UIbX1rcwW+wwFBxwtZ/fkQu9zd03i/UtRoYH0VH7AGe/jnXdJ7WHV32PauZ+qR/S0dJ1HZtVi9cfqd7FOC4UYNyDLnAfP4H7OAWuQCFC7Ha4gSmBc/o3cOUK91675iXbxegjleG2eZIFyWIhNrDkQIzeegllafddn9ZrYwgEiDsOdOK9VoAluwa6dHc5BUk7F8XZfKXuxbjNjtf6JhQVlqDgwcxHczJhXuVHp1x1lSGWVfvsDb4IEIU+9Ly045V2n7OdvCoS+x6YIHR2oc0HECdets60rVCHypY+vLbaYbEY8eCwJxQlIFoMj3H/szwkuTiP2UewNlyBONeUaKUenMnk/vzyf+AIiPMaKwtxZPRbAuFi2MCSA1He6MPpr/0GIq+KwpmzE3BoO6Fev/gRCa+KRsbDKVhsvbi8dfHLF/t+oHj8ywDR1o579w2wvLqHRFUE+FXf4t7gFNqu56LBphwhmnUnXI5LBOjaZC30gh2W/vtIWuXuvwuI9ecQEaLgk9uVdL3gCHEuIMr/PvY7ATHEps0lW6AjQXMuG/AJRD4qCeeP1eHl9QG8uSvgw91hmNXteHjoKLZFuJ2lVIEIk68SbqIh6zmEPDPsGiMGL+mgSYhH5CxONDAgRuPCeQEObTuurvFug9SW+R55VQxON9phsfUgc5Pv8nnVARQMuaccpanDloubXIDx1QZ/gSjKc1vqHeg6jRgcfwvz2BiePa7F9dTtXvJ0Tpna9MhKvYc+mwE3EiKgSi6EwfoUWXuuos0PIIrtFfufUf8OFlsf1F+5++8CYuMPWD2LLn31OZjfO4FY2AduehqctRlcXT+4/3wE979P4H79GdyLGnBq2fRmdiW4/057T4V2a+Z+h0hAnHMMBNMeqG6C4mw2oAhEXhWHHy4MwaEdh3C1HjUn7qPsRBnarw3hg3YCoxmpWM84RjG62J7SDKtWwPvcHrSfLkHVqQb0547DoR1GV8oOrGLuZxs0FxB5VTy+/06aGi1EV44IRAP0GdJ3M8f5Tpnyqu1I10hTo+VoMYhANOFRufSd95Sp529KUNw24nxPuFhAFOUZn9mBYZsdE8N9aKiqREnVI/QMi7AS0JyZ4CHPGSA+x9X4ZNw12NF9PQHf5A9B6LqOf2zNQbefQBT1knzfBIttFPnJCkBsvogoH3pkdRroOZ9wDvlKU7Gu74qQIUJ+HpGHBxAdU+B+/w3cpADO5gD3x/QMKI0V4LIZKGYXgDMy06A/fZyBIwFxXjqYj97oNwSuYNiAMhCjz6NLK+BD1lVsYRwgH7ET6gu9GLz2AKmRbgfFr05Do0bAh+uFOBzNKDL6IHQ5E3BoqpCx2n0/29G5gbgPZbfcyTPyhBzper5JNb6iPSnqk46+kmrEvkiJM4sGxJiTqByzQ3hVjm/XM/JcfwSF/VOwjDXgeIxbnjNAfAX19gg4z7vqoTPY0ZEdD37nbTwNBIhigo4IxBR3+VKEKMlCPE5MTKD/6SMU/JC84PeH/NEqmGdL2rFNovSouz2s/cx17gHETz+DK81xR3n39eA+TYP78413lMhOhUqJMwREAuI8HsrmslH6O+PjgixfZSDGXIReK8B+7hSiGSD6Uhy/7R4ErQDjkSSvAZN0pBcO7SBKtik7tLmAyNYpTiOGwpQp2ybxfNGBuL8Yr2129Obu9pJnwm0DLDYz7u13y3MGiJ+nSvcXY8AmRrm9uBwXAT4xD88XDMQ9OOuK1sSIuQzFNZ14PirW8xZ6TbLXNK5cRsG69gDij09kkaAa3Lu/wE3/Aq6QiRBZGIrnBEQvOwyWPqne0IFHOOpCGYiqbVBnmZ3TncYfKlB2NAfqvd8jLT4RsUrvDxMqnJmf5qxSV/aolElanWWAQ2tGnY8pLwKit4HzqTXOTNeBjkqPDFUxo7O0Q5zSfIuKVDkQjbi5S0ymSUZ2Qwdayi44o3s+KR8vFwhEX4YfsfUH1JvssAiPcGqduz2+7g/G9x5AtDa5o0MJenO883P+noBIQAxy5BKMsbMS61QEolMQMd9CfbIRfTmDeMes9/ugeQJd4jaomMiRT9Q5gShNX8qP4rvIh4nKDpOAqADE47WYmHUK8R0qjrvlORMhDuJWkvs7yZi/JBDFOmaShDwjVqnuUDgSEL3tKxT0Qm0gvYSiDfgGIvtEFLEem2O/xsFdOXh8U4BDU4NT0W7ny3+OEPX74gJ+kiQgeg8MKUJsu7LVL3kuKhAVkmpWRcViw4aNiFZ4D7zzVj8stjfzfscnDoolS6qhCNEvewpFR0Vt8vYTJJPFl4kiEPmIWGxeF4eNUVFeA2jXkadwaI0oZt4JSu8Qh77b43X/XEojIHorlf/8DvHFnb1+yXOxgCguu/heYdnFlmy9M4u26YLngn1Rt4sRIS5ZUg0B0S97mmvM0t+9xyzJJDxkogzEzbkY0gp4c+60bHnFBpw+Iy7H6Echs3DdmWV6R4Djpg4n1qx2DTo+IhG3Lg7AkluL80xEyRrPTNKNCQ8TY1y/Y//Ons8nqSY6+RYeDVhhMnZBnbx21jr8XYfItkk8DySpZiYpxgpd2hqfbeHFLFOzHZbBOqRuZOQZtQvqR6N4PdyMU8xG4osFxDXSwvxXBR4L81V7H8Bgs2Ncfw9fM+s/I7dmokF8hzjRghNr3TMGcvkE83rJp0wNv4Kb/gNcM5PNKr2vpK3bfNp8MG2E6g4PmC2GHpWBuCoRuVfELdXMGLtci2pxi7T0MrReNsAuZp9m52I3k1wjrpvbua8VNnGpxu1edJwugS6jBk9zTM4yjGmHsI5558g2PHLLbRjzBXzI7UbTSXZt4Tnslv1mPkAUIxhpucBgkfJ+pFJ7/AWifIpPWodoaNMxSTBqpDDwkOqI2JOPXqsdwshzVJeWMvdfdO4wI97nXNeZ1YURmx2CyYCmqkoUlTeh3WBzJtT03v/OY6nDfIHIbt2ma375eeu2QYWt2/6BEzUjEEQoDj7DQ10lSmu70CdC22ZF+7XdIbuDzbyAWNTu3opN3JZNWof40zjz/VNwNxQyU8sN4P6aBvf7v8GZmbWMpk5nhqtkB3QkJ0w2EHo2oAhEp6LWpOBKWiP6c4yYvCvAcdcEIacHj9MykbLGuyMirLbvuoWGrBew5JkxpTFg6HItHnyzF7EysLGGIG7HFp9wG4+y+2HNm3Bt1u3QViND9rv5ADFmfx7aB20YHdTjxv7Z/xuF30CcY92cCGBfu92I/d2amo+HT0cwLEy5YG2xNSKN6a/Ylvj0PFR2DuL1xFuMmUx43t2MvPMpWM9sqybKcr5AlB4ULNZJmMTNvesKFTf3FuvgI+JwIFuHlmcmmIS3GDeb8aKzHrdOJH6RxfqsjSzkfF5AbBRmFuxLm3UrHaf/Ce6OAhCz1eAajTO74fzJ7HYzPUlAZPMS6Jyi5RC0Ad9ADMHGLsQx0m+9H2JWgkycQGSmLIN9vRJkTn1cmWMtHPROQCTwh/WTarABKK8/HJwG9YGAF642QEAkIBIQlzCCDFdHQv0iSIaDDRAQCYgERAJiWNtAODhq6sPSPHAQEAmIYe0M5VOWwb4mx7Y0jo3kTHKejw0QEAmIBESKEMPaBubjGOk3KxOoBEQCYlg7w2BHhPL6ydGuTEdLel8eeicgEhAJiBQhhrUNEIyWB4xCQU8ERAJiWDtDeYQW7OtQGPTUBgIE2YCyDRAQCYgERIoQw9oGyPkrO3+Si7dcCIgExLB2hsGOCOX1kxPydkIkE5JJqNgAAZGASECkCDGsbSBUnC21I/TBT0AkIIa1M5RHaMG+JqcY+k6RdLRydURAJCASEClCDGsbIMCtXMAFqnsCIgExrJ1hsCNCef2BDlC6n5w52cDS2QABkYBIQKQIMaxtgICydEBZ7rImIBIQw9oZyiO0YF8vd4dB7Se4hLMNEBAJiATE2SLE23XgPvwL3HsjOE02FgrUcHYm1DeC5XK3AQIiAZGAOBsQO96D+/vvmc/jmwREGi9hPV6WO9AW2v4lB2Jscgt+vGfx+Di0r1CwJcIvQ+Mj4nHiaB36bwxhKl9wlWNJP+TX7xcqsC/9e151AAVDdljfvJ/1YxkqQbLKP5l96TaHcvkLjei4B13gPn4C93EKXIFChNjtcANTAuf0b+DKFe69di0sbDSU9U1toyh1ITaw5ECM3noJZWn3XZ/Wa2MIBIg7DnTivVaAJbsGunR3OQVJO8PC2fCq7UjXlKDggfRpgn7cDst4H6pd35WgQHMKcQTEOXW+YCDOFj2Kf6vUgzOZ3J9f/g8cAXFOvSzEadFvCXpfygaWHIjyjhxOf+03EHlVFM6cnYBD2wn1+pURHUkRI0WE83MCXxyIcmCO/U5ApGlVeiBYpjbgE4h8VBLOH6vDy+sDeHNXwIe7wzCr2/Hw0FFsi/CGEa+KxlcJN9GQ9RxCnhl2jRGDl3TQJMQjcpZIJjAgRuPCeQEObTuurvFugxy2/l7ze+7hlc2O18VHvAz5QPE4LLZhaPZ41sev+gcOXH+IToMAs2CBQd+MnENbkKqbhMX2EtfiZferohB39BYq2gwYGJuEeWwUz/VtuJ95ABsjPe9l2z0XEHnVJpxvFescRO5ub2jwO3Kht9kx3pqF9Z/1IH1n1p1A7IGbqHwyjOGJSZiML1GrSccWhfaI+t2Wege6TiMGx9/CPDaGZ49rcT11+6z6ZfsSjHMnEAv7wE1Pg7M2g6vrB/efj+D+9wncrz+De1EDTi2b3syuBPffae+p0G7N3O8QCYheYygYeqc6vX0ByWRumSgCkVfF4YcLQ3BoxyFcrUfNifsoO1GG9mtD+KCdwGhGqsu5ikLmVZHYntIMq1bA+9wetJ8uQdWpBvTnjsOhHUZXyg6s8gHFuYDIq+Lx/XfS1GghunJEIBqgz5C+mzkuZMo0UCA6+6t+hnGbHYLJgKaqSpTV9uCVqQP1Tjh5AlG8f9sPbRiy2WGZGEZbXQ2KKxrRZrA53xMOPDyHzT7kMxcQRfmvyWjEqM0Ow/0DUMnK2XmrHxbbW9SfjXU5KhcQW5vRMDKEtrpqlOha0TP8DhbbFJ7lpSCCKUdsf3xmB4ZtdkwM96GhqhIlVY8+3y+gOTPBp379GYR8wjnks9PBXudFyEjw/dAwWx0eQHRMgfv9N3CTAjibA9wf0zOgNFaAy2agmF0AzshMg/70cQaOBESXDc0mc/rb3I6XZBSaMlIGYvR5dGkFfMi6ii2sY4zYCfWFXgxee4BUJorgV6ehUSPgw/VCHI5mOhp9ELqcCTg0VchYrezQ5gbiPpTdcifPyBNypOuFJNUEDMTI4ygftcNiasO5rVEuJxG9Jw9PhCmvCJFffRzlJjssY13I3B7tup9fnYirnTZYbCbkpzByY6Yb/AEivzoVZSN2WIZ1OMDImVftwq0X4vvHJqTHuOUvAVEw9+Ba4hp3ezYcR8WgHRahFSfZ+2NOonLMDuFVOb5dz7Rz/REU9k/BMtaA48z9gQ52/mgVzDbfiUQW2yRKj7rbH0j5HkD89DO40hx3lHdfD+7TNLg/33hHiexUqJQ4Q0B02UogOqB7mTHDjG2SS+jJRRmIMReh1wqwnzuFaAaIvhTIb7sHQSvAeCTJa8AkHemFQzuIkm3KDm0uILJ1itN2oTBlyn91Cz02O8Z0JzwiMnH6MrPd7g3EpHy8tNlhrsrwiqTWHr4NXXU9rh9a7yU7se9+AVEViZT7I7DYLChPZQCXlI8XNjtGdCewmtGjBERL6yWsYb4X6ztcboHF9hq5u9364vcX47XNjt7c3V5tTLhtgMVmxr397vtZnQX73AOIPz6RRYJqcO/+Ajf9C7hCJkJkYSieExC99B5svVL9oQeTcNCJMhBV26DOMjunO40/VKDsaA7Ue79HWnwiYpXeHyZUODM/zVmlruxRKZO0OssAh9aMOh9TXssSiMlFGBCnKAsOeDmK1Mq33kBMKYLRx/1zGZE/QBTL4D/Dz1R7xvUQk3THCIttHEWH3VGp897P7xXFd4jy+r/JH4bFJqDwkBtwfGqNc3p4oKOSyX6dyYIt7TA5p2QrUt33y8sM5rUHEK1N7uhQgt4c7/ycvycgetlJMHVKdRMMv5QNKALRWVnMt1CfbERfziDeMev9PmieQJe4zTMyStQ5gShNX8qP4rvIh4nKDnNZAnEWwB1TSKrhZ7l/LsX6DUTVdqj1U7AIbTi9IQK8ai/yDHZYBkuQvMpT9lKE6DcQj9diYtYpzXeoOO5Zx1z9Wqq/ExDJeS6VrVE9y9/WfAORneuOWI/NsV/j4K4cPL4pwKGpwalotwPkP0eI+n1xAT9JhgQQv9aib9Ys0yHc/prp7977MNjsGLjvuRkAr1qNE3ViYoosqWYJgCgOxk2ZXZiwvUNr5hao9t53Zs6+zE/xeHgR7wsYiJ8jxLYrWwPWrz9OYsmSaihC/CL680fHdM/yh8VK0KEiEPmIWGxeF4eNUe6EEUkYu448hUNrRDHzTlB6hzj03Z6AB1xIAHH7LefSBKH+nMcSAl4Vg1MNYpJMH9RfMUDceBVtYoZp+1XPbNtVe5H3KrB3iOu+y0dtfQtuHpn/O0RJN/y6c6ifsEPoVON4/hAsNgNuKETmEhADfYf44s7egPUrtW2245Il1RAQv4j+ZtMt/Y1AuJxsQBmIm3MxpBXw5txpT4ev2oDTZ8TlGP0o3MoAQswyvSPAcVOHE2tWuwYdH5GIWxcHYMmtxXkmomQFNJN0Y8LDxBjX79i/s+fzSaqJTr6FRwNWmIxdUCevVayDX3UID4bEJRE9uLLT/b5tdcJNPBa8px15VQLUevFd4Sga1d9h24Y1iNn0NU486MKrYe91iK4sU3MXLsmyTK9JWabJygPH3ylTUU68ag1SKwVYrK/xUpwufZqLbbKkGed90trE0SfIZuTOz5ZlahblUIfUjYx+o3ZB/WgUr4ebcWqD2x5YnQX7fMmnTA2/gpv+A1wzk80qva+krdsUx1+wbYTqV/Y9K1EuykBclYjcK+KWamaMXa5FtbhFWnoZWi8bYBezT7NzsZtJrhHXqe3c1wqbuFTjdi86TpdAl1GDpzkmZxnGtENYp+CYRYFHbrkNY76AD7ndaDrJri08h92y38wHiOLCemlf0MEi74X3ktK3nG3FoLhO0DyI1poqlNZ04aW4ZZp1FNUZ3lOFUcl5zi3VpLLF45j+Dm7WKCTVyNch1lajuJxZh1h3dkHrEKU+iMeIA2Uz/bBN4fHVeEUHJEWIw40NaBl5jUc1VSieYx3i9qwujDDrLovKm9BuEJeMvEXv/e+wVqYrtk3BPJ8XEIva3VuxiduySesQfxpnvn8K7oZCZmq5Adxf0+B+/zc4M7OW0dTpzHANpiyobnL8ZAOz24AiEJ1CW5OCK2mN6M8xYvKuAMddE4ScHjxOy0TKGu9CRVht33ULDVkvYMkzY0pjwNDlWjz4Zi9iZ3GW4nZs8Qm38Si7H9a8Cddm3Q5tNTJkv5sPEGP256F90IbRQT1u7F+nCAixv2I7tjp3YhnE0MRbjE+Y8byjFuoj2zwWqbMGFRl3EKfV+cjT5kP9wzFsjYnA8SpvIErlxx3NRUW7AUbzW5jNo3ihb8ODSwvbqYZtj7MeMdodFkHehQublKM2CYimiuPYeCgX1T0jGJl4C9PgbDvVxCA+PQ+VnYN4PfEWYyYTnnc3I+98CtbLknbkbQrm9byA2CjMLNiXNutWOk7/E9wdBSBmq8E1Gmd2w/mT2e1mepKAyOYl0LlPXxTM8bLS6/YNRDLYgA1WBHZGvfjO8RmuxCnD6EsbHL8tB91WO8zNF31G5RIQx3TpAffxS7d/sct3ApGZsgz29WL3j8rzfjgnmZBM5msDBMRFBD+/4QR0YnQ2VoPDzE4+81XOfH63M1fcqu0NqjOUk3TEMiUgKi27mE+dofybYANQXn8oy4raRiBZ6TZAQJwnEHlVLL7Nlv5FUwkelNXj8YA4XTqJ7ht7vHakWQpD48UsVzGZZqwex6J8R6gExGveC/SXKIpcCjugOghsZAPzswEC4ryBuBVXutz7bwoTZvTp25B/Zo/XdmhLZZwR35Y4d8R5XX7c53tPsS0ERALiUtkk1TM/x0xyC47cCIjzBCIZbHAMNlC5y6csg30daPvp/uVhZ6Sn8NATAZGAGNaJNcEGoLx+cpzh4ThJj+GpRwIiAZGAuETvD0U4kiMNT0dKeg0PvRIQCYhh7aTlEVqwr8lxhofjJD2Gpx4JiAREAiJFiGFtAwSv8ITXl9ArAZGASM6QbMBvGwh2hC2v/0s4RSpz5QKUgEjO0G9nSI5i5ToKSfdyIAX7WmoXHck2F8MGCIgERAIi2YDfNhBsAMrrXwwnSGUQTCUbICCSM/TbGUpGQ8eV60DkQAr2NdniyrXFL6F7AiIBkYBINuC3DQQbgPL6v4RTpDJXLmQJiOQM/XaG5ChWrqOQdC8HUrCvpXbRkWxzMWyAgEhAJCCSDfhtA8EGoLz+xXCCVAbBVLIBAiI5Q7+doWQ0dFy5DkQOpGBfky2uXFv8EronIC4QiHzsMdxp6UVXsxYHN/j+l0vzVd6XLn++7aLfrUxHtGAA3q4D9+Ff4N4bwWmyF/xvuMgOV6Ydfim9ExAXCMSYs62wvnnv/NSfWbfo0daXLv9LGRaVG56OasFA7HgP7u+/Zz6PbxIQF+h/aJwt7jhbciDGJrfgx3sWj49D+woFW/yLrviIeJw4Wof+G0OYyhdc5VjSDy0KjPjI7Ui90wL9wATGrO7/d/i6+Ihi+fxXmag3WGEytOJsvH99CMSIv0T58/l/iLwqjmc0RwAAIABJREFUCnFHc1HRboDR/BbjghWG5x0ozj6CjRHz7/eGix2uBwrpwcJiG4Zmj3KZgd4vyno+/Q1ER4Hey6/LRIvNDktrFtaqlPsZaJlLdf+CgfigC9zHT+A+ToErUIgQux1uYErgnP4NXLnCvbRZuqJPWipbCMd6lhyI0VsvoSztvuvTem0MgQBxx4FOvNcKsGTXQJfuLqcgaeeiGMdX6l6M2+x4rW9CUWEJCh7MfDQnExal/FAwovkAIu5MK16LTnxiGG211SjWNeHxwCQstin0605iwzwde3TKVZeMRVnXPnuD2YAY6P2ivOfT3y+ppxUNxLn2ja3UgzOZ3J9f/g8cATFsfM+XHFeLUfaSA1He6MPpr/0GohilnDk7AYe2E+r1i/9kzauikfFwChZbLy5vXfzy5X0P1nWggOBXHcSDIRGGelxNiHENTj7qG9zUv4XFZsTNXYsjrwPF47MCUS4zf+4PtL/yOhb7moB4zf+p0rHfCYg0reryOYs9FuXl+QQiH5WE88fq8PL6AN7cFfDh7jDM6nY8PHQU2xSmyESYfJVwEw1ZzyHkmWHXGDF4SQdNQjwiZ4keAgNiNC6cF+DQtuPqmsVxwKxAeFUMTjfaYbH1IHOT7/J51QEUDLmnU6WpvpaLmxQV53bIJ7H5cB7qno5gZNwKwws9KtSHvKYcAy1f7AO/bjdO5beg+9UoTIIdgmCBoU8PXc5xbF3t2ZeA27NVjS6bHULzRUTLdLkp8zFMZitqz8R69J2PjENKZhHqe4wYML3BmGkEvd0tyDu9B2tXebaH1YE/gAv0fqm/pvLj2LA/B7ruYQxNTMJkfIlaTTq2RHq3J9D2z0wp30JFmwEDY5Mwj43iub4N9zMPYKOsfF9A5FWR2JbVDZPNDoMuHetksmb7Haxz55RpYR+46Wlw1mZwdf3g/vMR3P8+gfv1Z3AvasCpZdOb2ZXg/jvtPRXarZkbjAREj3EVLL2vlHoVgcir4vDDhSE4tOMQrtaj5sR9lJ0oQ/u1IXzQTmA0IxXrmcEqDuTtKc2wagW8z+1B++kSVJ1qQH/uOBzaYXSl7MAq5n5WuHMBkVfF4/vvpKnRQnTliEA0QJ8hfTdznO+UKa/ajnSNNDVajhaDCEQTHpVL33lPmXr+pgTFbSPO92BzArG1FU0jw2irq0ZpVQeej4p1TeHpnb2IYOQTcPmqrTjTNAGL7R1e61tRWlyCguJqNPROQBCnNMs9nasECLO/7dmRC73NDrPuhF+Dk1dtwvFKk7Pukb4uVFXoUFTRhDaDDRbbW+g1+3w+JH1JIA431aNpZMgp/xJdK3qG3znl35uXIpN/YO13guyHNgxJU8p1NSiuaHT2V3xYGnh4DptZ/fp4h7hqx3U8nrDDMlCJQ+u8Ic2Om9nO+YRzyP881S9N+Xsei5CRML/yPYDomAL3+2/gJgVwNge4P6ZnQGmsAJfNQDG7AJyRmQb96eMMHAmIfo2n2XRNf1uCpBo++jy6tAI+ZF3FFnYgR+yE+kIvBq89QCrz1MuvTkOjRsCH64U4HM00MPogdDkTcGiqkCGLUiRFzg3EfSi75U6ekSfkSNfzTarxFY1JUZ909JVUI/ZDSvSYC4iCWY/rSWtcgyAiPhutZjssQgOO+5CPX+V/drBCpxr/YKIvPjIRl5sNePasDEei3A5QAqK/7ZHu9xuIMcdwu7kNDcUXEMfMJvBR+5D/Spx6bUQa0x7JFsTjlwTi+OgTqBPd8uc3HEfFoCj/VpyMYeQTYPv51cdRbrLDMtaFzO3RLv3yqxNxtVN8CDAhP8U9LpQiRH51EnJ6JmGxDuPBwfWuMljZ+HvOH62C2eY9gyHZssU2idKj7v76W654nwcQP/0MrjTHHeXd14P7NA3uzzfeUSL77lBKnCEgLkjPgeiN7nWPv9lkoRwhxlyEXivAfu6U1xSZUmH8tnsQtAKMR5K8FJx0pBcO7SBKtikPwLmAyNYnTsuGwpQp2ybx3F8gWh5d9pgGE6fZMh6KUUo/ru9Qlo9f5cdexiMxgqs/55++Pkd8Su05WefdnkCBKJcPe328Snzn+ALZPjJyvyQQLa2XsIZ5wBPbdbjcAovtNXJ3+5b/XO3nk/LxUpR/VYbXTMjaw7ehq67H9UNuyMmBKNrBbk0fxm1TeH7/kF86ZNu0lOceQPzxiSwSVIN79xe46V/AFTIRIgtD8ZyA6OUnl1KHVJdvOCoDUbUN6iyzc7rT+EMFyo7mQL33e6TFJyKWeeKXBMsnVDgzP81Zpa7sUSmTtDrLAIfWjDofUzQrCYhKEZY/AJgTuKp4XOkUQSOgt6UG9/Nu48oPZ3F0fxLWK0SeswFOqT2z3S/ZgPwYnXge2uY+DJgnIciildkeAJTql5fNXvtz/2zt/yZ/2Cm3wkOeQAyk/XxKEYzie7+CA345OhcQB7pRJE5tFrehz2rHxIsH+MZH5Mz2OZjnHkC0NrmjQwl6c7zzc/6egOiXnQRTzyu1bkUgOoUR8y3UJxvRlzOId8x6vw+aJ9AlboOKedLmE3VOIErTl/Kj+C7yYaKnw5EETkCcO6tyLiA6ZRl7EJdL29BtMGOUWT8pmF6gMC3eU1+zvBNUAsxsQJH0yB75uItoEqcQbRYnoJ1O//M7rYaX3hEo+1ul+tm/y8/9uX+29isBMdD2zxeI0hSmdByqPePxbl7e11C4JiD6ji5CQT/UhoXpxzcQ2VTfiPXYHPs1Du7KweObAhyaGpyKdgNOihD1++ICfvIhIC4SEFl9rV6PTdu/wf4Tt9EoviMba0I6k6QxGyCUADPb/UoDMCHX4ExW6b6R5JGsIt57TCeuXfQ9RaxUv1Id0nf+3D9b+5WAGGj75wtEaWE+H5EI9RMxwh9Feapntq7Uz0COS5ZUQxFiwP4uED3SvQuD23zkpwhEPiIWm9fFYWNUlJfCdx15CofWiGLmnaD0DnHouz1e98/VKALiwoHIR8Vi05atiF3rTuiQ5D7j3Meg3cc8wAQaIQa47OJwudXp3POT3XWK7eFV63GuRVznGRwg+vsOMdD2z/YOcd13+aitb8HNI77fIYqyidilQY9lJsP04FpPuUm69Pe4ZEk1BMSA/Z2/OqT7lh6GosyVgbg5F0NaAW/OnfaYwuFVG3D6jLgcox+FzMJ1Z5bpHQGOmzqcWLPaZSTik++tiwOw5NbiPBNRssqeSbox4WGie8E3+3f2fD5JNdHJt/BowAqTsQvq5LWutrHlSuf+rkOU7peOc01pzhah+BPhzFn+rrt4YbPDVH9OlrQTixO14nKMEdzd63aygbaHX3VoZmH+eA8u73Q/JPFRXyOnx3thfvz1584IUa/Z61peIS5NWJuSj27z7EBMuC1Gl1bo0tzZoJKclY7+3C/1VxjXI5uxM19ZpoG235Vlau7CJVmW6TUpyzTZPcBd7xCZrdvExJqv7/Q737f2FR4O2cSaJZ8yNfwKbvoPcM1MNqv0vpK2bpvVnymNF/rOPQ6VZKEMxFWJyL0ibqlmxtjlWlSLW6Sll6H1sgF2Mfs0Oxe7meQa0dnt3NcKm7hU43YvOk6XQJdRg6c5JmcZxrRDHo6abUjkltsw5gv4kNuNppPs2sJz2M28pxR/Mx8gisCR3tEMFinvRyq1x18gyqekpHWIhjYdsw2ZGimfNw+QHLK/STUBlx+RBPUTccuztzB0NX9eh1iF2m6TM/1+vPcudrHLZAKMEEX5xJ2Vtm4T1/FVobiiCe0Gsc6Zrds81qVuPIXaEfEd4hv0dTSitKwKVa0GDI21obpZjB59R4gRe/LRa7VDGHmO6tJSRp4XkSizB7Fd/tzvkv+jR2gdeY1HNVUoZtYhPpOvQwyw/V7rEMWt7cqZdYh1Z/1ah+hcltI3BYt1EHeT/XsgkGx3qY7zAmJRu3srNnFbNmkd4k/jzPdPwd1QyEwtN4D7axrc7/8GZ2bWMpo6nRmuS9Vvqmd2kISLfBSB6OzcmhRcSWtEf44Rk3cFOO6aIOT04HFaJlLWeAtHhNX2XbfQkPUCljwzpjQGDF2uxYNv9iJWwZFJAhSfjOMTbuNRdj+seROuzbod2mpkyH43HyDG7M9D+6ANo4N63Ng/+3+j8BuIc6zzEgHM7nbjcsgKC9uVIsS5przk5TtluXE/Lha2QW8Yg0mcerNYMWh4iYYHV/DNRk99BdoesXxRT3HHbjs39x40Tzo39x543unc3HsT83Ak6TV6+/e4U/8MfcNWjIm7trRX4lJyLI44p1N9A1GsZ2tqPh4+HcGwMOV6mLHYGpEmswepXXPd7+6vuFOQBjX6EYwIb2Ea9L1TTaDtd8qH2fzcbB7FC30bHlzyf6casT/R+4tnMk6fF+BrhQxhSb7BOs4LiI3CzIJ9abNupeP0P8HdUQBithpco3FmN5w/md1upicJiGzeAJ0vSrTsG4gk4EURcLAcF9Xr+RBA8lgceTiByExZBvua9Lo4eiU5zsiRgEjgJ/CTDfhtA8EGoLx+cuQExMW0AQIiOUO/neFiGh6VtTwdmRxIwb4mO1qedhSqeiMgEhAJiGQDfttAsAEorz9UHSu1a3mCmoBIztBvZ0iDfHkO8sXUmxxIwb5ezL5RWWTfBEQCIgGRbMBvGwg2AOX1E8QIYotpAwREcoZ+O8PFNDwqa3k6MjmQgn1NdrQ87ShU9UZAJCASEMkG/LaBYANQXn+oOlZq1/IENQGRnKHfzpAG+fIc5IupNzmQgn29mH2jssi+CYgERAIi2QDZANkA2YCvzb3pSYmelMgGyAbIBsgGVpoNUIRIT4b0ZEg2QDZANkA2QBEiPQGutCdA6i/ZPNkA2YAvG6AIkZ4M6cmQbIBsgGyAbIAiRHpS8vWkRN+TbZANkA2sNBugCJGeDOnJkGyAbIBsgGyAIkR6AlxpT4DUX7J5sgGyAV82QBEiPRmuqCdDPvYY7rT0oqtZi4MbIlZU3305AfqeAEE2MGMDBEQC4oqCQszZVljfvHd+6s+sW1F9J6dH4CMbmN0GlhyIsckt+PGexePj0L5CwRb/ntb5iHicOFqH/htDmMoXXOVY0g/Ny7ltuNjhcpCSo7TYhqHZ4197vqSB8aoDKBiywzJUgmTV7O3hVVGIO5qLinYDjOa3GBesMDzvQHH2EWyM8PwtvyMXepsdZt2JeclssfvMr8tEi80OS2sW1s7ZzxmZSLrydfQlM/6rTNQbrDAZWnE23lMui92v5VQer9qAVSfuIrr+OdY8N2HNcyNi6muwOv1rqObQyXLqJ7V1diCsdPksORCjt15CWdp916f12hgCAeKOA514rxVgya6BLt1dTkHSznk59+iUqyh4UOL61D57g+UIxLgzrXgtQmViGG211SjWNeHxwCQstin0605iA+PUljcQtyNd49ZXwYMm6MftsIz3oZrRY4HmFOKYPq/0gT5b/3nVWqzK0WNNvxlr9XpEPyhG1IMGxOjHsLbfhBj1PvAky3n5l9nkTn8LPTgvORDlRnA4/bXfQBSjoDNnJ+DQdkK9/ss83R8oHl92QORXHcQDMZKc0ONqQoxr4PJR3+Cm/i0sNiNu7nLLazkDUW4/gUTR8t/S9YxD4uOuIuaVGWsfFyFivdtJ8Ru+Q9TjMax99RiR/3DbD8nNLSOSRXjJwicQ+agknD9Wh5fXB/DmroAPd4dhVrfj4aGj2CabghONgldF46uEm2jIeg4hzwy7xojBSzpoEuIROcvTZWBAjMaF8wIc2nZcXfNlBqi/QOQj45CSWYT6HiMGTG8wZhpBb3cL8k7vwdpV3m3j1+3GqfwWdL8ahUmwQxAsMPTpocs5jq2r3fdL04e+pgKl71subnKDb6saXTY7hOaLiJbJelPmY5jMVtSeiXXf75oyPYnNh/NQ93QEI+NWGF7oUaE+5DXFKul3W+od6DqNGBx/C/PYGJ49rsX11O2K+p2Zwr2FijYDBsYmYR4bxXN9G+5nHsDGSHd/nWX7mDLlVZHYltUNk80Ogy4d62R9m2nX3NPKEjQl2UlHVoZiWTPlxeNajx2Wzls4fqMLhjErXrbcwO41CThXY8CweRy9DbfwzTpZH1TRCEQ+Un2hcOSP12CdYRwx57e6bERq16oL7c6/RadGe/1NuoeO4QWFlaxPRSDyqjj8cGEIDu04hKv1qDlxH2UnytB+bQgftBMYzUjFesY5iY5re0ozrFoB73N70H66BFWnGtCfOw6HdhhdKTuwirmfFfhcQORV8fj+O2lqtBBdOSIQDdBnSN/NHOc7Zcq2RTz3B4i8ahOOV5og2KYw0teFqgodiiqa0GawwWJ7C71mnwckeNVWnGmagMX2Dq/1rSgtLkFBcTUaeiecZfSXu509H30QV8urUOr8PELvhBj5GdDg+m7mb1cPuBNCAo34XPe3tqJpZBhtddUorerA81G7c4r16Z29iGD0Jeo3PrMDwzY7Job70FBViZKqR+gZfgeLTUBzZoKHfp0g+6ENQ9IUbl0NiisanfIRYTTw8Bw2s+X7AOKqHdfxWOz/QCUOyQAk6U2Cna93huJ9vMpzmrW4bcT53nhWIPYb8KjjIcqaDRi1TeHJ43Z0NVVD12nChM2OF3f2ugARqHyktvt75BPOIZ+dDvY6L0JGgieg/S3bed/3TTPQOxbl6pP0e/5Y5czfvnc/UEl/oyOBMNxsQBmI0efRpRXwIesqtrCOK2In1Bd6MXjtAVKZp3x+dRoaNQI+XC/E4WjGSKIPQpczAYemChlMFMQKcW4g7kPZLXfyjDwhR7qeb1IN2xbx3C8gxhzD7eY2NBRfQBwTLfNR+5D/SgRYI9Ki3A5KivqETjX+wUSPfGQiLjcb8OxZGY4w90tt8sfZi/e6AOdnkox0v2DW43rSGpcTjIjPRqvZDovQgOOMvviYk6gcs0N4VY5vmSk11fojKOyfgmWsAcdjmP6uPo5ykx2WsS5kbndHFvzqRFztFB8aTMhPcduJJB82qYZfnYScnkn8f3tX3tTE8rU/yYRiqUAoBK0LwrUUcCtBrygii0qpuOOGKItAFAREwqYgi6wKIogEEAwEMkS95Cfvx3re6gmddCYTSHC5Ac4f1Ewyk57Tp5/p55zT5zTy8hxqMmJcMnLd8KO/OuL3syNPpFqXEOdbkRkeCkmXgocfHJBHy/G3LhQM6yZmOPTdda3LBqofURZ/zqWsZljtDq/kL+7pyvZveJ7l1r8/bXrcoyZEQzx0Bic5EiG6ceqhM8pO9/lObmU9aRNi5A2MGG1wXLnoFYLT6qyU+AQ2ow3TmQe9lHQwcxSrxhnUJ2q/sBsRovg8FpYNlpCpKJd4ntPM1uzGcU/IYJRib+MNy+psv+KXPnl7/k72nOD8zRrl98tvbnuEIVmY8/xL5vVN4sF+93hJJ+qUhJ3R0kNe45tcZoZst+LJCeH+g1X4yPrbfMHDc2T9Mpwug6mlHQ9OuUlOTYhMjkPlE1i0r2Cs+tS6OvNXR1yn7OgXIZprcIgRoC4W13rcGbCSLg2VZgfk4UeupJ1A9SPKEhTnAiFKsQXQj1lhGHuNsNhQECESIQYFRv+QAaJNiLpEFBValXDn9PVGNGQVo+hYPnKTUhAreERcUVJyo5L5aS187soe5ZmkLYVmrBqteOkjpLNVCVGfchXGrglMWb/BprLevQhFl4Q7g4wobRjtbkV1RRnuXC9A1omDiBE8Ma5PfvR3sucEFyghat2v5SFL2a1YtDswNdDkysblmbnPByxKmLgxWyDE9FpMs3W/pye9CJT3TTy6CHHqLWpZOLCuFxPLDiyN1+Cohufs8dsASlP47345IQaoHy5H0BxFQozOQkT/nDPBJpoIMWjG6A8Rwk7vryYhKkqJ/AdF519jongG/wr1fj/K38GUkuhRmySlmBRC5OFL9ZGtRb5KcU+YotK3IiFKCTfQyUKCdlkhOGUSX1vX6fjo7WEp/Y3NwO3nvXhrtmJ+2R3+slnG8Sw3yUOfXD9BQ4g5bcq6GQ/RqY9sbbQxxz2+0iYJUd3ubNtlj7Vqrhfx6K+OxN/8ckIMUD+iLEFxLhCiWh7yEMlDVGNiO3/2TYiiRRIagz2xh5GRWoz+Rzaslrfiol6YANc8xJHjCX55BKJCtyIhJpeyMOEK3j486JF8wvp11sRq/zxDjmJ/lfPwGOzedxQnzpXh9Qxba+tEnkbSiL+T/Z/yEHvveGchevWNrWlukhD5GqIUmoKid8yjnseL7PWTOfzVkSjnLyfENQ/RX/2IsvhzTkk1REr+4ITu+XmcaBKiFBqLPdEJiIvwzjpLzXyPVeM06oQ1Qb6GOHvmyI4gxNMvlpXJuirNbRQwMEq6GFzpXvEiRCkiFrvj9yLW4E4w4eB1kusCjMc923K2t3FJgXLfpssuvHeq0QyZrq0hipmVXH6to7TOGmL0mSq0tXfjUabvNUTWZmhqOYZlZ4ZphsFbN/y5QUGIAeqHy+7v8Xcn1WxUdmGYXEBElvdc4K/8dN/PT9Skwz+jQ21C3FOKWaMNX69c8ghZse2dLl1m5RiTeLbXPUkpWaaPbVh9ZMK5qHAXKTJLv+TGFOTSNlwVPEpxcJ1JNxa8SnEXlIvXxfPNJNXo00rwZmoZlukhFKUZXLKJ7YrnziSRZZhy3dmX4nV2nvRgTPEQR8qPucorWOq9Ib0Kb60ahJhaiXG7A5b2K6okllica2PlGF9QecytT/48luH4aMw7a5Vf50cp5JSzMH9xGLcPuCcuKeIwiocDK8zXJESWZcqyT2deIjtOGN+IVBS9mcfnuS5cFDbKlniWqXUIt1RZpvd5lmmaG+CuNURh6zaWWHP48aSyPjvx7LTPxJqgIMQA9cPHLViOGxfm9yGcCvM3nDuCZTxJDvfcEqgutAkxJAWld9iWalYs3G5DC9siLa8BPbfNcLDs03ulOCQk1zAyOHC8B3ZWqlE2ioFL9TBdaMX7YovSxnTuKQ8iEIUMiy/DdJUNP0rfovO8WFt4RcnyE+/dDCGyCZ6vTc3UZm4I6tAjVRhddsD2ZQwtz58LSSQ3kLJWgiLFXUTbF7aG+BUTA6/xvKEZzT1mzC70oqWLeY+eIVMp9CCK3rEt4b7DPNS1VofYjLa3FiWdfnG0EqlCGQvvMyOFo1XTSq3izPseNLpqEU24Iuw8w+5PKOBbt82i92Uz6ho70Wdmz3Ru3eZRN+oqzPfTQ2R1poVD+MKK/y1mdDY3ofYFa99ZdzlafcZjD1KvOkS2ldwLoQ7xZYFfdYhKGcvECuTlGVSmaRso/hCiOuTI6xDNvSZhfIuQHsWyStcK8wPJMg1QP3x8g+Uo6aI9t26rrkNEtbh1Wzpt3SYuIdH5hvNosGA7UDk0CVFpJCodd3JfY7J4Gt8qbVittMBWPIz+3JtIj/JmYEZW+1JL0FE4DrnCipVyM2Zvt6Hm6DHECrWMagHZpJ+UXIY39yaxXLHk2qx71diCC6rfbYYQI09UoG/GjvmZETw84S5mV8vBPzN59mZX4dX7L5izrbjIVLa/Rq4gj35fPh63f8DE3DIW2C4sfU24lRaLTCWc6kmISttxJ3DjWS9GzAuwsFCgvIwZ80d01NzB0Thvfbrk0afgQvUAPswuuxJbtOrOmNwJZ8uUzb1nrN+Uzb2nxgaVzb13C8YLa3e9NUctD1H5jS4SSXkVaBqcweel71iwWDD2tgsVV9MRI9RWuuRWbTZutc5jfKQXNbf836mGtaU/UefMOB17isMaGbl+EeIGdXzMYJLtw7i5e3OEuBn9cD0Fy1HZ3Ps829x7HFHjFkR9mELUq1ZE5B3STPgKFrlJDt9zB+kmcN34JkSygratFUQvSuAvCumMdEYY2P4YIEIk4ifiJwwQBggDhIGQMBAh0otALwJhgDBAGCAMECFu/xAAhXlojAkDhAHCgH8YIA+RLEOyDAkDhAHCAGGAPET/rAayrkhPhAHCAGFg+2OAPESyDMkyJAwQBggDhAHyELe/xUNWLY0xYYAwQBjwDwPkIZJlSJYhYYAwQBggDJCH6J/VQNYV6YkwQBggDGx/DJCHSJYhWYaEAcIAYYAwQB7i9rd4yKqlMSYMEAYIA/5hgDxEsgzJMiQMEAYIA4QB8hD9sxrIuiI9EQYIA4SB7Y8B8hDJMiTLkDBAGCAMEAbIQ9z+Fg9ZtTTGhAHCAGHAPwyQh0iWIVmGhAHCAGGAMEAeon9Ww1ayrqTYs3jcPYqhLiMydoUSyGmiIwwQBggDfmKAPEQ/FbVVSDGyoAfLX/+n/LVfjqYXYZuN71bBIcm5/YztnTCmf5wQY9O68X9PZI+/VeMnPI33z5uRQpNwLuslJh/OYqXK5mpHzju1LSZ/SXcST2cdLlLj5KY+yrP1SNN560z6+ybazcuwmHtQkOR9fSeAWquPkm4XQs5VQt8+hqgxC6LGphHZ3orwvMPQaehRqw36jiZ5wsD2xsAfJ0T93ltoyK12/fXcX0AghLj/5CD+Z7RBvtcKU567nacHD2wTQtyHvPJ6PK3hf50YWXRAXpxAi+u7ejwtv4gEmsj9GnNJZ0BI8QiiJq0wjIxAX1OHiJoORI4swDBpQWTRcUikS790SYSwvQlhp4/vHydEtcJP5332mxAlXQQuFyxh1TiIopid4f1wj9GXR6jWJ332nrCkhLuI/GSFob8WoTHu69KuM4joX4DhUz/C/toZeCJ8uMefdEG6UGPAJyFKEQdx9exLfHwwha+VNvyonIO1qA+vTmUhMdR78pB0evyd/AgdhWOwVVjhKJ/GzC0TypOTELaO9R0YIepx7aoNq8Y+3I3ylkHduUA+M7JNyCpBY68ZUwvfYF2Yx9hIL6pvnkRcmOezpCNP8MnuwOe6TC+r+mTdImT7HMqPuH8j6f5C4aADsr0Xl+KP43bze3z6Yod1cR6j3fXIT47yaofL7g8h8nvUYdXuG7u92pV0Sbg/7IA8WIKch0MwLyzjY/dDHIpKxpVWM+asixjtKMGzwLUGAAAgAElEQVTRaLf8TBY2vonZj2EanMbM4ndYFxbwob8ND7L3rTu+vB//5VHKaUW0eRGRV/d66SPkWp9yTZ+t97r2X8pMz6bJmjDw5zGgSYiSLgHXr81i1bgI2912tJ6rRsO5BvTdn8UP4xLmL2QjRiA5SReGfeldWDba8L/SYfRdqkfzxQ5Mli5i1TiHofT9CBHuFwd6I0JkE3j+GR4afYahYkaIZoxc4N85jz8TMmXyJ17vxazdAXlpDr0vW1HX+Bq9Zruyljf16gr2CPJvnhDfoa3dgk+DnWh40YqX7yxYZM+cMuEfvScBcR1xslvPQ5R0nmHWut4vitzrEuKkGW8GXqGhy4x5+wre9fdhqLMFpkELluwOjD8+5iIIpp+kmwOYszuwNDeBjuYm1De/wfDcv5DtNnTdTPY5vrwf6x2l5CuoEsPBXue1uJCsrZ/12nVdy+90kt7ZCFef+DXpbJPzWn6s1zV+Dx3//MREOied/xcY0CZE/VUMGW34UXgX8SIRhB5A0bVRzNyvQbbgNUnhuXhdbsOPB89wWi8MpD4DpuIlrJY340K49oS2MSEeR0OJO3lGnZDDP/9MUo0UnoMXFgfkhSHc3Of2FKTwFNwdtEO2W1CV7u7X5gnxK96WH4d+TaeSLhoZ9XOQ7SvoKNCekP0hRDVwdt0Y2JgQ51uRGR4KSZeChx8ckEfL8bcuFGwsTfMOyH13sYvLGXkeTQsO2D69wD9CyFEXk4lnkyuQFzqQE6k9vmrZtD5LWc2w2n0nEsn2b3ietfn2dWpCNMRDZ3CSIxGiG9daY0PfkX52Ega0CTHyBkaMNjiuXHRN3uspRUp8ApvRhunMg15W9sHMUawaZ1CfqD2hbUSI4nNZ2O53hEylg1X4aHfA2nzBy9MxnC6DqaUdD07FuPq2eUIcxz1V5qeU8ULxvCYq3B6ZZ5+dWafreYji/ezcL0I01+AQI0BdLK71OCD3FMKgfE5DpdkBefiRK2lHOlGHz3YHRksPuXTAn5lcZoZst+LJCe3x5ff9p0eBEKXYAujHrDCMvUZYbCiIEGnC/0+xSWVBXnPKfzke2oSoS0RRoVUJd05fb0RDVjGKjuUjNykFsVrrh8mNSuantfC5K3uUZ5K2FJqxarTipY+QV1AQYnotpu0OmJ+e9GtwNk+Ivbik8qSk5Pvo/DCJ3ofHNZ/92zzEQAgxu1UJ7U4NNAnZr84s2OcDFsj272jM3iKEGJ2FiP45Z4JNNBHifzn50LPJGAk2DGgSoiJk5D8oOv8aE8Uz+Feo9/tR/g6mlESP2i0pxaQQIg9fqo9sLfJVivaEudMJcSNABAUh5rQp64rqpB3+Wbb/i8Yc7fHdqH9/5LrgIaqfRx4iTcpqTNDnnYsJ34QouvKhMdgTexgZqcXof2TDankrLgpJINKahzhyPEHTy1kPYFuSEA8bMbFuluksyg67CcIjy1TlIa6nG3YtKAhxzUPsveOdpbmR/P5cp6SanTsB+YMPuofw8acwoEmIUmgs9kQnIC7COysvNfM9Vo3TqBPWBPka4uyZI1uTENdZQ4w+U4W29m48yhTWEPeVYMTugK39ikfJgaSLxMWOFcj2CRT9vY0IcW0NUcw8/ZUA/d1JNRuVXRgmFxCR5Y31X9lHaosmdcJA8GNAmxD3lGLWaMPXK5dU5RW7cOkyK8eYxLO9woTPskwf27D6yIRzUeEuUpRCU1ByYwpyaRuuCh6lCAxn0o0Fr1IiXb8Tr4vnm0mq0aeV4M3UMizTQyhKM2g+w5Vlah3CLVWW6X2eZZrmHkwp5BRqZlmJxjDuHHBnpYYnP0K/zQF5ph5pIYJ+xDrEreghsixTK+vXS2THCeMbkYqiN/P4PNeFi0G8kfjGhfl9CKfCfM13Q3z/6Nw9B5AutqcutAkxJAWld9iWalYs3G5DC9siLa8BPbfNcLDs03ulOCQk17A6tQPHe2BnpRploxi4VA/ThVa8L7YobUznnkK0UL4hgiksvgzTVTb8KH2LzvNibeEVJQtSvHczhMgK5fla10ytdyE9a9+rDrGtBXUvhDrElwUedYjsN/EFPZhhNYTWGfS0NuN56xA+si3WlufRcsEztPi7Q6bqkCOvQzT3moQkmCKkR7Gs0rXC/ECSalidaeEQvjCv2GJGZ3MTal90os/MSlK+Y7T6jJKhKo5VMJ2z8haPrduq6xBRLW7dlk5bt4lLJHROxsEOxYAmISqTWVQ67uS+xmTxNL5V2rBaaYGteBj9uTeRHuVtHTCy2pdago7CccgVVqyUmzF7uw01R48h1gcZsuewHWKSksvw5t4kliuWXJt1rxpbcEH1u80QYuSJCvTN2DE/M4KHJ3z/9wfnTjWlaOwzY9r6HVbrPMZHelFzy3unGi73XmXnlhnMLn3H4pIVYwNtKMpMRKiX3MJONb/BQ9wo5MgMAtk+jJu7N0eIzv5GIimvAk2DM/i89B0LFgvG3nah4mo6YgRvWMFOEL5Myube59nm3uOIGrcg6sMUol61IiLvkEeCWLDKT3J5zzmkE9LJr8aAb0IMwkntV3ee2qMXijBAGCAMEAY4BogQifgpPEQYIAwQBggDIWEgQqQXgV4EwgBhgDBAGCBCpFABDxXQkbBAGCAM7HQMkIdIliFZhoQBwgBhgDBAHiJZhDvdIqT+0ztAGCAMcAyQh0iWIVmGhAHCAGGAMEAeIllG3DKiI2GBMEAY2OkYIA+RLEOyDAkDhAHCAGGAPESyCHe6RUj9p3eAMEAY4BggD5EsQ7IMCQOEAcIAYYA8RLKMuGVER8ICYYAwsNMxQB4iWYZkGRIGCAOEAcIAeYhkEe50i5D6T+8AYYAwwDFAHiJZhmQZEgYIA4QBwgB5iGQZccuIjoQFwgBhYKdjgDxEsgzJMiQMEAYIA4QB8hDJItzqFqEUexaPu0cx1GVExq5QeqlpYicMEAY2jQHyEAk8mwZPMJBpZEEPlr/+T/lrvxy9pfsSDPokGchI3skY+OOEGJvWjf97Inv8rRo/4Wm8f9a9FJqEc1kvMflwFitVNlc7ct6pbTUZSroIJGSVorHPjGnrdyzalmEeG0DdvUzEhXrqStpfihG7A1bTuaDQgRR9E912B+SeQhh0nrKqXzZJdxJPZx0uUuPkpj7Ks/VI02hL+vsm2s3LsJh7UJC0/rPUz96un6WUMkROWhFtXtT8M/SUIESlS0m3CyHnKqFvH0PUmAVRY9OIbG9FeN5h6FT3ble9Ub/IGPjjhKjfewsNudWuv577CwiEEPefHMT/jDbI91phynO38/TggaAgg1/1UiVc7sFnRipLc+hta0GdqRP9U98g21cwaTqPXcIktbUJcR/yyuvxtIb/dWJk0QF5cQItru/q8bT8IhKEPv8qPW/HdqS/ziK85Aki1H/NEzBMWmFov+dBiJLOgJDiEUSxayMj0NfUIaKmA5EjCzBMWhBZdBwS6X5bzS/bEfe/ok9/nBDVQp/O++w3ITKv6XLBElaNgyiK2b7egBSSgZpZRoYjuJsc6XoRpYijeDTyHbJ9Go9S3f3fyoSoxgP3GH15hOr76bN/Vr104A4iR6ww9JsQGh/hwhTTn5RwF5Gf2LVahMa425N2nUFE/wIMn/oR9pcbb6Rzt45IF9tLFz4JUYo4iKtnX+Ljgyl8rbThR+UcrEV9eHUqC4mqkJ3yUun0+Dv5EToKx2CrsMJRPo2ZWyaUJychbB3rMjBC1OPaVRtWjX24G/VrXlBJl4T7ww7IgyXIeTgE88IyPnY/xKGoZFxpNWPOuojRjhIcjfZ8nhSWgPSbtWgfnsaU5SsWLF8w+rYbFZeOwBDivlfShWFv4RAsdgc+t11GjKALSReHvFYrZLsdvXeSXaEpaW8RhuwO2LpuQC/cz/S8+2Y/LNZltF2OdU1qbkI8jz2nK/Dy/Rd8WVyGeXwEjUWnvEKsfLwSsx/DNDiNmcXvsC4s4EN/Gx5k79McL2cItwSNvWZMLXyDdWEeYyO9qL55EnFh7v4qbfsImTJdJBa+VXRhNuUhWtU3p1zOEOp6hMhJUx1W7b6x26UT1pazvU2Or06PQPTDnxeMR06GUb0NCPsr3FtHOa1KaDXy6l6vayHX+pRr+my917Vg7CvJtL0I6k+PpyYhSroEXL82i1XjImx329F6rhoN5xrQd38WP4xLmL+QrZrYw7AvvQvLRhv+VzqMvkv1aL7YgcnSRawa5zCUvt8jRCN2ciNCZISVf4aHRp9hqJgRohkjF/h3zuNmQ6YuQpw0483AKzR0mTFvX8G7/j4MdbbANGjBkt2B8cfHXBOCpNuNnCYLbPYVfJkYQnOjCbWNneg12yHbv2Ok/LgHqUghibjWI0O2W2HKdU/a0WdbMW13wNJ3DwkiiQa4JugixJ4edH6ZQ+/LFjxvHsDYvEMJsb5/fAyhAvkwYkq6OYA5uwNLcxPoaG5CffMbDM/9C9luQ9fNZI/xUojsei9meQj3ZSvqGl8r/WWkNPXqCvaI7fsgxJD9D9C/5IA81YRTKgODY4KT3fqE6Blmrev9oqxBrkuIAY1vYPrhsvt7lJKvoEoMB3ud1+JCsqeR4W/b6vtcZNhTi9DdPibL/E4n6Z319BxZW9LZJue1fLcBpn4GffahV0rYc82ZWwUj2oSov4ohow0/Cu8iXpzoQg+g6NooZu7XIFvwCqTwXLwut+HHg2c4rRfAoc+AqXgJq+XNuBCu/YJvTIjH0VDiTp5RJ+Twz5tNqnER4nwrMsNDIelS8PCDA/JoOf7WhYL1zcSIpe+ua91OijyLsq5edNRdQ4LgLUsRx1H1iYU6XyM3wrO/Uvx1dFgckD+3ITM6FJIhC/VTDsgLQ7iaIOiMTUKbJESbdQQPDka5QBiadA89VgdkWwdyBP1LkefRtOCA7dML/COEyHQxmXg2uQJ5oQM5kW75pfAcvGCyLwzh5j63pyCFp+DuIDMCLKhKd/dBK6lGCj+I4uFvkJfnUJMR45JR/aL4Q4jq3+y6MbAxIQY0voHpRy3PRp+lrGZY7b4TiWT7NzzPcut/o/Z8XZd0fyG81ZlcY+jvgf5xMcKS3Phw/U5NiIZ46AxOciRCdOPapS8iOp/v71bXkTYhRt7AiNEGx5WLXiE7rQ5LiU9gM9ownXnQS1EHM0exapxBfaL2C74RIYrPk3S/MWRqrsEhRoC6WFzrcWdISro0VJodkIcf+ZXUkdPM1vjGcU8j43H3pW7Fy5qsy8Hp6s+Q7TI6riZ66WyzhCi/ue0RhmRhzvMvmdc3iQf73fqXTtQpCTujpYe8np1cZlY82ScnhPsPVuEjy2JtvuDhObKxMZwug6mlHQ9OuUlOTYhMjkPlE1i0r2Cs+tS6mPpthBjA+AaqHxGjwXTOMkdDb9YiouI5IhqHEDVhhWH8PSIy3FEKRV6BEKXYAujHrDCMvUZYbCh5iER+XnNEMGH8V8uiTYi6RBQVWpVw5/T1RjRkFaPoWD5yk1IQK3hEXBgpuVHJ/LQWPndlj/JM0pZCM1aNVrz0EQLaqoSoT7kKY9cEpqzfYFNZ+2oCculJtwfnXlohy3bM2xyY7bzuEWp03bdJD1Gr7OJk3SJk+xzKjwgEl92KRbsDUwNNQnanM8vz+YBFCfs2Zgv3p9cqoV3z05N+vRwuQpx6i1oWDqzrxcSyA0vjNTiq8px5n/kxKAgxQP1w2YP9KKUUI/KjFYbBKoQKIXqdSIjRWYjon3Mm2LBIBoVM/cJ8sI89yeefp69JiIryIv9B0fnXmCiewb9Cvd+P8ncwpSS6EkDYvVKKSSFEHr5UH9la5KsU9wQrDs5WJEQp4QY6WQjRLmO0u9U56a+tA3V89PbIxP6GZ5oww9bi7DY0ZmuEr34iZOo3Iea0Keui6qQU/lm2/4vGHPd4SZskRN4eP86qkopEvfDzoCDEAPXDZQ/2I4uwhNbNwzD5DuFixEYgRHUfiBD9m0jVeqPPW1NvvglRDBWExmBP7GFkpBaj/5ENq+WtuKgXJsw1D3HkeELA1tRWJMTkUhZWXMHbhwc9klXYS3DWxGoFPUOU/OWQ9P/AOLEC+cskRj6zNbx6pAtrda77/pCH2HvHO6uQyyAeN0uIvDBfCk1B0TsWSp7Hi+z1kzOCghDXPER/9SPqyp/z351UI4WEQwoN16wdDC2bgmFyDOGigUqEGPC85c840z1bjxQ1CVEKjcWe6ATERXhnnaVmvseqcRp1goXJ1xBnzxwJGFhbkRBPv1hWJveqNLdRwMAv6WJwpXtFkxAlXTT+eTYDm30Z3TeSEH99ABb7Cj7WnUGkkLiktLPpsgvvnWo0Q6Zra4hi5ux6L6+0zhpi9JkqtLV341Gm7zVE1nZoajmGZWeGaYbBU2/is4OCEAPUjyi/P+e/O6km5MFHGCbnEPGP54SkeIi1FhgmhxEurHFLG5RdGCYXEJHlPRf401e6x3MMSB/BrQ9tQtxTilmjDV+vXFKVV+zCpcusHGMSz/a6JzUly/SxDauPTDgX5a5zYp5ByY0pyKVtuCp4lCIonEk3FrxKcRegi9fF880k1ejTSvBmahmW6SEUpRm8CNuVZRpA0kXSgzHFQxwpP+Yqr2ClCYb0Kry1ahNi1GkTJpUSi/vYGxIKKWQfCvsYsX5BXaan1ySFnHIW5i8O4/YB90QkRRxG8XBghfmahMiyTFn26cxLZMcJ4xWRiqI38/g814WLwkbZrixT6xBuqbJM7/Ms0zQ30F1riMLWbSyx5vDjSWW9deLZaZ+JNUFBiAHqR8RoMJxLmSZlR5qoF9cRImYX77+PSJYwM1KLUCEXYOPC/D6EU2G+19wRDGNNMrjnnV+hC21CDElB6R22pZoVC7fb0MK2SMtrQM9tMxws+/ReKQ6JL5QuDAeO98DOSjXKRjFwqR6mC614X2xR2pjOPeWR/SgKHhZfhukqG36UvkXnebG28IqS9SneuxlCZITA17BmajO9QL0ZQpTiLqLtC1sH/IqJgdd43tCM5h4zZhd60dLFSM4zZCrF5KBxhpVjDONWkjCASffRx+ryZtqQKRAQ63NCAd+6bRa9L5tR19iJPvNX19ZtHgX+64RYNQlRF4Z9hUP4wor/LWZ0Njeh9gVr31lHOVp9xmMPUq86RLaV3AuhDvFlgUdykBYhsj4pZSksZLw8g8o0H+una3ubrluHqKrj43WI5l6TkCRUhPQoljW8VpgfgMHD+huIfkSMBsO5FHoA4S0zSv2goa8H+qpa6Gt7EcUSaibN0Od5hspZ9MJj67bqOkRUi1u3pWuGX4OhrySDMJ+Iy1x07jXX+4MVTUJUfhiVjju5rzFZPI1vlTasVlpgKx5Gf+5NpEd5DwIjq32pJegoHIdcYcVKuRmzt9tQc/QYYlUhQVEw5jkkJZfhzb1JLFcsuTbrXjW24ILqd5shxMgTFeibsWN+ZgQPT3j/N4TNTJhMfv2+fDxu/4CJuWUssF1b+ppwKy0WmUo41U2IbDeanJZ5hTz77rl3o2FtKBPvvREssIzPlguuOkfntQgknC1TNveesX5TNveeGhtUNvfeLRgjyr0BEqKz/Ugk5VWgaXAGn5e+Y8FiwdjbLlRcTUeMmIG49mKxcRI3G7da5zE+0ouaW/7vVMOeqz9R58w4HXuKw4L3wq455fJjp5oN6viYASTbh3Fz9+YIcTP64fIHy1GK2I+wuybo35hh+GhB1OgnRJrqEX5ir0dCHJdX2dz7PNvcexxR4xZEfZhC1KtWROQd0ryf/46O3nMh6WTr6sQ3IZKFsSkLg16Grfsy0NjR2BEGdjYGiBCJ+In4CQOEAcIAYSAkDESI9CLQi0AYIAwQBggDRIg7OzxA4SEaf8IAYYAw4MYAeYhkGZJlSBggDBAGCAPkIbotA7KSSBeEAcIAYWBnY4A8RLIMyTIkDBAGCAOEAfIQd7Y1RNYwjT9hgDBAGHBjgDxEsgzJMiQMEAYIA4QB8hDdlgFZSaQLwgBhgDCwszFAHiJZhmQZEgYIA4QBwgB5iDvbGiJrmMafMEAYIAy4MUAeIlmGZBkSBggDhAHCAHmIbsuArCTSBWGAMEAY2NkYIA+RLEOyDAkDhAHCAGGAPMSdbQ2RNUzjTxggDBAG3BggD5EsQ7IMCQOEAcIAYYA8RLdlQFZScOhCij2Lx92jGOoyImNXKL2kNFH/FAYk3RHkF11Hyu7/FkspBSXIT41HnO6/lUM9zyn6KcjWlEtKzUZ+ZvzP6X939qb1H5d5HXcKjnjJ9jvHlDxEmnB+CvDqF+xnP0cW9GD56/+Uv/bL0UEl28/2jX7/+40uNolnpLoncWXyfHIdKQIRpRTUa060gY5PSuZ15VlxuzcmurjMEtz5SXIR5VPaU5GFpJBPdkDkz35z50kJMjQMBvaMCh/XPGW5rpC9+B0/l1Kvo4LpX6N9fo94ZCTIx0/5bcERZQ5g53eKnMQdaJti+xud/3FCjE3rxv89kT3+Vo2f8DTeP8tJCk3CuayXmHw4i5Uqm6sdOe/UpiZPSXcST2cdrkmYT8bqozxbjzThpdpIsT97fdeNAUWm7hu7N9Wvn32+v78/a/oG2T6JB/ud4/ez+pT+vol28zIs5h4UJPmHCX9l3Un3SbpdCDlXCX37GKLGLIgam0ZkeyvC8w5D9wdx/F/onBFeBZ9ImYcoEKJCABt4jIpnJJCqrz4oxJoZD6fH4vQAfd37WwhRRbDOvjlJIy71OvIZYW5ARArRqNphfZB08cgoqveLxNe7VxwLX7oRv+dt5aeGghOi8zs3af9qXYrP/+OEqN97Cw251a6/nvsLCIQQ958cxP+MNsj3WmHKc7fz9OCBTRGHpNuHvPJ6PK3hf50YWXRAXpxAi+u7ejwtv4iEPziRbF1CDE59iqDf7ueSzoCQ4hFETVphGBmBvqYOETUdiBxZgGHSgsii45D+IJb/tL6dXo/TKxQ9RGViLfD0FrVk45PyRh4dm+zZxM3acHktPvT6KybxuNQjSFn7yygowZ2CbKSwsCYjroIja8TsDn86Pbz1+5viQx+iDrV0pP5O7D+Tk4WGnbp3E5n6N74+M7k9CJF5/WvEriZHX21s9vs/TohqQU/nffabECVdBC4XLGHVOIiimN/jPXAP5097hGq9bFVCVPcjWPSplms7f5YS7iLykxWG/lqExrjDlNKuM4joX4DhUz/C/vo9789/pVc2gednCoThOl8LCTIiKbjucY9CJk+0vSCFTNZCdL765EGIunikZHqud2kTmFNGhcRc3iULE7pld5Lc+kSiRbBOT9VNiIw8GIGykK66D8qaZmY28hkhrj2by8TudfbffU25J5OFP7XlUp69RsoeIc8idd/W+qnRVtxuUQdHkMJCtkWM9NnYsfAtC70614S99PXEGRX42TVan4QoRRzE1bMv8fHBFL5W2vCjcg7Woj68OpWFxFDvl0nS6fF38iN0FI7BVmGFo3waM7dMKE9OQpgPq4kpPjBC1OPaVRtWjX24G+Utg3rQN/PZnwlc0v2FwkEHZHsvLsUfx+3m9/j0xQ7r4jxGu+uRnxzlAqCk242rPSysOIPSQ+7Jicsm7S/FiN2BxZ5CxAh6CpQQJV0UDlx4gpahGXxe/IbFpUVMDL1G2fkURAjtup4bloD0m7VoH57GlOUrFixfMPq2GxWXjsAQ4q1bKSwJZ8u7MDK9DOvSEj69fYW7J3Yjy2T3CJny9vnRP31qh621wsWSLgn3hx2QB0uQ83AI5oVlfOx+iENRybjSasacdRGjHSU4Gu3ZB4bPxOzHMA1OY2bxO6wLC/jQ34YH2fs08SlFH8LFqm68/TQPi80Bm02GeWIEpuIc7A33bJv3NViOUk4ros2LiLy614VDLlvItT7lmj5b73WN37PVjsrEL3hr/srvDDFqr285CdZJJCKxcfJgRyWkqHhpbCLPRj6blH2QqEhgopcjnnO5Ra+WfcfuUcvg9hBFEhHInxMsS0xhpL8WQubPEMmcPyOjaM0zU8Kl3sSneIE++sfbVdZw17w5ZyKR9rvCDQ5fa4vsWUxuFvoWSU6RQehLoJ4sl9PXUZMQJV0Crl+bxapxEba77Wg9V42Gcw3ouz+LH8YlzF/I9pi8JV0Y9qV3Ydlow/9Kh9F3qR7NFzswWbqIVeMchtL3I0RjUmZCbUSIbALMP8NDo88wVMwI0YyRC/w753GzIVO1YvybwDkhvkNbuwWfBjvR8KIVL99ZsGh3QJ4y4R+9GwhRF15j3u6Aufqk1/rNgZJJyPbvaC+I9ZigAiFESReOA/fewWJ3wGYxo7OlCc+be/H+ywpk+zJ676V66J+RdE6TBTb7Cr5MDKG50YTaxk70mhm5fcdI+XEPkmBkcqTSDBsj7rkxtJua8PzlO0zM9aGp0/YLCNEzzFrX+8Xn+qmLECfNeDPwCg1dZszbV/Cuvw9DnS0wDVqwZHdg/PExlz4ZPpNuDmDO7sDS3AQ6mptQ3/wGw3P/Qrbb0HUzWaWfvbjcuQTZ/i8+j/TgeV09nta1oGN0SdHZ5Is8RPvAsxpPWp+l5CuoEsPxXue1uJDsxo9WG+t+l9/pJL2zES4d8Puls03Oa/meeOPXt+JRmVyFdcKN+iDtZut+zKNze1Mb/UbrukhyWtfF78R7RRIUz/n9akLk3/OjQpAaa4POttYPkfI2fBEiC00qZKS1rsgSZNYhROX5mWtJMCxZR1zHFdZtuTcpEh2Xix2lNS8whT2vIBuMqPlznV6+e9ycRo37s9jOZs61CVF/FUNGG34U3kW88OJLoQdQdG0UM/drkB3mfmGl8Fy8Lrfhx4NnOK0XvCB9BkzFS1gtb8YFH1b1xoR4HA0l7uQZdUIO/7zZpBq10gIjxK94W34c+jUdSbpoZNTPQbavoEMgOCk8Gw1fHJDnTDgp6EHSpaJknK1XdiIv0q1PJlNAhBh5ES1WB+TZduTGCfqPy0fTrAOy9TVyhfalyLMo6+pFR901JN1Fs18AAA40SURBVAjevhRxHFWfHJCXXiM3wi2PFHkZr2wOyNMtOC14XuEpJeid90yq2Yw+1b9Zr+8uQpxvRWY4W6dIwcMPDsij5fibrVuE58I074Dcdxe7+LhEnkfTggO2Ty/wjxBC1MVk4tnkCuSFDuSI+om+iW5mXAwW4S/BW5bCUnC7y4wPHxqQKehHLf9Gn6WsZljtvhO5ZPs3PM9y63+j9ryuqwnREA+dwUmO25EQxf6rPSnRo1POM6+j8ulzv5JFxHa1zhUiFrwVrXv4dyIBiSQonvN7NyREhZi8PVt1W67PGglCojzsua57dx9Bhsorc8m1ESGysPXamqq4Nun04oT11nWycl1kuEbMzEN0y+YsA4nLzHZlDfvjtXL5/TlqE2LkDYwYbXBcueia7NdrTEp8ApvRhunMg14W6cHMUawaZ1CfqP2Cb0SI4nOZpxJcIdNx3FNlQkoZLxRPZKLC00NJr/4C2S7jRbYQTj1YhXG7A19M5xAuGB6sz+uRgqgTdi6dqMeM3YGpau9M2/Tqech2K56c0Na/uq2c5u+Q7Z79kg5V4SOTsyHbY3xZJuPVHhY6dmeZqtvzx8BQ/2a9vrsI0VyDQ8rCfSyuMRl6CmFQPqeh0uyAPPzIlQQlnajDZ7sDo6WHPORnz00uM3vpR4q9jTd2B6ztV/zCv1r+//yzQIhSbAH0Y1YYxl4jLDYUv4oQpZiDyMjNR7bXXw72a6zvB3r/f6FDNvG6CJStcbH1LzYxe61tra2lsXv+ECGKRO8M1bpDpWztj8shEp2TiLxDn0y34n3sMycdtg6rJMSwLNU1cuNjsRH5cBJ0lr645xtFDmUt0Xstk7etyMAIVSBj9jyxDpJ79EppxpqHHIhRIj7L17k2IeoSUVRoVcKd09cb0ZBVjKJj+chNSkGs4FHwRqXkRiXz01r43JU9yjNJWwrNWDVa8dJHCGhrE2IvLgmehTKoyffR+WESvQ+Pe0y+0hr5WdouuybZg4+nIdsXUXvaez1nPVLgeudHKbtVCdWOFKd4PJNd31f8UQmDNma7Acq+16dchbFrAlPWb0ooVCwzUROcdOoFvtgd+FTl2SfWjrrsgsvEj0FBiGv6mRpoErKJnVnFzwcsXvphpHtnkBkGNox2t6K6ogx3rhcg68RBxAgePu9j0B1FQozOQkT/nDPBJvoXEmJ8Hoqe1CveFvO4+F/FkwpkapRQSQHe/1/rVGvy56ThynhkYcF1Qoi8D16/U9boeBYsK2/wJC0tD5G1wdpjcikZpQpJexOMGJpdjywYId5xJR6trYEKcqhl5s/moUveN37kYVD2uxQfRJqxFk7lvxGP7HdiiYhTB8yrXOu3cF3RwVpI19kPbz2IbQdyrkmISgOR/6Do/GtMFM/gX6He70f5O5hSEj3WwqQUk0KIPHypPrK1yFcpnhMyF3K7ESLvl/rIyjuKRlYg23pxaRcL9R1DBfNkZuqRJoTl+O8CIsScNmXdzDch/ovGHLf+pYQb6LQwz05WJvxaYQ2r4yNbV/P0+LY8Ia7pRyR98ZytFYr6UcYgNgO3n/firdmK+WV3eNNmGcez3CQP/PMxC5qjQIhqmX6Vh6hudyt+VrwujbU41he/CFFV4+hLB2pyEQlPfU15to92xXudXpf32pkiNy/B8JERyp7hy0PkZM/uURMqb1urn+xetUfJ7+MkLYY6+TXx6JFlyrNQXRmw7vaVvvvRR7Ftf899E6K4g0toDPbEHkZGajH6H9mwWt6Ki0LSCPcQR44neHkoGwmyUwiR6WH3zSEs2f9Fz8146I5V45PdgY9V6ZqTa0CEGKCHmFzKwoQrePvwIEJVoVotj2/LE+KafnrveGddboRP5Xp4DHbvO4oT58rwesYBeaETecJaql9tCO8TJdUI69yCXgLVI7+fJcm4Qp08u3Kj49paopLKr3oHWLv+EaKzeN0XEbjl8/QkN0OIjAyV0gNehsCyR9dKGjLYRgRrnipvO1/xAH17Tv4QoloHWoQYt1YHyZ/P+8yPHiSuEYbl96mPYoaqM/TrThZytamQpvt7dRub+axJiFJoLPZEJyAuwjtLLTXzPVaN06gT1gT5GuLsGWeGUSCC7CRClKKvoH3JmayRUzUL2W7GQx+ec0CEuOEa4gKMx90e4ukXy5Dt86hKc3/HxkzSxeBKN8tMVXmIh42Y0FxDjNlSa4hi5ul6GJUiYrE7fi9iDd6hbKcx4anP9drSuva7k2o2KrswTC4gIsv73daSdSt/p3gmwppUIH1RkwH7rWsiFrxKtRel9QzWlljkr5CWi8D8C5ny5/PMTJ8e4toOM74IisvnFyEKYUr2O1999SWLIrMQVhb7zeXQOir6EtZmGTmK+uOysDA9XzvVamcz32kT4p5SzBpt+Hrlkqq8YhcuXWblGJN4ttc9mSpZpo9tWH1kwrmocJeXKIWmoOTGFOTSNlwVPEpRUGfSjQWvUiJdvxOvi+ebSarRp5XgzdQyLNNDKEoz+PEMZ03ceoX5HnWIqjVEUV71OasVzG6yQV7+jI8sXPq+FIka1in7XUCEuGGWqWcWZdKDMcVDHCk/5iqvYKUJhvQqvLVqECLPMp1RZ5k+RJ/G/WK/g2INkWWZsizcmZfIjhPwGZGKojfz+DzXhYvCRuJSaqWS7GRpv+JRXiHpYnGujZVjfEHlMTf+xf4Gw/nGhfl9CN9mhflqvTu9ChZmc3tJzJPkhKK+X/1ZJETWVgbbSkyoz2OeEVsTi1OFN1kYVv0MNqGLoUiRQMQ2uQzcyxP3X+XX+JG3kSJ4x0oyDJOHJdmo1jaZB81/y47+EKJ4PzvfDCGKnp7zue7Qp7p9/pnpRNFvAVsvdRbki/pj9ynjs05ImLcV6FGbEENSUHpnQUmGWbjdhha2RVpeA3pum+Fg2af3SnFISK5hk+mB4z2ws1KNslEMXKqH6UIr3hdblDamc095TCyikGHxZZiusuFH6Vt0nhdrC68oWYTivZshxJN1i659SmdqMz1AIbbNz/2ZwDdLiOwZoScblIxQFrLsv5vkUx5OiFNDr/D8RbPG312XfrzqEJU6O3cd4pvbKZ51dnEX0cbKQOxfMTHwGs8bmtHcY8bsQi9aupj3qPIQxTrEWVaHaMLz1iF8/DKA9jc/X3ahDiHyOkRzr0lIgilCehSblNYK8wPJMmV1soVDSmKQUqfZ3ITaF53oW6u7HK0+o2SoujAQehBF774qyTbmoa61OsRmtL21KOUSi6OVSBXKjvjvguXIyn88tm6rrkNEtbh1W/o237pN+z9csInWOUG7SdLXmLkIkdXEMS+TEY9Q5C4mgDBy4Z4Kz4Tk7SrEpfJSRWLhhCjussOK/O+o6ipZpmtGJtuftAR3ipx/LAuWEaLrWWuEzYwAUSblGaqEls0SotpTY892kpN36JJ9z2sR3TKyvWU9DQR+TX1kemJJS6weUdlcYC2Rxulplii6UHTgw6lQt+fPZ01CVH4YlY47ua8xWTyNb5U2rFZaYCseRn/uTaRHea8BMLLal1qCjsJxyBVWrJSbMXu7DTVHjyF2HYHZdmxJyWV4c28SyxVLrs26V40tuKD63WYIMfJEBfpm7JifGcHDExv/94TfTYhSyCnUzDkgLw/hmhB6UQ8WJ0Qx+UM8l+2vkSvoh3mf+88b0fL2M2aX3DvVlJ5L8SrpYM/S78vH4/YPmJhbxsLCPMb6mnArLRaZSjjVkxDZ/VJYIrLKOzHMdqqx2WAe6cSDU/G/JMt0oxAi67dsH8ZNlgK/CUJU5NdFIimvAk2DM/i89B0LFgvG3nah4mo6YjSSmnRxJ3DjWS9GzAuwyA7I8jJmzB/RUXMHR8Vaz1+wBqYe+1/xWdnc+zzb3HscUeMWRH2YQtSrVkTkHdJcs/4VzwyGNpQ6Nh//zojJ5yQgbw9KLbuTENmEzLYvc5ZZ8JIEr3sVL9GZtanOpGSlCMy7UQhNITNnZi5fd+SEKHpAWh4i+06pD1ybM7iHyL1R1o7ojTlJg/9XDyepi3IzQlwvy1S8l51zvfkmRE+S42TI5RPbUwwCRoqC9+5xXTFCPP+DhvL81HhX0T7Xl0L867QltuvPuW9CDNIX3Z9OBfM9UmIx3i47YO264dNrDmb5STZvY5B0Ehw6cXoqbNNr5kmxpBO3N5XPdjzJZKFPVmLg6XFojR+btNkaFScu0SPUul8hANXWbc7/muEZWld7qD4JkXlGgsGrfqZIiEoba8Qr3sdJTGutzR8Pkf2e/dcMRY+sbz48O+fznRmv7Jx50mL9oCgTP2d6YHKxDco5aTrD0OzfV7m9Xn4/O7r+g4dKL7wtFib2tRWc2M5650SIf5j4D5Syrdq+ouVCjCvUsd4A0bXgmGxpHIJ/HJwTs3Mzaa0NrcUxFL0p8Xt+Lk7y/LuNjop3yjzKtf/04MsDEttxeX6qSV68R+vcGUJ1ekzOtUxP4uW/4QSleLrCMxhpieTB7ovz4bE5vU3fHh1/lmtddZ3IF7+XHX09T7yHnTv7uj7ZbTTe6jZ9fSZC/IOEKIWs1R4utOPsT2z95Wsw6fvgn7RpjGiMCAPBiwEixD9IiKH/1GPa7sDnFzle9X/0kgTvS0JjQ2NDGNgZGCBC/IOESC/VznipaJxpnAkDWxMDRIhEiLSWSRggDBAGCAMhYSBCpBeBXgTCAGGAMEAYIELcmm49hWNo3AgDhAHCwK/HAHmIZBmSZUgYIAwQBggD5CH+eguDrDbSKWGAMEAY2JoYIA+RLEOyDAkDhAHCAGGAPMStacWQ9UnjRhggDBAGfj0GyEMky5AsQ8IAYYAwQBggD/HXWxhktZFOCQOEAcLA1sQAeYhkGZJlSBggDBAGCAMhYfh/EGKLl/faHPgAAAAASUVORK5CYII=;" vertex="1" parent="Hp2LMigl68Y7-yu4LN-_-1">
          <mxGeometry x="561.0999999999999" y="750" width="188.9" height="140" as="geometry" />
        </mxCell>
        <mxCell id="Hp2LMigl68Y7-yu4LN-_-15" value="初始化self.Path和self.FeaturesType" style="swimlane;whiteSpace=wrap;html=1;fillColor=#ffe6cc;strokeColor=#d79b00;" vertex="1" parent="Hp2LMigl68Y7-yu4LN-_-1">
          <mxGeometry x="1100" y="370" width="760" height="599" as="geometry">
            <mxRectangle x="900" y="441" width="130" height="30" as="alternateBounds" />
          </mxGeometry>
        </mxCell>
        <mxCell id="Hp2LMigl68Y7-yu4LN-_-16" value="self:ClearFeaturesModel()&lt;br&gt;self.Path =&amp;nbsp;require(&quot;LetsGo.Script.Model.UGCEditor.PathModel.UGCPathModel&quot;).New()&lt;br&gt;self.FeaturesType = _MOE.UGCGameStatic.UGCFeaturesType.Home" style="rounded=0;whiteSpace=wrap;html=1;fillColor=#ffe6cc;strokeColor=#d79b00;labelPosition=center;verticalLabelPosition=middle;align=left;verticalAlign=middle;" vertex="1" parent="Hp2LMigl68Y7-yu4LN-_-15">
          <mxGeometry x="159.25" y="43.5" width="470" height="50" as="geometry" />
        </mxCell>
        <mxCell id="Hp2LMigl68Y7-yu4LN-_-17" style="edgeStyle=orthogonalEdgeStyle;rounded=0;orthogonalLoop=1;jettySize=auto;html=1;dashed=1;" edge="1" parent="Hp2LMigl68Y7-yu4LN-_-15" source="Hp2LMigl68Y7-yu4LN-_-18">
          <mxGeometry relative="1" as="geometry">
            <mxPoint x="374.25" y="152.5" as="targetPoint" />
          </mxGeometry>
        </mxCell>
        <mxCell id="Hp2LMigl68Y7-yu4LN-_-18" value="self.Path:Init()" style="rounded=0;fillColor=#ffe6cc;strokeColor=#d79b00;" vertex="1" parent="Hp2LMigl68Y7-yu4LN-_-15">
          <mxGeometry x="159.25" y="137.5" width="130" height="30" as="geometry" />
        </mxCell>
        <mxCell id="Hp2LMigl68Y7-yu4LN-_-19" style="edgeStyle=orthogonalEdgeStyle;rounded=0;orthogonalLoop=1;jettySize=auto;html=1;entryX=0.5;entryY=0;entryDx=0;entryDy=0;exitX=0.138;exitY=1;exitDx=0;exitDy=0;exitPerimeter=0;" edge="1" parent="Hp2LMigl68Y7-yu4LN-_-15" source="Hp2LMigl68Y7-yu4LN-_-16" target="Hp2LMigl68Y7-yu4LN-_-18">
          <mxGeometry relative="1" as="geometry" />
        </mxCell>
        <mxCell id="Hp2LMigl68Y7-yu4LN-_-20" value="LetsGo.Script.Core.Class.BaseModel:Init()" style="rounded=0;fillColor=#f8cecc;strokeColor=#b85450;" vertex="1" parent="Hp2LMigl68Y7-yu4LN-_-15">
          <mxGeometry x="374.25" y="138.5" width="300" height="28.75" as="geometry" />
        </mxCell>
        <mxCell id="Hp2LMigl68Y7-yu4LN-_-21" value="判定作用域是否正确" style="rhombus;whiteSpace=wrap;html=1;fillColor=#f8cecc;strokeColor=#b85450;" vertex="1" parent="Hp2LMigl68Y7-yu4LN-_-15">
          <mxGeometry x="452.75" y="240" width="160" height="50" as="geometry" />
        </mxCell>
        <mxCell id="Hp2LMigl68Y7-yu4LN-_-22" value="防止重复Init" style="rhombus;whiteSpace=wrap;html=1;fillColor=#f8cecc;strokeColor=#b85450;" vertex="1" parent="Hp2LMigl68Y7-yu4LN-_-15">
          <mxGeometry x="452.75" y="310" width="163" height="40" as="geometry" />
        </mxCell>
        <mxCell id="Hp2LMigl68Y7-yu4LN-_-23" style="edgeStyle=orthogonalEdgeStyle;rounded=0;orthogonalLoop=1;jettySize=auto;html=1;exitX=0.5;exitY=1;exitDx=0;exitDy=0;entryX=0.5;entryY=0;entryDx=0;entryDy=0;" edge="1" parent="Hp2LMigl68Y7-yu4LN-_-15" source="Hp2LMigl68Y7-yu4LN-_-21" target="Hp2LMigl68Y7-yu4LN-_-22">
          <mxGeometry relative="1" as="geometry" />
        </mxCell>
        <mxCell id="Hp2LMigl68Y7-yu4LN-_-24" value="" style="shape=image;verticalLabelPosition=bottom;labelBackgroundColor=default;verticalAlign=top;aspect=fixed;imageAspect=0;image=data:image/png,iVBORw0KGgoAAAANSUhEUgAABEIAAACNCAYAAACzM98LAAAgAElEQVR4Aey92VMbWdfuef6RFMVQgHkZDwYDwTwE8zwjQswIMQmwDWaymUFgbAO2MRhjWwbbYDyCDUioXGXV6y/Oec9XfdE33TfdEd192Vdfd3x9+XTsFCmlhAAlBhfDulCkhq2de6/9y2E/udba/0Xm5AJ6kQ2IAWKAGCAGiAFigBggBogBYoAYIAaIAWLgIjDwXy5CJ6mPdDATA8QAMUAMEAPEADFADBADxAAxQAwQA8QAY4CEEPKIIY8gYoAYIAaIAWKAGCAGiAFigBggBogBYuDCMEBCCMF+YWAn9ZfUX2KAGCAGiAFigBggBogBYoAYIAaIARJCSAghIYQYIAaIAWKAGCAGiAFigBggBogBYoAYuDAMkBBCsF8Y2En5JeWXGDjbDDj94gIXVw/8+qsXfnWn12m2gduvnvjF+Ve6vtA9BjFADBADxAAxQAycSgZICCEwTyWYNGE92xNWGj8av+NmwMXNE//w8YeP73+l1xmygeclHzj94kbXGbrXIAaIAWKAGCAGiIFTxQAJIQTkqQLyuCdPVB9NyImBs8+Am/slEj/OkPhhK1b94x/+JIbQvQbdaxADxAAxQAwQA6eKARJCCMhTBSRNWs/+pJXGkMbwOBn4xeVX+PgGkhByhoUQJowwz5Dj5ILqovMMMUAMEAPEADFADPwIAySEkBBCN6fEADFADJxaBjw8vUkEOeMiiOAh8oszhcj8yA0b/Zdu+IkBYoAYIAaIgeNjgIQQmgCd2gkQHejHd6CTLcmWp5UBziMcWXU9GG3NhYvMec/56B/elBdEEBLO+tbN7dKe8T2tXFK76JxJDBADxAAxQAycXgY4mRsyWifRXpePYI+994+OjB0JISSE0I0pMUAMXAAG2AUjOmEY2oYFTCdFw8mO6ODIReO4ynAydwQX9OHx+h/Y+e1P6Ker7AohZyUsxtvnMvyDw3E54DJ5sOzjwfKrhxeday7AuebYzhHeoUgarULJaAYuex3tJve42kL1nN7JEI0NjQ0xcDEZYPeRimkjfw+5/UmLzvwQOEu8tyUhhG5K6MaUGCAGLgADnHMhprt0+LdePb6rGhAg8WJxnDcanMwVQRUP8HbHCP2XFQyqshHsaf9Cfla8ILx90lA1OIOemjQSQvYTQtxJCDnO4+i81+VcVIr6N1f5V16hO12nLsB16rwzTf2zf50nu5BdjsyAZxjS6zR4/sUI/c4GbpeFQCbh/vbIQohfZjH+pztNVq+/JqsxGHI2VPuz3v7DgMnTfIXe8AYt4UcbD5/aBV5hY09qhZfe8Akd8fvXx8lKcdtgUuaE/9huH9b6n/qbGU6WjpsfjdB/HELSAQdT0s116He+QWf4jN5Uy0nMKX0EH3Z+x6beiLWb6ae+v4exRL9bxvYs24KTxaBN9R5/tC9hMibo7+UyTI0FnRH6jUXURR08wSEh5PwsF/zrPkII5xSFnNU2qFaLEeLkDNvPtsedW2kZPzkuKPU8MY45WTBSn7ZB9TTn2EVD5p3lnZuO7DsqVC23oO5VMyruK5BWFgxXp/2vsbZ2OK7P7Kmad16GqT1LLajTNkKhyUdsqvff6jnGBcci77EatY/liAg6Xruc7Pi6wDM9FZnjSlQttaLulRqVD8qQXhUCd+fj7cdxMXDUejhZJLJX28yClSBcibcneZwetd22/zspHgLaGqBaaUXdaiNS4kX3Ekm5qF5phfJ1Gyrbgk/kPHalpwWq1VrEH3FeJpxnxWOpWq1HUtT+DF80Hv7O8bVl+Lx8tr3+237er58uUc2Y3TBCv/0cdSGiY+0QAfnIQohHeBzGKzPMryc99ThLQshZb/9+IAjf/6gQ4p7ciJt9Q+bXneXf4KgQov/4HMOi/4rrUSaf/hhxSUKIbgXPXxux2pPCX8g4mQtS+jage7KIORJCTuTiLjBOW8dP9KfJVpzMA7mabegNO7hbFnAoIySEXAAhRBaOrFdtUL0qQrDMGZzNZ1t+hRv0k5xgndTEiF0jvKsqUMuEH60SBbfykd4tR8kim7S0orw91G6ImK0Njusz887yrq00ted5LfJ685HRV47yJSZMNSGv6Hyu9nNS48vGxbOwFFVsfF/Wo6i/AOndJSh+zMa3DRXdEXA74AHLcY3rz6pHmPiqnlYg42oOUu28ouJOf5Lkk+KBnyi/rIF8tg0VLaYHEJzMGQFXG6CaLEfRKRZCnOMSrcYz9wFj2DEh5KLw8HeO7886xn/2fmyv/7afD2qPb/ksNgxGvB8tcPg6emQhxLYhudXKMyWEnLf22/bnR4UQ2/rSB7ccF0IWW479CZpte07ysyQhxDCP3ltr0K/2IordwDuloff9N8y1XMe0gTxCTnKcqO4zKoS4FEKzaYT+wzCSHHj67YgQEld2E9eaShAamoPS+i5cvzmCNrUaObFX4O1zBdH5jai7OoiuvmG0NtUg4cre5Xi9faOQLG9Bw/UhUzl1K0oyYuDrE7An1MU7IB6Zldeg7hxD961BqFUKRAftDY0R2hVyJQOFde1o7dWgs6sXdaWZuOK7t17/6CKUNvbi+q1x9PaP4VprM/ISwq32L9T5Y32NRLJcbepr/wja2lpRlBplt69i+3sHJSAtJxcRgXvbLi633/t9PUJkYchgE++lfATxQoj1Z9tj/UwLIW6RyGZ9fS5HWICrWQjk3IOQ/LAVqpVqxB6z94Ot/cSfOfdIZC+3QbVYjBBfyznFKSgeBVrWznwEnjMvBtb/k5r4ck5XkMY8iZYrERMqGl+3QCRMtUK1WoeEI3rqisfttLw3CyF3kuFxhgWek+KBnyivKpB6VQnVowz48PeJwUh90oYiZSryVk+vR4gtY4HtzY4LIReEh79zfG3H57x85iTeD4j7zTlloP+TEfrNSWQ7eN366UIIn7AvKRXzHVX4pqnHv8aV0HXkYSDJF+52TqLs6UlIbCIeXK3AV00D/qWpwWZXESayLiPATic550vIyErH085KfB2rx38brcbnjgIMp/rDy079ggGPW8jhZCFofm6E/sk1FLQtYu3LDl4/bEOsZyQqJ9fwaXMLS9PXkGCTAIyTeSJC3ovbi+/xYesrtra3sLI4g/aSKLtPETiXEOR1PID23Q42t7ex+vQeGlP9kasx2A2NYS6wV/JvQPPkHd5v/Y7NL1+w/PgOWvLDDlTPjlsI4WSBUM5/g96whjY7bnZc6DVoDUZszzfCVzRuUtrPhV/n69jUlCAgqxN3X6xjfWsHa6+0GFNnwk/ED+elxMNDwnpYmI84tIcPjTFoocrvxQrrR6QzZEn9WNt5AVV8I+bsCCGcSxCSlQOYev4Obzd+w5eNdSw9fYjOsnhcspkUSmm/wLGU+tl/OKdApLfcw5M1HTZ1eqxpH6A18zLy+dCq12i2camUZH9ZIFRPjNAb5lB2OQX1Ey+wum7A5tZnLD0cQmnkybm1C/b40S3nVIjpTh2+N19FrF8JBqq12Oz4AmPHG7wqVyPVTpZqzjkUhRnDeNr8Br91beJbxxrWagehDgmw62bufCkDV0sf4WP7ZxhvvMe76i7ke8Wht0WH7+2DyBLxH5A8y+f4mIu39qxiF46OZh2+d2lQKOKI827CSo8pLwjLDcLnB+mZRZ2ddpt4OPn+clGdeGkw4stEiUNJrfabVIu/T1LdxdCtLjTcGEZTTTUKS5uh7pvC0GAnSit70XnjKkrlFSiu6UTX2AwG2isQKhI4vP0SUdh+G0NjY1CrVCiW16G6bRh9mru4Vp4Kf3HZgHSUd9/F0MgImpRKFJWqUHtdg962dqiHrXOEmNrViYaOUbTUKVFYUoOqtjEMaqbRXpFkJTz4J6jQMTaD/r5bUNXUIL+4BtXtExgcHUBJjCUB64/3NQGF1ycxNDqKZqUShXIlqtpGMaC5i5bCGHiL+iq2MXsfU6XB8Ph9tJfFW4kztuX2+7y/EHIF6c+Zh0QeAnkhxPqz7XEsVQhhXg+emWnInqxD1XIr6l40oWyiEPEZPlbHJHcpFgWHuPkzN3FbTxTOMwBhajlKHjWilvdsUaNythJZyjB4uli7kXORGShfbYOyOxzsybC4b5fK5Ch9UIOkZOvvTaE0u6Eryy1QLjej/E4xknL9rNovrsvR91xoKhSrbajpDLNqC7v38q8qRFZPGoL23Ke4wDMtxRT68aIFdS8aUTatQKoiGG6i6yprAye7hJhJ5l2iQHhAEGJ6q1D+nPWhEYrRHISFWnsLCBNSsTu+PZsL/eNCUlG62oa6ngi4JaYg+149ql+2oHahBjlN4fAUteeo4yvsy5EtF5iEEuYNMhq75/zmrlCgdkmN3EIPG1uzUCnHxleqPU1j4Bj/jvTPtowUIYS1PXqCiUFKJIRZM863MzgFcjaW44lW97uOHr98HSIe3FPSkTvTgJplNSofViKr5ooVnz+DB9NEuRLRmey4VyIh1BlcbDYqV6oQE5WAQjtCiNTjnXP2RnBTCUoX1KhbbkL53SLExHsiuNt+aIwUe4rH+7iFkPPAw5HG19kL/ops5E3VoVLbAqW2Hoq7ciQXBOwJjRSf3w7jWRgrTkL9/DHjdAmByiKUPG42hfFNlyA+2Qum0KqaPcK8FH6Odr6yvv5zMuvPQj/tbdmxU3ibRTDszskOCYthdfxUIYRdWGPy5Pi3yUb8+2gFtA3ZmGoowsZII/6aVOF1nq/VRZ3dJIRlFME42Yi/xqux0pSDe3V5WOmv53OTfG2KxGXRjQRzuVbU1+DfJxvx560SzNVl4U5dPl/+r8kGrMsD4SoqLzbiiQkhb9bwaOEeRh6s4bPhG549nsfi/dvQPNnAtsGIVzcSzRdEBldE0zPerUe3sYb7t8cxPDGHF+tMMNjBXJP1Sg9sUhrftQadwYitTy8xpRnH8N1nWPk0j/H7uj1CCC8qKRfwiQkMn1YwPTGOoYlHeP7pD+gNOjxQRlrZX2yf4xZCWN1+ykW+7dprMWYbCPu8ol6G3vAND5WB5t+ktt8sJMzO4v76J8zdvY3hiQW8/Mwm59/w4kai+UaFc89A4+gEhvnXIyxtszizNUybvzP91phuSfZnEkJeojEkCV1rRjxtiURC90foFlsQGNyKpzZCCCfzR8H4BnSGb1hfWcTEmAYDY/cxt8ZEq9+h7UixEqOktJ/ZTXL9MheEqZexZTCC521iHCN3nmN1YwFTsyzHjLUQItn+ZiHkGe5MbWD1yX2MjE7i7rMNfp/6txqkue+9GRIYOGzLRVaie58QLFM41gDkTJxy4ES4XxnOV403PTr8qZzAg9ZX0FaMYKJ0Cm+ub/Oigr403/qGzTkC6rpP+N6zic2GKdwrGcK96mfQdevwvfsl+oJtboDdMqBp3cb3ni1sN03hnnwED+vfYKdyEo+7dPhe32R1jssofIfvPW9wy+aJMeeUjylWvrkVoaJzHOdbjJuFtzDCv+7iHRN1rvcjXVRG3PeT7i/bF5c5inWDEa+7khwam/0m1eLveXFAM4HatBDLBD2yGtc1Mxi62YBoP5MHg7dPIMJKBzCk6UN+qMWrIazoFgY1w6hICjX/n/ckqRjAoGYQxVEmIYL9P0IxyH9XGnfFUtY3HKmN47xIIE6WamrXbdRnW7w6vH3CkdXKhJQWJOyKDny92U1oamtEYpClXd7+magdnEFnVZJ5Xz/a19CiXgyM9aM4JthcJ+trfM0ohka6kHXFsn+xjdl7//hKNLReQ25MkPm/tmUO+ry/EBKElEVLPg5OZv1ZzCh7L0UIYeetS4oyVLMJ1rMa5N3MR0ZvKeTP2ISsGQUKP3NiNc7tCmK68pHBv0qheMnCG5TIM39n+i0m0ZLXhpN5IXyYPSltRfV0KTLac5DaXoC8+82oY6EQXeFW9x1cXDYfNuFoXgDWfnEoTT5r/00FFEw4WlWjsMrf3H5bOznymfOMRf5KG+puJ9p9GGVbB7sv85QreHuqlndDP7qKUTTfwueJqBqItqrHciNcgdyBBlRMliCzswC5dxugZILBQh4C3SznaU7mg5AmS4hF+nj9gflgzBOFsRLkPa9HYX8BMnrkkD9l49uGsubL5vuao4yvbf8P+2xuT0+EQ+c3qeMr3Z6O839Y3+z9LkUIYf93U5Tzx0Vp/d58cZ61VfxxVKCwCP1Sjl9Wv9n+Y3LkPzfxmXGzDGXMu2m1FYqmwJ/Kg2mizLy8LiP5cRvktX7wU9dDxTwmApN54Ud8LpDOgyv81Eqe9bqn1cjryUdGfwXKnymQzZ+XrHOESLWneMyPWwg5DzxIH19PhPQ28ONVM1uO7K48pHWV8OdPxmdpU5CZT6k88+VlEuuXOcOrttp0LtYqwa4vmf0VqNCWIW+MCWnWQohUfqSer0x9sL7+H3Y/wP4jfsV3f4TesI2+DMt1Rfy77fufK4S4hWNe04i/hnNRdsnScKdL4ZgdbsRfmjyUiS+ILiG4P8q+L0FLgKU85+KL9nYV/pqswZjIxZBzC8FASxGeV0fxCdeEznIugRi7xcSUPJTZPJ0RypyYEPJ5EtmuLOY5Cm3LRuiXOviJCudaCA2bkM838q5yrB2chwK3mcv4xykU+ln6K/MrxThL3rk5g0LRk1zOoxz3WMLBd7eRJXpi4xp1DXOf9yZL5TxKMP7FCN3qKNK8RfV7Z6P/zTfov0yjQFS/YBu2lSSE7JcjpDbZLDzw/fVVYZatGrFrE2F/TP1resay/y6i0tcCstT2C0KCblOLlhiL94FzSBNmmZ110yhwtdRv2b+EZKmGVajDnMGLIotT0KwZsdAUAi6iHS9shRCPPLQ/mMP0YDWCxE+p3FLQvcqElxkUivnf9WhxtP2c1PpdCjDKGNyYQ2Ww5amce3wnnumY+GYjhEjkh3n9mDxCfsPTjhTzzTGbOGQMfeLFqOkKX6sTmDAGjmy53AlsHuDFozd8xXDu3vF1pG5zmcgR/NGjg/HqBKq8LTaSeddjiYkbV3uRIhIVYrNf4M+e95hLirCa/PjGTGCnR4ff5LlW/U3OX8X3ni94nZMMz916OJkvFKVvYezR4Xd5nnmSwyYIDbU6fO+5jxoRJ6ytnI8aq6ydZcVWF1FzP1gZt0os9OjwXVUPf1GbxWVkJ9xfvq2742ZPALVqy+7F7aCJtfAbLw4Mq83CAvve2ycLNSMzuFWXaTVp905S45bmNioSBXEkDvKeGfS3FCPQxhvCOyAXqpEZdFel8HV4+8Sj9OYM+tSFVl4i/P52hZc9QshoG5JtwmAuF3RjSNOL3OD9RQe+Tt9YlHTPYKhNjoDdtv1oX1l9N1VZVt4o/L5CK3BVM4W69L1hQ+z343jtL4RcRvJ8G1SPs+HHe4RYf7blQpIQwkI/XrRB9SgXgZcs5wPuUgjS5tqgelGMEDuCrOCZcFiyVOGpct1kEjzE3ljOfogZUaLsQS6CRMerZCHEPQo5LJTmaRFCfETXbZ9IZLEQjCX77be12X6f2QOVoK5GqFZboOhLRWiCH9zsXBeF/3OuYchkk8oX5YgOFoV+uPohdlIN1WoDUuJEdjZ7hLRA3hhkvgdg+73cUc9PTvOKrAViYV9se9hYmye+SxWIDRO1xysMmUxceyVH6A+Mr7gtjrw3t8dRIUTi+FomFo7Zkw99OgL/jvSVlTELIfvlCCm9bL6G8eV94lH4ug2q+2m4JLoOcTJvxN5rg+p1OSJ8RPxIPH7N9l+qRHyE5ZrtFJSIQnYcvSxGiJ15gKPHu6N2EcqZJsq1iLviDP79nWJkzbehuMqbF22YN5aVECKVB/do5DIvtIUCBInOb05hKSjU7vUI+REeJAkhF4QH6eMbhqRRBfLaY6291VyDkPJol0/R+Vcqz5y7xPqdd8/n2lJEBlrOn85R6ZAzrmyFEKnH4xHO/5zM+vpv+1k4tvbbRlx7Ayn3/z9XCIlIxx+TjfhauXfFgszKGvw1qYQmQnQCDE7B9mQj/tUQvufm3is6CbMNeeiKtjyZ2c8o7HtFfQP+mixDu5+lfnH5ExNC1voQy9/Y+aJ61gj9rIo/+XMykxeB/vlVPiaatYVLHcJ7gxFvb2VaTZbYb8m3PkNv2ERvqqX9XGw3XhuMWB/JtyrPJkxVbF82q8ZwqYP4YDBi6XqsVXlWf2T72p76xfaRIoTYrhQjfNbP1FhNDpkHQ/Xs79AbVngxQdgfF6TGE+blMqsyi0TsN6ntF4QQ/aN6q7Ao5jolv8e8YOyvqiMtR8iu+1XqIN4amM2XUB/kDMH939FVYwommB1eoUkUinLU9gt2FG/t1h96Dc9ZiIKm2PpGReYP5Tzri40QIpEfixBi3S9+LDNGec+klU6LR5S4vafl/ZX0Rd7z43WGrdt4OjTtJiEk2SxgJKC/VYfvjWqEiG7w+L4E92CzR4ed4izzscfJ4nCLle8YRZ5IGGPlfZNMITArov1ysmQMX7Pep9lOuwLGWlaUuX7zb7uCAnf5BjZYG0qy9y1zkv0V2iMIWMcuhNxSIUokZHj7ZPJCiFiY4Cf8CY3o1UyiKmlXCPHNQZ1mBtcVcXsm+94+ESjomMFQSxEvfHj75qGelS2NtVM2G3Vj9kJjVIgWtYu1wTe7HUOaARSGWwsh/qGpSC+uRXl9O5qv96Nj8C6GmFfLdQUui4WQH+zrza4uNKjbbV596GF9k+/t23GIIKyO/YQQgQ1Ht4dNjsX1cPHZvPeComFvYl7vRvYktQkpdlZDc3RixHnHo4h5mwxEmyf54v3bvrcVQmwTErJkkxHRlhtSLsHkQVJ19cqe4zbgKhMw7Lffdr8HfeZc/RB+owpVr02rf6iWGyAfzkVMut+ePnERptCeupuRVtcNVr9rSiqybhYjPtlyX2aZuFs/WWTlObZyxmobypstnp+27TxsrIWJgmoszsqjktUT1MmEGRUS7XgGOjq+tu057LPQHhaqc1hZ9rvU8ZVqz6Py70jb+fYfsmqMajjW6v6dhX9HakwT9Lhg0f1sQCKK2XE0Fm/tZSnx+BXsr9LE29xvuiB0gHkJWXtICP08KR5ME2VTSIws3nQsq1arEBPoDC4sHWW2QojE452LTOdD7faGtnkgcoxNZK37+yM8SBFCbEPbhM/njQep4yvwZm97pZfxaX2ePCrPDtcfnMp7JSnZ+Up038qO06hxO0KI1OPRLIRY94u1z5Hzv71+HPbd6RZC4nPwr8lGfCrc+xQ4srAMLHzlgeiGhAtPx++TjTBUXHbogsKM43E5CpqWcnzV1PMhMuIlfv+arEBXoOXEKzbmqRBC8if5kAFt697JTFjraz58Yizf0n7BxXy127Riibg/9pKlcrv1v10YN68GI6zoMrywsad+cX1ShBC9hGSp3tXzfIjQ0xbLTUNgw3PoDL9jhrn8ilyepLZfEBI22URfVA97f1B/pAkh73A1miVJTULT9AIejlTzoQxcjEmkshVC3KOq0PNgBW83v/JhQYJIxLa2wsxR2i+p/qQBXryxbSOzT/44E2ZshBCJ/FiEkDmU2XgacZHNuL/8BnNte9m1Hau/83OenIW5rOLWZctxx9rDOWdjsFmLNUUF/wSb/86vFW+ZV4b63m4oym5ISvE4tG1f8L1nDSOhogmCpxLaHh3+WV1p9pYR+hqR+ZwPr5mKtjzRYh4di8yjo7bGSthj/2ECBgvHmRaVF+oStm5xd/HPHh2W0/ZOqIQyJ9lfYR+nTggJKESjZgZtJdF2xI1Q5F6dwdA1kxDhvVv2akmMnbKZqB2xL4SIBRp7QggLjQnNaUeXZgaDI2NoVbegvLwKOVk5UDAh5riEkIAiNGlm0NtxFdV1arsvRebevp1pISSzkHfFr7ydb7UCAhMcMm4zF+UWZGZaH9+MVUcnRuxJdsykKcxGMVqI1OZUxMijEZzgD1d7T55tQmOEib4wUWDb3AKRELLb/lKl357rmJeyZt/2C8ebpK1vAIKKUpDcw0IJWJ/UKGm6YiUw2Ao5h9VvmbgrEG7jmcGFJiL/QS0K6/Y+HBPqFexjm5dF+F2YKNgTHvgQhNVmpNnkXGH/dXR8hf04uj2oPfbq4CSOr1R7CvVL5d9eW+19Z/YIkZAc07VEwR+T8lrLXMCjooJnOa/E4r3L9ie1/QfZ/6CJ/EnxYJoomxLkck6XETtUhoLOWN4DVBAVrTxCpPKQnIsaJiaq9x5D9pbPlWpP8ZgfZD+h3EXjQer4Mjs5h8UgZbQWVUtMELReenqPcCXKeSPYWNjuNx6S6o/dP1TTrjAj8Xoq9Xwl9O1HtqdbCEnIxf84TAhJsNyQSBVCON9oaFkozWQdNlpzcEe0vO/zm8wj5JQLIQV3eFFgfyHkD4wViOyzG2vvsBCyW7948i1+rzdY1y8G8SDhQCjHyUpxm3lFSBBCOJ9a3Ncbodde2102MRCqhW/Q6+ZRLnKPZPvgJLb/KEICvx+ZlNCY97gWYxkTsy3sCCFcUC3uszWuDXosPZzEgCi/xfTrvR4qUtsvuf7kAbyzCd8R2m8S0myEEKn2N4fG7BVChP2c5i1zx1OrWCjKDKpEror7tdklegJ/2iQmZclJ/9m1js3mBxiOi7J+QhVyC/oeHdbzrL1iWAxmiYIJJ0vo8LewxQV34UuPDlsFaXsmRPnydb78jQBLedt2xuYs4XvPZ0xGiNzrRQLhSfdXaA+XM44vBiNe2PFME8qIt45MwvlwkaN6SfgkobxvBjfrsuBj47nh7ZOC8v4Z3FRm8MKH8PmWvdCSKwq0ao4qhKSicmAGfW0KhO7mM2H9Zh4p+e3HKIT4JPN97a1J3yPkOGLnHy3zt3iE7N64iYUG8XsWl531A0IIz6rPFcR0lEI+3wTlrlcF24dKW4O0LG+rpKgHCQlsMihdCLHffvExdJT3nOdlJLBQlxUlEkXnjIPab28/B90I2ytv+x0JIdbjK9WewsRXzLz4/X78247Dfp+PMvHlvOOQz8JjplJNggBLonq7FapXCoSLwrzZPqW2/3QKISokijXhLgsAACAASURBVLzdBVseTQix4eGIQoiYAfH7g3jYb+It9Icfr10PIT4HisjDQFzG9v1Z5sEkhEgY34A45PP5atRQjBYgXbTcdN7sXo8lqTxzUuu3EebFY2MvWark49HsEbJXCBfv6zjfR15nEQ4GDOXsfz8s3t/PDY05YY+Q2JIK3qvkfdFed0656gwIIT/JI2SuIXjPREoMhb33JyaEyHxR8YDlM1lGAwsp8avHox0jNh/UWsWPsjYJHiGOtl+qkCD0W5pHiONCiOng/IanbTF73I3tevCYV71xzKNFcv2Jt7BmJxSLJe0tvsuEGRshZJdPh+1/wkLISSdL5WQZpvCXtm4kOnBBj87S4nvPOjSivEUCU/a2vrsrwMzHe1sdj5wsFNebWHLVO1CInih7xk/xYTrPk61d/FkiqZb63fI2ITbCflk4mKJiE997nuOqjcBoKXOy/TXvJ2VgNwQww6rfwu+2W0cm3z8mhAQjoW4cQyM3kGmTsyMg/Spuam6jLt2UhNXbJxjJDbf3lPX2ucwnUWVhLOJQHHvtYv2xDY3x9i9Ag52wFO8rxWgeOU4hJBiJrK+DV5EiSsrK2uQfW4qyMgXi7CwtLIwB81wJDArZIxgJvx+2/TuFkKIK6+PMljPbz0d9Qsy5uMM9OBABOanIYzkqXpQgVBS7f5CQIAghOfl/k0eISBjl7ZGWj9rVNpTU+JiP1YPab2tD9lnqxN22DhJCrD2WpNpTmLhI5d92HPb7fCQhhK2OOMqehu+GiPjEo2ilDcqROKuHBTw/u0Kmo+2XOnEU+nXU4134/35byRPln+QR4qg9xf06MSHkDPMgdXx96lk4Zivkqr1Jru168Ej0CJFcf0wmKlbbYBt6yR7IhfTbCdWRejz+DUJISh9LJfEZ3XY8AcU8C+9/rhByaI6QWqtJBHdAjhDv2BQ8aS7AzRiLq3mBso5PoDpqsywXS8pV38I8RU65R8ihOUK+oCfFonBxcT1YsZsjxPvAHCHilWoEEA7bnpQQwvbrVT7LhwQ9brwCn+p56AxfMWUniaaQI8TR9p82ISRrdMd0cCZZxpD1n7lWVz5kyUmtc5ZIbb/k+v1MS/zq5hvhLZroc06J6GTJW22FkN0cIQ7b/6SFkBNOlsrthq58r6kyJzI96DjJLv6I7z0r6LUJo9nvPwm5r/lwlkmb+HXOowqLLBFrSwdiROPCwmWYh8mDWEu4DM+Pezm/wsw/lXXmMB3bfXKyCNxgy+t2jqNIlNBRXO6k+yvsiwtsxmO2UtGsyoo74Xfb7WGTa/a7PcHB0Rwh7P/eVwrRODyDgd6rKMhIR3RMGlIKW3B9ZAZ91xQIEXmKeIcr0MqWue1pQ156GqJi0pGuuIHumwO4PnREIcQnCnnX72GovwuluVmIjopHbHo5lF0a3Bo+PiHE1NciNA3PoK+rFQWs/dEpSM5Vorl/xiSQXLbOWyK2f1hxH7/Mrjo/6kgeJX+LELIb01ze5HiILWPQ0YkR5+oJd39vuHlaxAuBYdNNqXUOD/HyueKYbPYf36a6PaEuUnNICPt2dOtdX8svmZiZtbf9srR8fjWBsiZLDg/hKbbdHCFpGcgdkCMhxXJfJnXibttuR4WQU5MjROLyuVLHV6o9hZwQUvm3HYf9Ph9FCGF1uRbKebaKKr3hxofKtCCv0DoshpWT2v4zL4RIzhFiytmzN0eI+4E5Qo7Cw0kJIWeZB6lCiClvUSOSY23nAe6IGLWT00WiECK5fh/TEs6q8UQrEZKFcSWz5K22OUskXk+lnq/2O884+j3LPVk7x+ZTWtQd4CEtru/YhJBYOfPGUOFhgp2L6e5TBs6BVWMUIhd07oBVYzra6/eIHuGFCvzFQm/kAeaYVrbUm1d4Ct5pDvYIcaT9YsMd9p6ThaD5uRF6KclSD101xnpVF/OqMe9tV41pw/ymnYk1W/WDrZby/i7y/SzjxLlFQ/3oMz58egDFPk+LTclUd6Cxc6ESbHGU0Bj2X86rEtM6I3SP1FDe+Q163SzkNu6RfDmJ7ZcqJFj6EYWrL/eu4iL8LmxNy+c67hES0vKSXylF25Eo4tMFl5K78dTeeEn0CJFcvywSai3LBfIZM+ocXPHxhId/HIr7FrH6yc7yuVLtf8JCiDAOJ7XlQm5C16PD54Jk89PQg/YVnf2CXwb3VWaUaHzdcDlmDOs3NvA2N8nKEyg2Z5kXNt7lJljKOwVCLn/Frxjzz6oKq6RxggfJRlG6+XvOyQ/5Ja/xz54veJK4N0ZYaC/nVIBpfnndq4gQiSvC72x70v0V9sXJ4tHBhDbdY1SIVoUSfrfdiifi+73/USGE1esXloeK6+Po18zwy+AOjU2gra4I4QF7hYGAGAVUPXcwuFu2/2YHcqJSobh1NCGE71dYHqo6Jsx1Do2MoaEoC4UsR8kx5QgR7OcXlovyaxr0CX3V3EP39WZkRh68LG5Ifhe/4o4qy7IcsFCnI9u/RQhhWe7ZahFPinBFtOoK5+qPOE0jqp6WIMze9Ubmh4SHbVAtFyNEtOqLLZ8shLd8tQ21gzHWN5IyD4T2s2V1G5AsCp/k3CKRvdwGlbYUEaIs/ZxXGDIem1bNiBQdF5zEVSTE7XOOTUHhghq1C+WIsxFQzeXS8vkcA7WTKfAW5fDg3PwQM86SjaqRmSG6XxBWjVmyt2oMe8rfYHWT/6M3wo4KIUrtPqvGvNxv1RjHxtdsJxbb74A9OacrSGOr+SxXICbEEobIuQYgfoo9YTXlixDqlTq+Uu3JrxJyBP5Z+xzq7xFCIVjd3KUY5L1sQ50mCVF9LVC9lCPM03pyyJeTePweXQg5GR6kTpQl8yCsGvNk76oxRUt2Qi0k2lPglG1NyaXVyLInmgrzvAvGg9TxvVRbzecFkTNhfvdejM1TXePSUWJvvCQKIZLrl/khbpqdtxuRVxsKTy83OPsGIORqOcqfse+tk5xKPZ9IPV+JeTvKe86/DrNsNdWVbkTuc69rW++xCSEuISn4fLsR/2OkDPO1GRg35+eIQpx5sF0QkyfHv0024t9HK6BtyMJUQxE2Rkx5PV7l+Npkl3ZGWEYRjJNs6dtqvG7Mxl1lHl7314MlQf3aFMEnphQ6xV0KxwJfVz101/MwVZuNudYK/KkpwnwLW253f48QR9ov7MeR7ZGEEJkrIpqeYYM9Ld1Yw/2JcQxNzOHFOhM1dvCoPsrGPu6I71rjk25ufXyJKY0Gw5OLeL2+gKlHdpbPlbkgTLWIdVH9A6P3Mb9m4BOlLt3K2ROOIvTVOb4bSztG6NZf4vbwsCjZai2izOO7myNkv+Vz+4agTLasDy/UzTwiFNNfoddtYG3diC9TlXafwDNXLSntP7oQ4oaE7nfQGb7h/YtZjI1OYJh/aVAZbblQSxVCOD8F7qwzT4vfsLIwg+GRCUzMruHjlzncfsC8RX7MI0Rq/cz+bkmd0G4ZIc4V80V7A1cn7SRLlWr/My6E+CQ95IWKhURLQjeBWXtbzkcFbSfLKbKBD7XjmCgZwUPVa/zeo8M39QDybG7ynIO7+VVcWDjN+5pxTMjH8VT9DsvVs/xSuxu2uUM8yzDfYar/ffUIxopGMN/8kU+Aul1Zbn0udElGY+Fusla2lc/yq9Z8b52Fxvx9L2pEy5KfdH/FNgtRL/P5kFaH8+we6+Kyjkywj7OMb2AkwiOjEGCz5K3tPliYiH9wDCLCw+F/SFnb/+73mYXYBITEISo6FsEBl4/kdbFf3Xa/DwhHWFQ8QoKDHQ538fU7eruOWwipvFOEjK58O68E+JqvSy7wKivnJ/sqrRL5N/OR1lWCosdskt8KxdVQKwFDYI+FCPqrmYdGG6pm5MgS7SdSFP7GOfsj7h67YWxF5Z0SZLTnILU9Hzl3G/gn3sr76fARhayx65hPVSUfcqJ6UYeCW/lI7ylF6VM2aWmFvCnI5jrvAu+qClP53fZn3FRA8Zw9rVOjsNzPfEMttF3Ysie4Qvx/1fUQu4Iu5+SDiOEmvlzd0xrk3cxHerccxQst/HdVY/HwFHmRsZt2T7mCX+1FtVyPwv4CpHcVo3B+t3x/tFXyZ6k3wlxoNJJFcfPp4/V8OyrGxcluE+G/m4BbmPhWDxej4JkKRX2s/aWQ8/ZsQ1nzZSt7CrZxdHyF8mzriD1ZOc8iOapWmRjC7JPP26foMWOkDRXd1kurMx6kjK9ke8qOxr+j/TV7hOy3XOrVHETFWXsxsrqZp3bYEBNAGlD5rA3KwRjzAwH2u/Bi9pFy/Ao82Euee5BHw0nxIHWiLJ0HV/ipWbhFG+qeViOvOw8ZfWwSW4a83dV54sWrEUq0pzAObOsUlQHF6zbUPatGdkeOKPl0rHmFx4vGg+Tx9YlEzjN27m5B+e1iZNzIR/aYEtUvFMgeZdckm1V+JAohnMT6+XGNTUfpsnXSVuV0GhL67ITGSORH6vlKzJvU92zF1KyRT/x89nGT9UqPB9V1bEIIO3hD41Ow2F2DP8cbeaGCiRV/TeahTKTKsFj16KQUzHdUwThej3+NK6HryEN/oq/5Kae4wazekLhEPLhWgd81DfjvmlpsdRVhIjsIAaKbC+E/HgHhGGxWQDei4st+uZaNljB3FCkPFkIcbb+wn8O2RxFCWJ1syaLwkh7cfvoBH7e/Ymt7CyuLM7hebJ1oUdg/53IFuR338fzdDjZ1Oqxp76Ml8zLs5Zww1e+BkKJOjD95jw/bv+PLxgZePn2AzqpkeItudoT6hS0bt+D8btx7sY5Pum/mibPeMINC8w2nSQgRT6pt3z+stV4JRqjfU/EAm/zys19xR7F/LDcnc7z9RxVCeDu5R0F+awHLH3f4CRvrh+261FKFEFave1gpbkwtY+XTDr58+YyX8+OoS/JFNh8282NCiNT6Bdu7BGWgTN2Nzp5uqGvyEOzhDNNyu9Y5Qni7SLH/GRdCUgve4HvPWwyKlvgTbLbf1juoFpraJWzf2ITxxntsNM/iTpYcMaInrcJ/GcsxCUPQtn6EsXMDOvUjTKamIXo3d4g9AcYzsAqamiXobmziz65P+Nz8AJq0LFy2ORdyge1Yt5O4lYXWCC+2Gs5NURjPSfdX6Dfbcq4p6HzFxLZtPGpLh88B5x4f38CTFwR8/yvt4yfY4FcPL/MER8yD1PeCl4AwybfdqlaLrZawZpOcS1npyJpUoWq5FUptA8ruliC55DJcD2CPeUWEXS1D2VM1v8oF2w+7gc1ItwjifNt9ghB1rRSl802oZUkgX6tRNV+DvKsJ8Bd5oQj9ZNdT77wMZN9h7WlB3atmVEzLkcLaI7pfEpf3ys1A9l0VqpdboFxuRvmdYiRm+9md5Av/c45PR9GiGsrFSiTEW8JVhN+FLefijcuVecibrufrr3upRuWDcmTUhsNT5KVrLi9zgWd6KjLHlahaaoVyqRHl0wqklQXDzfZcJDFGnEvPN9vadlyFz6rVCkTtes0IE9/arnC4J6cie6oBNS9bUfukBjlN4fC0aY/QB7Z1eHx3J+YO23PXPlkTzD4tEOyZXhUCdzvtYTw4Or5HmVgclX9H+itMfIWxsbfdb8Ufl/wSfqzZMZWTfwCfEo5fgQepQshJ8SB1osy3QwIPfHlnbwQ3lUC+oIaSnUum2BLWXrCXc8JU/xHPh4zrzHTkzjSg+qVl4iw+3140Ho4yvs5XIpE0WIXyZ2ooXzSibDwf0bEeCOr6cSGEja+U+ll5/hVwBeE1GUhuSUecPAye7s4IubnXI0QqP0c5X5nbJLTNgS3n5I+kNtOD/q3lHsTauW7tV++xCSH77YC+tyjbZAuyxVlggD2pkU8xLyRTAtuz0Obz1Mb0wrf43vMOg1dsJlsOXAzOkh2cgsqhWWNiyDd8eH4P14si7T7Z/oe3P4kUP0GksOsxcsz7dXPb6xF4lpiltp6+a7gw8VV2hx+LyEZjfPrGmMaExoQY+LkMMPE0bIB5rlQjxsFcG3/HGPHOEoXd0Dzf5KMjNt/cQVGQNFuREHLOJhd/B4i0T2kH3Wm3F+dTDM0nI/RfJpElWrXktLf7PLSPhYnV1bDwl0do2HX9Pg/92q8PnFcCKvueYo3FdM7U2H0a7uHpTULIMQsSP0P0sLePX5z3usjvxwZ9f76uKyc1noIQYs8D4KT2SfUSm8QAMXCeGeC8IpDFQnheFCDIjhfbaek786wum2E559Yx26dEtJ18X4e1lYQQEkLoKcoFZoCT+SKtacic86VvZAqP37Kn9F/xtC3+QLfrw04u9Lv0GwVOloD+Vh2+tw8i046L/Hm1qbNXBJITQu3y9ovLr6DwmLMfuuN5ybIE63nlmPol/Zz3ozYjIeTn2/xHx4z+T2NGDJweBpiYEFhlyfmS1lmE4gWWH6QF8roAu566p2X8mOdKcEImrnhZEnpLbRsJIRd4EiwVFip/ek5cxzUWbInIhkVLslTd9iZWtHPoLo8/NInlcbWB6rFwxTnLMcuWzlU1IvACCSGHMeDmfom8Qs6wV8g//uEPp1/IG+Qwzul3y7nQUVuQECLdZo7alsqRbYmB888A80SOuWPJ+VK33ITy6VKkFFpWYD3PHJAQQkIIeYQQA8QAMXDqGXBx88Q/fChfiL2Qk9P8HfMEIRHk/N9Mn+cbZeob8UsMEAPEwPlkgIQQmgCd+gkQnXzO58mHxpXGVSoDTr+4wMXVA7/+6gW2FCu9Tq8N3H71xC/Ov9L1he4xiAFigBggBogBYuBUMkBCCIF5KsGUOkGi8jSpJgaIAWKAGCAGiAFigBggBogBYoAYcIQBEkJICCEhhBggBogBYoAYIAaIAWKAGCAGiAFigBi4MAyQEEKwXxjYHVEGqQwpyMQAMUAMEAPEADFADBADxAAxQAycbwZICCEhhIQQYoAYIAaIAWKAGCAGiAFigBggBogBYuDCMEBCCMF+YWAnVfd8q7o0vjS+xAAxQAwQA8QAMUAMEAPEADHgCAMkhJAQQkIIMUAMEAPEADFADBADxAAxQAwQA8QAMXBhGCAhhGC/MLA7ogxSGVKQiQFigBggBogBYoAYIAaIAWKAGDjfDJAQQkIICSHEADFADBADxAAxQAwQA8QAMUAMEAPEwIVhgIQQgv3CwE6q7vlWdWl8aXyJAWKAGCAGiAFigBggBogBYsARBkgIISGEhBBigBggBogBYoAYIAaIAWKAGCAGiAFi4MIwQEIIwX5hYHdEGaQypCATA8QAMUAMEAPEADFADBADxAAxcL4ZICGEhBASQogBYoAYIAaIAWKAGCAGiAFigBggBoiBC8MACSEE+4WBnVTd863q0vjS+BIDxAAxQAwQA8QAMUAMEAPEgCMMnEshhJM5wyUwHFFlhci9XgP5zTqUdlchV5WJ8NBLkMmcrSb/nCwEyY+6UfuoEP42vzlixLNUhku4iTeGb9DtGLF2K91sB84tB4Mfv2FL/w36TyNIPgk75I5jw2DE0vVY836l2I7zqML0jhE7v/1p9XrTm7pvfZzMBQUTv1mVt/2/fr4J3ifR32MU2Vg/cjU70Bve4mqUNb9iG/6t43uM/RX3id7TxYwYIAaIAWKAGCAGiAFigBggBo6TgXMnhHAyV3il5aOwrx6Km5XIVuYgQZGF1PoyFLHvblUgLtzdauJ8kYQQ9/JZ6AxrePHyd+hmauC6KwD4K59gc2MJT1aN0M83wucEhIFg9RL0hj9wW25tf0eB5gIK0NI3hJu7r5Enn3mBY6bK12o8xfVxsnC0vDBCv72K26L/CnWwbWdZ9L7/F9f1d75njDY/N0K/8wDFrvsLIX/n+P6d9qF904WRGCAGiAFigBggBogBYoAYIAYcZeDcCSGu0dko6q9HUX0ifD0tILAn6q7h6cjrr0dpY6xZAGCGukhCSFzXB+gNi+gfXIP+VRciZM7gnJPQufoN2u5eTOmN+NCfdezCgKMeDY6Cy8ol3/oMvWEDnUn7CwOcUxE020boF9UIOAFxR0p7f6Qs51SAsS0j9K+7EXlAP/6u8f2RvtF/LecpsgXZghggBogBYoAYIAaIAWKAGDh5Bs6VEMI5BSC2vR6Kjiz4e+ydHHMyT4Q31kPRlQFfj0TkabuhfNFz4Cuv2JMXBTjZJYQPdKJW24KEcDt1B2eiRNuNmsFks8jCCd91RMMtPgOZ462ofNqJqoeNyFJFwcPZTj0yV3imZSNzTI3yxU7ULFyDfESBuDRfOB0wAXbkYGH9L5v5Bv3WbRQxzxDdXeQ6OcNLfh8bm7OQ5/XjrcGI2bpAKyGEc49EQdskZl9uYF33FZubn/FidgyV8T5W5YQ2OAfloWX8OV6vG7C5uYnl2QHkB4ft69HAuYUht2UcD5fX+fq/bGxAO6uBKi1w3z5zMl/UPDJCb1hAhddeOwpt4UKuQmsw4v1Att22CuXYlnMqNIkma32Is2Pr4EYttgxGvLyRZNUuKe33qJjlvVgeqSIRV6vB7Osv2NjaxurSHDqLwuEi2i+XreFDiWxDecSf9YY1tO2Gyhx1fJ2DCtB6Zwlrnw3YeP8KGmUCglRPoTd8w2SpiX/BTlLaL/xHSv38OHgloLJvDi8+7GBzexsr82MoDk3A9RUj9Ouje8K2pNifcy7BuM4I/fINREWUofvBCtY+/4bNz+tYnGxDks/+LAn9oe3JX5jIxmRjYoAYIAaIAWKAGCAGiIGTZOBcCSGy8AwU99cjM/2S3UkvC5u5oqyH4kYafFxDEH1NjjT+VQX5027UPm1Gjvk702/R8ZYwDpesclRru1GmDt2TZ8Srthm12k7k5FsmjmYhZKACOXOtyO8pRVpHFYofdaFW2w15fbD1hFrmgkslNahkgspcE3I6S5B2owrFc6x8O3JL/PfsVwocnCwRnWtG6Jc6EJrYhzXDEuqDItGi/YaV7hQE8JPfbdxKt0wGOddoND5huSn+wIelOWhGxzE+9x6fDUboN5+gMshSlrWF887D8No36A2/Y23xIUZHbmNycR0bD6cx9WWvRwPnGoX6eT30hq9YezYLzYgGY/df4f0OCwN5i84kiz3FfeVk6bj50Qj9uwEkiMQDcRn+ff4kvhiMeFjrb5cJcXlOdgWNz5i4MocyT5t+uWZi4D3r8yzkosmy1PbHdb6H3rCD6clHWFt9ionRcWgEexrW0Z1s4c09udEcBnTzwTteQHn/ZNLyHR/q04D43VCZI41vgAIT79l47eDVoykMa2bxYn0J43c+QW94j+sx1naQ0n5mW05i/ZxrLFqeGXgR5sPSI2jGbuPOsw18mZ3FfSZgPGmGn2i8pdqfC72G5wYjtuemcHvtPR7dvY0hzSy0n77x9v2gKYKbqH4xH/SeLsbEADFADBADxAAxQAwQA8TA+WDgXAkhl/LKoOgvRYSvafLGnpD7Zecit6MW8p4KpGWGIaq5HoqmWKvJjqOhMZxLJNLnulE7V4JAF8sEkZMFIP5eN2oXK3DFXfS94BHypA4xoW7miTjnFYn02W7UPqtCiLi8WzQyF7pRO1OMgEuiei6FIXWmG7UL5Vb1Sz0IOfdKPtno9t1yuHgr8dCwhaFODT7oFlEZ4IysER30hmeo9bPsO7JtBTrDVzy7kQ5PJ9P3nMwDSbfe8xPHJ82hln7JXJB0a52fVM82Rpu9G5j3RrHmMzbZBPRehfl71v7o62vYNmxiqjbK7EnDvveRT+OTwYiN0QJz/eL+cj51mGVizGwdPA+YuIa0vORFFu2UJbeIJT+IGik23iRZI9vQG9bRmWixAdtvQO0C3/6XNxKtxCsp7Wd2U0wz0cGAV2PlCDQLGJ5IH1zn7fnqRqLd/gY2aHlx4I7CvjDE2ih1fNnxkTO2Cb1hG9O1EeZxcUnshnbrD+h3ZiEX8ymx/VLrZ30Ia3mJbcNXPO/JwCWBNyd/lN7ZxrbBiPWRfCv7SLE/z0/ebV4Y23o3BUWw5ZiUBTXjMRPf3g8i8QCe+DooKazVGJBNzsfNAI0jjSMxQAwQA8QAMUAMXCQGflgI4WQ+CC5MR3zJ3ld4mOXptmDUkyrPe3vUqviwF+GJsUd6MeT99ShpK0BSWQ6yrlejuLcexYorVjfyDgshMhf4q1t574z0NMskigvLQam2G5Ud0VaTZMEjpHYgyTzJFOxw+Vr7njAbLrYAFdpulCitQ1PYf7zrmMfJNSTHWk/Qhfoc2XJxPVgxGLHSmQhOloG+T0Zs6b5ibSAbLrIraGLeEOujSNmdCHKyGFx7ZYR+4zaybBN0Fk/xE/eXHQlmW5o9EtY1SLMJ+/FWPuHLL3fEi8onoYt5qGivIdh28pk0gDWDER+Hcs3lxX3kUgbw3mDEWm+a3d9ZWZaXJE9j4PcrDicR3ut1U8izaaef6ilffrrSEvbDuSSjm7VzcxalYm8QmbT2c7I4tLNktDuLqN4V64Q+Ocvv77GP8BvbZgxuQW/4iPa4/cdf8vi6FkGzaYR+tccq7wgnK8E4EwXWbiJGNC5S289Jrj/MlNh28y5ybXgT+HmiDjOPNyfR/syOQepl3s5P1eHmetj3nCwLAxtMCDnEw4hEECu7iRml93TzRAwQA8QAMUAMEAPEADFwVhj4cSHEIxqZ/fUoG2iwein6VUiO2QsCd0LlOZk/Yq7VQ7GbCJV9jr1eD0VbCryEyW6EKXQmK8PL6mbeUSGEDaogelR1x8J5d5Loo1KjVnsdqUmu1vUKHiEde1cl8Ws0CSqpIs8DLq0UNdpulI/KkawutHqljV7lQ2/S0/afCB8GnWlFESOmK33ByQKhWjBCr19CfbAzzMk4HzebV4zhfBswZzBCd78G7qIJMduPMDF9UGMJOeECm/GYlZ+usvLuYOXD2lZ2c054mG3ERbTjhcGIzZez1uEeg/cw9/Yr9DsbuJVhKS/un1fNAj+hvV990IoxYVBrjdB/GEKSTfvFdYnfc6lD+GAwQrwkr0/5LB8K9LLT2htEavs5VwXuMIHBjvDjp1rk+zNVYc0maxtjeptmBQAAIABJREFUWTlvP2RH3HbJ4xvdhVfMy8LG64bjvYVM4y4OE5Hafk5q/ZdqcJ95+Tyqh5fNeJlWHPqK0XzLOUWq/ZmtskZZGNYn3Ii3Po441zz0LL2BdrwGvjb7FtuY3lvsT7YgWxADxAAxQAwQA8QAMUAMnFUGflgIOS0d51zCkdZXjyJ5ED/R5rxikdVfj/x80UQ9IhMl/XVIjLSZBMlCkPyoG7WPCuF/yCSIhXnETLB8ItUI83IGJwtC4v1u1M4Wwn/XlV+wieARUuOoEJKu4IWQ/RK41mq7kCHK3yHsx9Ft7A2Wn8L+KitcSBufO+HDoCWpKJdmEgVWupPN4oWwr+RbG9AbvqAnxWJLLnOUD2exDe9gnhkFE7/xOSeuiXJOuBRP8clHBQ8NYavT7eDty8foLYvZI6gI+0/i97+BrgNXjNldaUXCcsCcFwsZMkL/UMmH3HBOsbj+6pvJG8TGi0Nq+7moG1g2GPFlvGRPrpe0ARaiso4bCRZ7Cn1l+VBufTo8H4rU8XWRz/DhJo+bbDykkkxJc23HXWr7Jdcf34tVlti2P3MPb6awrVWowyz2kWx/WRAanuwKSnaSKQv2pi1d0IkBYoAYIAaIAWKAGCAGiIHzzcD5EUICk5HPEqWmmXIocHziVBVS4iwD6JEh53OIhIvCGxjgUjxCWHn3EiVqtF3IK/ECF5UHhbYbpQ3B4GxEFMlCyK5HSH6pJSzjuA5AS36KeZSL8o+Y699NKjqnMglJ7HvB62O60ttqYsrJvFE5yyaUi6gU2ZKFlbCVRu6WWSer5WS7nhk7syhxs0xkI6694fOJDGRZvjO354AQBBZeVc3vfwGVNjk+xP/nrrThGQuvGcyxar+4jO17PtzirUV08CyawjpbKabLeqUY9j+p7XfeFX60rVFW7eFkfgd6fJjFmVkVLtkwJrT/KOMbeX2Nt/9gtuUYYfV5Vs7x3im24y61/VLrdy29D53BiPmGYBv77Cax1c+gUBQyI9X+nCzbFP7ytt/uqkCCLWlrzQPZg+xBDBADxAAxQAwQA8QAMXDeGDg3QogsLhel/TWIDzVNql2SCqDor0TM7qomzCvhcqUSiq5M+Nl6bkjwCGEAcJ7xyGGrzIyl4UoDC3FRIy5k72ReEEKk5ggpFYkRxwUcJ4tHB8tPsc8k0JRUdBt9GZZ+xHS85RONjuZbvuP7z3I/sBVgltoRIpqYJ/SwlUb0GMi0Ke+jxEMWEmKTiyJjkCUmPTjvhb3+c7JU9LIVXA7L55A7wYe0PG609niwV6fwnXkJWsNjVHhFQK1l3iCPoLDxBmHlpbY/nA8P+gpNoXXuHCFfy35jwyWxFX7se0pY2i19fLPH2GpA1l4onMwNeRqWNHcdXaKwLbYfqe2XWr8QHiROwMv26xR+Dc8YP6+7ESHiTar9Ob9GPtSLeft4iOoRbEhbusATA8QAMUAMEAPEADFADBADF4OBcyOEeOWVQ9FfhNBdl3fnxHyU9tchM8sfLi7u8IhOQ87NehSVWi9Zy0Bnq77E3WXhLuW4InrivN9BwCaLwR2mZKelLCxmMtPuyiWCEFK9oERMqCV/iHnVmKd2Vo15wsJsyhDsbQGQcw1AzNBVVDyqQOgBHhD7tZfvo1sFpnaM0D2o3ZPvQ0gqqjdooQywiBgsLwMLV1nuTjYne2XeIEmdr7Bp+B1P1JFWT+5NwskfeNwcbg794Jwvo2D0PR8Co5uqtAp1MXkM/IEnrTGi+t0QWDKJ15s7eNGZYs7DIu4bJyuChi2lajMxFpdh7015JQwYzrXY0raMvc/RHcxT4j26mkbxzmDEq65kqyS4wn+ktN8SHrSG1giLjVldnI8Kj3bDcexN0Ln8Sd5+4kSzQhuELXeE8TWFm/yBuYYQ83h5JvVg4TMLY3qNZpG4d5T2S6mf9cM5ZxwbLMfM2hQq4oPg4e6LoFQVxh6v83lbfpQflv/lsAS7gj1pK+2YIXuRvYgBYoAYIAaIAWKAGCAGzhID50YICaxQQdGdCWHFGM4tBIkdKqsErvK2dPjbyQ3AVpzxa2AJT7tRPlmFjGtypPGvEoTvepjYDqpTQhG/wgv7T0GZ/VAWQQipvFWOvLkW5HfJkdpeheJHXfy+5PXWogybbF6SK1Gp7UbtvBq5nSVIvVaBgvs3+ESpJepws2Bg257DPnMx3fyKMavdKVbiBfufOXRlQ4M00ZNyLqgej7ZYCMwOXj6awtDoXUy/2OTzSnycbUSIaAlhVo9TfA9esyf3O9vQPriDwbEpPHz9GbMPnvJLlu7JHRLShDlx/cMTmFz4gI0dI768HEOWaBlfcf84WSRaXrBlaHfwYkaDvj5hadxBlO8m6GW2zOE9HnRYvC38brNVpVkJM8I+TLknvuL9+g70W3Mos+MNwttNQvvNNtbfR5GN2MalDu5J0Cq0hd8PSyrL7LrxGrcHLX3oKo81j+VRxtez8B4f9qPXb+DJ3QmM3H2BtXUtGlvumZaYXf+A57eKeOaO0n4p9fP9dI5B0+IOL74J+WL022vovj7JCxivu5LM/ZVqf1beu/bwBLusHL3IBsQAMUAMEAPEADFADBADxMD5ZuBcCCH80rnKeihupFmv+ODhj6D0RMTkJyI88TLcbSbuYrg5N3+Eqmsgf9RhTlhaq+1EmigZqFV5p1CksASrz5WIEOXJsCqzu2pM1fVIuCVmInO8DZVPO1E124gsVRQ8hNVsRJMv1pdLGTnIGFOj4mknqh9fRammAokFwXC1CekR7+uw966KB3z+hekK63wf7H+cUxE020bon6jNQpJQn1diAwYereH95lds6fRYW1rAUEsBgm0m83w9MjeElQ7h0eo2NnU7eP96EYOqFEQ1aHdzh5jytwh1s61XQj0GZtfwbvN3bG5uYnV5EaNXyxF1iOeLW2Q1Bubf4cPWN/PEma0G0rG7Ggi3uxywMKG2t90vdwgXdg1ag5Gv93W3fW8QoQ+Otp9flYfZ2I4Xi/fuCjgzVfZXwOFkXoipm8STtW1s7raL9efFdYsQcpTxZYl/U1oeQPtpB18+b0D7cAhlMV7gXGOhvLeGTzoj3t7K4IWBo7RfSv2CPZmAmV59DR29t3BNXYu04EsQ7CNe0lgo76j9Wfmkm+vQGz6jO9naI0eoi7bn+2JH40vjSwwQA8QAMUAMEAPEADEgMHBOhBBnBJTVQNFfwq/kInTuJLdcYDqKtN2o7k+061XA9i14hFS3WyfHPMl2Ud10cJ8nBphnT/ogW1HnPcQrDp2nPlJf6JglBogBYoAYIAaIAWKAGCAGfi4D50IIYdA4x+SguL8eRcoYXDrA8+O4APOubebDVbKyPfZ1pReEEHvL5x5XO6ien3vAkL1/sr0vV2Nq3Qj9m17EiMK2aBx+8jiIvNbI9mR7YoAYIAaIAWKAGCAGiIGzzsC5EUJY+EBwTRVK++sh71QgrTITCSXpiC9JR3jo/mLFUQaQcwpCIkuSulBmN0REqJOEEDpBCCzQ9nAWOJdEVN+y5EAZ0DzCi41v0OvW0JXita/gSLY93LZkI7IRMUAMEAPEADFADBADxAAxYGHg3AghbFA5p0vwS01DmroCRT0qKPrroehXITna0uFjGfy4QpRru1FxLdLuaiLCPkgIOWa701Ppcy0GcOHXzblZ9IbfsfH+LZ5M9UEe7Wte1UY4tmhLxxYxQAwQA8QAMUAMEAPEADFADByVgXMlhBzVCPQ/OoCIAWKAGCAGiAFigBggBogBYoAYIAaIgYvBAAkh5GVwrr0M6ER2MU5kNM40zsQAMUAMEAPEADFADBADxAAx4CgDJISQEEJCCDFADBADxAAxQAwQA8QAMUAMEAPEADFwYRggIYRgvzCwO6oOUjlSkokBYoAYIAaIAWKAGCAGiAFigBg4vwyQEEJCCAkhxAAxQAwQA8QAMUAMEAPEADFADBADxMCFYYCEEIL9wsBOiu75VXRpbGlsiQFigBggBogBYoAYIAaIAWLAUQZICCEhhIQQYoAYIAaIAWKAGCAGiAFigBggBogBYuDCMEBCCMF+YWB3VB2kcqQkEwPEADFADBADxAAxQAwQA8QAMXB+GSAhhIQQEkKIAWKAGCAGiAFigBggBogBYoAYIAaIgQvDAAkhBPuFgZ0U3fOr6NLY0tgSA8QAMUAMEAPEADFADBADxICjDJAQQkIICSHEADFADBADxAAxQAwQA8QAMUAMEAPEwIVhgIQQgv3CwO6oOkjlSEkmBogBYoAYIAaIAWKAGCAGiAFi4PwyQEIICSEkhBADxAAxQAwQAyfCAOcRjqy6Hoy25sJF5mzeBydzQ0brJNrr8hHsYfmebjjP7w0njS2NLTFADBADxMBpYoCEELr5Nd+YniYwqS10oiQGiAFi4OwywMncEVzQh8frf2Dntz+hn66yEULcoZg28r9tf9KiMz8EziKhhMb+7I49jR2NHTFADBADxMBZYICEEBJCSAghBogBYoAYIAaOjQFO5oqgigd4u2OE/ssKBlXZCPa0c1PoGYb0Og2efzFCv7OB22UhkJEYcmzjcBZuQqmNdo4LOhfRMUAMEAPEwE9h4NQKIb5JD/FvvXqr1/eeVdy87JgLLeccguLcu3jT9hHfunXmevRFmT/FsBf54s7J0nHzoxH6j0NIOuCmNunmOvQ736AzfEZvquVmwCl9BB92fsem3oi1m+k0XnQylMxAnuYr9IY3aAl37Hxhe7z61C7wT6rZk2zhpTd8Qkf8/vVxslLcNpiecAv/sd0+rPWX3Bfbtp30Zzp+Leeik7b1j9bPyTIQMfufKFz9/1AwesvKo4ILm0Xmyn8iq6X45zMXpsaCzgj9xiLqotwP3b9LVDNmN4zQbz9HXcjZsf+Pjh/9n8aaGCAGiAFigBj4+xg4tUKIe3AdRgpvmV+zzV8gRQgJT3+CP3t00DdNQlNkqedmTMShN2UE5I8BKWkipVvB89dGrPak8OPCyVyQ0rcB3ZNFzJEQQqweUQT6USHEPbkRN/uGzK87y7/BUSFE//E5hkX/FdejTL506seUjt8fO//9zOsH53IVCa92hZDnb+AjFp5zN5G/8p9ILA74qcxxMg/karahN+zgbpnj+/Ytn8WGwYj3owVWITQ/0560r7PDPo0VjRUxQAwQA8TAjzJwaoUQ245lFX1wWAhhSdjKK7bxvecJ1N77P8G13Qd9Pp4DStJEyjCP3ltr0K/2IkrmDM4pDb3vv2Gu5TqmDeQRQkwejckfFUJs7Z4+uOW4ELLYggDxhPSIYo5tG37WZzp+j8bczxof8X4Er4/Muf8dBSv/M0KDLNc7z4b/BQUr/yciYy3fif97Uu85l0JoNo3QfxhGkpPj++acMtD/yQj95iSynR3/30n1g+o9O8cBjRWNFTFADBADxMBRGPhhIYRzi0FV3l28bnmL37p0+GfXJ2yq53EvMxdX7NzMsARqoZFXMa16CV3nJowd7/C+ToOOyJADnwJJE0LcUV2lw/eeeTR6Hs8NFScLQfNzI/RPrqGgbRFrX3bw+mEbYj0jUTm5hk+bW1iavoYErx/bH7PPlfwb0Dx5h/dbv2PzyxcsP76DlvwwK/twskAo579Bb1hDW9TefXKh16A1GLE93whf0aTM0foZTFz4db6OTU0JArI6cffFOta3drD2SosxdSb8ROPLeSnx8JCwABYmIA4N4ENjDFqo8nuxwvoR6QxZUj/Wdl5AFd+IOTtCCOcShGTlAKaev8Pbjd/wZWMdS08forMsHpdsbrqltF84eKTUz9vIKRDpLffwZE2HTZ0ea9oHaM28jHw+NOM1mkOsx0aS/WWBUD0xQm+YQ9nlFNRPvMDqugGbW5+x9HAIpZGeP/VJr2AjR7ZHPV44mSci5L24vfgeH7a+Ymt7CyuLM2gviYKbiGOhDZxLCPI6HkD7bgeb29tYfXoPjan+yNUY7IbGSLG/sA+2PW4hhI5fOn6P5fjlvT7+A3Ftr5Cz8v8iIc+bPycwr4zAvv8HBStGBNlcAznXePjVvkXy/f8DuS//A/na/wvpY28QkhBqlZ/Ds/F/RcHrDfgLx13CEnJW/tMqBMet4r+j4NU/ESR64MBFdeKlwYgvEyVWoTri48nee/YAo/A287zavRacMQHRXp/oO7oxJwaIAWKAGCAGTi8DPySEcLIg1FR/xPeeLegapzBZfAsjxSOYb/6If/Zs47M8H97CTRSbWMtcEJb8ADs9Ovx5/Tnmy4YwoZjGm+tb+N7zCYvJ4XASlReDc5gQwiZepTlCCEw/FluZELIGrVz4zrQ9amiMeWL3Zg2PFu5h5MEaPhu+4dnjeSzevw3Nkw1sG4x4dSPxyJNTZp8Q5QI+MQHj0wqmJ8YxNPEIzz/9Ab1BhwfKSCv7+CkXoTMYob0Ws2efV9TL0Bu+4aEy0Pyb1PrNQsLsLO6vf8Lc3dsYnljAy89scv4NL24kmm90OfcMNI5OYJh/PcLSNov3XsO0+TvTb43pXub2mISQl2gMSULXmhFPWyKR0P0RusUWBAa34qmNEMLJ/FEwvgGd4RvWVxYxMabBwNh9zK2xSe/v0HakWItFgpDjQPsZa5LrZzyrl7FlMEK3sYb7E+MYufMcqxsLmJplOSqshRDJ9jcLIc9wZ2oDq0/uY2R0EnefbfD71L/VIM3dWmgRHzOHveciK9G9TwiHKZxjAHImTh1hQnKU44UlWIxoesa7x/P2vD2O4Yk5vFhngt8O5pqirfhnokZ81xp/DGx9eokpzTiG7z7Dyqd5jN/X7RFCpNpf3O/jFkJY3XT80vH7I8cvY8jk9fG/ISKhC0mvWT6QEv545WRpCH/4nyh4rIWX6JrKuSQjZPz/RsHKfyD7/2/vTL+iyNJ1/5dEshgWIAtQljIuZXYxqMwkTgvnAS2kUJBCsKUsRVPBAbQQtFAQ0VQEEQTJJNUylb63+97TfbrPuV3n9l197jk1dPfpW1Vddao4H5+7diSRGTkgGZkOIM8HVkQmkTv2fvdvR8R+4t3ve96CjI8GkHHydyi6PQ397f+N5HTH9XmJ8CjpH8FS4amnC0ZUzVco7v0b9IYT8nVW3P/jDD+h1HDc+bqbfwojFivuHMnWfO3IbBiG2TKBpjzfrjvqMcv9+fvgyb5h35ABMkAGyMB8YMA/ISR0B7obTXhZ8QFWqB+2Alehamcfhg40oTTI8UAjBZehvc6Elx9+jIJQFQCheTBUT2Cq7iw2BTuOVxtobiEkF801jqCoroFWlc++Bku1T+wetaIwWDwYpuDgLSvMfXVIFA+KwWUwCIGg6wPnddoaJpFS2EacGbPCdPcU1kaq7BNZiI/vPYd5rA36MId9pOgKdIio/DN1UOwl6eJReUNE4e/G9mjV8VrLnxESTOO9+DDN4X0QmFCJDuH6bGqD3kN/aXOtv4uqpEDIokj3RRgGrLhWmQBp1WHcdBVCwkpw+HIn2j7ZiVi1N0pILhruCuGlHWUhqvZqrL+ktfwgPU6JPh/txPa4EPtDf2hmPW6YxOTdRQjRan+7EPIE1+tyETozxiRdBPJOPJTFqLZt0fbzKv3v7VYqPovxV3jxmC1PcbLYYU9vyxXH+TJepLBytAiuhi+ibKmK/6WbcUYE3x1vR5ma/7CtuCACMg62oEDliRWcUoPOR+7BUrWOL3V7NQkhs8UI2Z1jFw5lG3H82ibtHL8+jWHh9RFj9/rIxcrL09C3nEawfD86KMcO0Tf/wok5IZyUGv+CrM05Tt4fQcVjKDZOo7h+r70u4fu+gP7WsE0ICSxHWve3yDox5TjHkiPIvv0TcjYn2n8jcz1zXfEk0KvHlKf9VTX34M91x1OZ/E51LdXwPEK70W5kgAyQATLwvjPgnxASthu9jSZYt5fbJ2mvMpgUfxSmRhMGC909GNIK+zDVOIQT8Z4nXnMJIerzijfFb2xpzEAT0uU3ZNHY2WGFuaMCS+TPNq8Gc88hxKpEIXW95tqX1nyCBxYr+mrTnR4sxe+SDw/AbBnH0TUO+wgPhp0dz2C2GGUxQSlfiq3CZxYrHndUOIkymsufERLMV/Y5v1XUhWDTBeGl4jkrhzYhZMYNes0nuG8RniZ92BcbCMW92tusMfqzwg63UalaiqJ4tGitv2JH9dZj+Yk16BEu4IYNTpMK0S97ukRbXIQQzf2rLI1xbpeol5R3SvYcMtb77oGkbt/r3rcLIRrGi7TmBIYsVtw/5p7ZKefYI3f+0xtwx2LFSHOp03iRdFHYIcamC59a+VfbRIsQ4popRvlsbt8lT1KVcjl+HQ8YHseXj9cfxb7qrcfyF/j4lXRrbF4fn/UiUheMpfXfQt83Ii9ZVGKHqDPGSLpSJHdOQ3/xvNv9WkrvQaFxGkWHd9rHUnjF/4L+5qAshOiy+lHU9xjxO38J/bmz8jK1wFITSu78EnEqsV3YXBFYKYQ4+FazyH3ahQyQATJABsjA/GDAPyFEF4+qinF5WcvgrtNoLq5GVdZmlCWkIFr1xl7pbCn5tJzJZbzipD0bjJIZpqViAFON4zg/iyv+ohBCSlvlJQ/3r52xZ6tQMk6cvDYqL/84XeoQQoRdI3d2yUtyrn/oyIazfH8PTJZnaN/hnKpT0li+IiSMi4m+y5ukV00MtQkhgziUKoKkZqOy7Ro+bd4pexdJabZJrqsQEpqyA42Xjbg//lReEqFMMsXWbeI7M5HSUn9N5Wcfl8Ub1zoKW5WeEcKMixCi1f52j5BObFF5QojypeQDuHTrHjoP2rLtuPbPu/7skxAyY5/e6hQ33pKq77jxL8244N9tcLeBp2CpWvlX2/BVvCvHKelzzRqCpXL8qtMTOwurvlx/FtP4lYJnvD5ONcleH0Hlv4Te+EesFCmjZzLGZKsyxkgJbVhnnEbJ5UmkHupz/B0eRW7XD9Df+RKp2Y6sRuF7/xn63gFE60IQXfs1SppqEFo+JQspIboliPnFdyg90+wk7omxQCFkfjzcKdclbtkfZIAMkAEyQAY8M+CXECIbNWwtqja2w1g9hM8bHEtTXtbdgCEl3vlNeYpBFkKUZSquWxFr5IKHwJ/iPItCCNGfk0UN9eRevW+2fI7TemchRIrajUtmK8y9NYiTPVOWo+Lac5hNXdga5XKsxvJ9mYiIvtImhAyhJs25nnIZHoQQKXY3Lo2KN/1m9H3aiuOq+BZtd9w9VLTWX3P5Occx6LJ8Rx4TAUGwTcRdhBCt9n+FEKKcZ75ufRJCZuwzuxDizL9mIUSj/dW2fVNCCMevLUUxx6/nG7SaQdd9Keky8ozTKDy4WRYOpdTPUGCcRvaG5Qiv+INbxpiAokdyOt2yu/8F9Z++/1sUXrIiRb/W6X4dtuf30PfcRVTgVqRd/zsyi6IRtPkF9O2XEBZcgYzen5G7xSHAK/WTis5gzGLFTQ+ejcoxs22Ta4XnowUnitzvCbP9ht9rZ4c2o83IABkgA2SADATBfyFE7SkQGImY6AzkpVbj6iETpupaUa4K5qh4hPTmxrq98Z2rMxaFEDLzRrxzf5zX9pF00dh2WcRDuIX9YknJ0n24MmnF+OXd8pIdtV2VN+Lelq9VSFDO9aaEENtD8nNcP5jmtO5dnNejB4BGjxDN5Wcdw4CHpRwisOCG80KYcRFCNPavyCxizxrj4hGi2Nqf7VsJlqplacxb8gjxln+1bd+YEMLxK1/rOH61P5Apwkb2xhU2ISSoGpm3bMtbljV8D73xhVPGGJs48i3Scr0TGcJ2/w76G7cRlWNEUd8ElocGImijFfqOToTn3kXRnV8jfpl7WVLu8Zklbnle38eUsZbbJJbAPUJDjnu5yjHcameFNqPNyAAZIANkgAy4M+CXECIFRiMmIhZLQxyBIhUjpxbexFTjID5RxfxQYoQMF2VqfkBaFELITAwJrZlnIrZ2yEtqrn4Qj6idXTBZnuKihyCaSowEb8ufb0JIwalJ20NytvNDsqSLxPZPRXBS/1zrNZe/1Jbi19T1gXN2pIAs1Ivgra5CiMb+feNCyNsIlqpFCJkzRsgYGlWTOCmjEUaPMUIiXxkjxFv+lWuZ2L4pIUSUzfHL8atmzdt9m7DxNVIybNdDSZeKxPPT0LfdQLLBPWNM9OG/Qm/8E1bNsvzU9byhu/8R+u7bWHn4zyhtqpEzNgVu+Bz6zm4kHPoK+laD27IYUYa0/ACuikxaHRVO10XX8l0/i5g5uzvFdbwXe2Ocr/Gux/Kz+8McbUKbkAEyQAbIABnQxoB/QkhMLYYbTXiyfYvTA48IVrhlq0irew8fxzkeaOSsMR+ZMHXIgA3hwXYxRApMQc3u+zDXnsMOlQeJujNtwVRHcSElzP479f/V+74ESw3NrsGV+5MYHexGlWqdtFKuL67+ym+93cpZLUTWjKHzKF2qsk9IKqquPMKDh5dR7rLcRZQtRWxHm8kK05Uq7Dn3BGZTBzapsmgo59davu9CSAoO9btncVHqoWxt6XO9XxqT8GG/nCmlty7Lnq5RpERdktOA6+P+CyGay9clo6pXxAJ5hPaqIsRHhSNsWQY2NHXj7kMP6XNF1hgN/fumhRClH97E1pfxMnfWGJesSUrWmCHXrDEH0eWJB432V9vFFqx4EoYyR/Yk9f/Fvi8xQuTfcfxy/Ko9KwOCMPf9KBTLm36E3vgSsaprfVTNN9Df/iPyRVDUU8ecPOfkLDDGn7Bmz1p7GmpxrwwpGkb+ze+w7sB6p6Uxobt+C33nf0fu1b8js9iWnSpw/VPor7xATuc0cre5x/KxjYNM1Akh2HQV21wCqbqOGfVnadledIgsUMYGJPsYcFxdHve1PQzSXrQXGSADZIAMLDYG/BNCAlJQu39MDnI6tu8cWtYfQ/P6ZnTsG4BVZJOprEW6KmiqmLSuyu2ARaTcPdyHa1tOwLCpFTerR+UyBsvynbKTqDsjaMVhDDaY8LL2Oi5tPKYKtrpdzuKiPtYXIUS88VXicQwdL3QTW3zCdoDBAAAZT0lEQVSZ2Knr5M2+sE9SRTdGxNu00QFcOnsGx09dQteARQ4U2XesyG25iyhXeESUtz2F2TSKgRErxi5uR7iHB0mt5fsuhIRgdcMgTJbnGLrZgdOnzuKk/GfA9lSHMKZVCJGWluPciPC0eALjtXacbD6Lsx0DGB7rRMtl4S3in0eI1vKF7UOy69H72GpnRzA01vsRDrV6CJaqsX8XnRCiC8aqyhsYVfF/4mwnbo4IkWsSV/al2CdwNu5DkXlkQA6a+3i4HxcNBpxs7cadkWu4eMVD+lyN9leP2cDMBvRNWmEa6UfLyZOqYMa7kWJPa7wZLSLz0Wzpc5tOYE+OIxilUj7HL8evwoKynft+lIOkS9PQf3bT6SVEYJkFeuO0HAOk4MONTvcxaUUzcvumoTd+i3zDKNLqBrH67J9QcmcapZeNiHYR2UN2/gb6vu9ResskL4sRdQsQ5fd9jxLjPyDhFV4bCVW35HhXd0+WeLwXKe1UtuLlSUGzSAn+DFcrk5zqrRzDLR/QyQAZIANkgAyQgdfJgF9CiFyR8BzsL2vHvepBPD1iwtSRUZiqe3C1bA9ywt07S4gUSak1aKu4DXP9OJ7XDWB43zk0rc5CtIfJu9JYSReChOTDuFJ5D5P1E1ACrU41tmCTy+98EULC1tSja8iCR0O9OLgmwu1B7G0IIaKtki4MCevrceazITyYeIax0VH0X7+M+h05iAxwiAiKXZRtePlljMvpZ5/iXHmkW/2V47SU76sQIrcjNAWbjl3DreFJewBYs+UpThY72qBVCBHlhiZtxkcXb8H4cBJjY4/Q33UGe7OjUSgvm/FPCNFavmLToNg8bKlqQH1jA6p2lSAuLBC2dJ3OMUJku2jo38UmhNjsE46VGxvRcv0Bhiee4vHEYxi721G7IcWzG35QPIrrLqFncBLjJhMGei/hw/wVHmPGaLW/0r+234UgrrQBF26O4KHpuV34MlvaUeYihCiCqqftp7udMzkp5+D49V/IFLbUcn1QbD8fx++c96PAKmT2T0NvOG73jpM5TbwkB1AVwVCzNy53uw8EpR5H2ukvUHTzR5Tc/DPyL00hvaIGS5Y4rsuKXUJ3/oMsqCjLYuTv9ZPyd0oKXeVY160UnIv620IMnsCVg+sQ9Yp7lxSwDNkHbS8AHt9qRHqwe11cy+dn92cr2oQ2IQNkgAyQATKgjQH/hRAXl152gK0DRBDTvAO2jAhKClyP2wNFs3rB0JbaYJ4v9hJC3KaLwovBFsB2vtSL9ViYPLHf3m6/cfy+HnsHxG6FYUCIIc/xoOcCatcnOy29ER6KCWUNMPSMy15d4/fOYX3s6zk3xwztSAbIABkgA2SADMzFAIWQNyTkKB4knt4Kq78z9xxCrItHy1ydxv/P74EtRW2A4aEV5rFWFATx7SZ5nd+8sn+c+4fj19ke/vAhRazG9qbrGBCxP9p3OXl1Ce/ELe0ilsgIOpr2IFUV68Sfc/K3r6//aEvakgyQATJABt5nBiiEvCEh5H2Ghm1zXBSF58/aSofnT1PzRVy9L96CPsX1g5lOMS1oN4fdaAvaYj4wwPH7djgMjFiFnNWJTtdDkWY8bnU+4iMcgcHnAxOsw9thgnamnckAGSADZOBdM0AhhEKI2zrydw3lQjq/pIvD/m5HsFTTxDiMvZ1o2JrpVZDAhdRW1pU3rPeNAY5fMv2+Mc32kGkyQAbIABkgA94xQCGEQgiFEDJABsgAGSADZIAMkAEyQAbIABkgA4uGAQohhH3RwE511Dt1lHaincgAGSADZIAMkAEyQAbIABl4nxmgEEIhhEIIGSADZIAMkAEyQAbIABkgA2SADJCBRcMAhRDCvmhgf58VTbaNij0ZIANkgAyQATJABsgAGSADZMA7BiiEUAihEEIGyAAZIANkgAyQATJABsgAGSADZGDRMEAhhLAvGtipjnqnjtJOtBMZIANkgAyQATJABsgAGSAD7zMDFEIohFAIIQNkgAyQATJABsgAGSADZIAMkAEysGgYoBBC2BcN7O+zosm2UbEnA2SADJABMkAGyAAZIANkgAx4xwCFEAohFELIABkgA2SADJABMkAGyAAZIANkgAwsGgYohBD2RQM71VHv1FHaiXYiA2SADJABMkAGyAAZIANk4H1mgEIIhRAKIWSADJABMkAGyAAZIANkgAyQATJABhYNAxRCCPuigf19VjTZNir2ZIAMkAEyQAbIABkgA2SADJAB7xigEEIhhELIe86AFLYSBXsbcaq6GEG6QHt/S7oQ5FW34vDeUsSFOb7nxdO7iyftRDuRATJABsgAGSADZIAMkIGFyQCFkPdkEixF7kLyqd9gbXMXoiM4qeUFKQiSLhRx+iZcHfkck09ewNy2w0UICUV5m1X+38TDXtSXJiBQJZTQhgvzos5+Y7+RATJABsgAGSADZIAMkIFXM0Ah5D0RQgLLnqDs7n/Jf1ll0fa3/hwArx4A76t9JF0wYrddxv1JK8xjRnxSUYi4cA+2CE/Cur0G9IxZYZ4cRcuWBOgohnD8vCfXxfd1fLNdHq5lZJbXLTJABsgAGSADZEADA/NWCInO/hS/PGp2+ptqvItfrPDO20EKTMCG4vO4d3AYzxtM9nLM6/N9BkSKPYd1xmm74CCEB33/tyjq+DUy9x9EWIh3dXsTD7FS3FFkdX2Hkq5JxHppI2/rIek2IbV7GvruPkS+w0mypPsQmS72V8QfZZuzOdbn/vXWHv4e91bsmVSFayYrzKPd2JsSOqdNglIOoGPUCvNED/YmcJLhbx/z92SIDJABMkAGyAAZIANkgAzMXwbmrRASGrcXzWXH7H8dB8agRQhZue4zvGg0wVzZCsN6Rzm/SFs156RwNmAVIaS04wlSD/XZ/upGkf3pf8jiSMm5NoQHvzsxZLZ6+/v9W5m4e6HeKUKIvvtXSFfs77KNz4jyuX/9tZO3v3/T9pR0YSg2TMBsmcT5LTFe2yN6awdGLVYMndI7LaHxtl08bv5e6Nk37BsyQAbIABkgA2SADJABMuBgYN4KIa6dVLD+gddCiAgCuXXbBKYaP0NV5OsTJuxCSEOl0+RSClyFFU3fQG/8EdmbEp3+59qOhfj5TU/cvbWJXQhpPYOQd+iZ4m19ZzvuTdtTCiqDYdwK84OTyA7wnn8pIA8fP7TCPN6KwkDvfzdbO/m940JLW9AWZIAMkAEyQAbIABkgA2Rg/jDgtxAihaRhR8l53PnwPp4cMeHlkYcYr+rChfxixHuYTIkAjonJh9BW0Q9T/TisdYMY2mtAXXLCK99CaxNCQrFzhwlTjV34INy7CV1E/jF0D1vw6GEf6vM9x9iYTQgRQEuZvSgyTqO0oRKSapIu6cIRmncZma1/RFHfjyjt/QZ5Zx8iKS8DAarjlEEhBSQievco1nT9DaX9/w+FbSaszEnCsoYfoDf+HomxjvYoE2plWYiyfdXyECk8DyuqzFh75SsU909DL87R8Wtk7KlAaJCq7CVHkTPHMhRxPtdzaWmvpEtEQss09MbPsSJmPRKO/k/k3/geJX1fI6+5DysSI51EJS1CiKRLQPyZn6A3/guSkhztsts57ry8zKnUcNKJO031j79oK6PhAIJzPkVW27+juO9bFH76a2Ts2oJgFf+Sr/b0sr+UdsksptSj32LF2NmNmoKfCgGxrOUJzJYBHEx2t5n6HNyfPxdx9gX7ggyQATJABsgAGSADZIAMaGPALyFE0sVi185hTDU+humDi2jdcAzNG5rRdWAYLxsn8GhTqVNMCUkXhKScy5hsNOFFbQ+6tpzA2fI23Kt9jKnGh+jOWelRHBCdOpcQIia+m4uUJTAfo7taCCED6N2kfGfbzrY0pqDZJGfPENk1RppLnCbgClTeCCEl9RX234qAlaHlL1AsBJLr/4SsowNIO/oUa6+LCfrfkF2e7RSYUtgnbNdvUGqchr7nC2QfvY/0pl+hoOcFsk55EkIyEPPBzBKdQ31IM/ybvETHVZyw11+3CrEn/wq98ScUXbQg/XAfUg8PIbv9ryg1/oyC+v12UUAKKUdC/SDS5b+nyLs1Df2tL5Bl/872v4Qsh2ikvb2KEPLfsPr4VyhomUB6/QNknf/SZoOrdxGliruiRQgRbQ4un5LLWVex1t4nii1Cd/1WtkPOZocHj+b6K0LIqUlk3/hX5DYNIf3oC+T3CnHnJ6yrLLH3r2/29L6/lHaJrZR/CiMWK+4cyXZrt/o4T/uZDcMwWybQlEchxJN9+J22GwztRXuRATJABsgAGSADZIAMzEcG/BNCQnegu9GElxUfYIXKu0EsFana2YehA00oVXsZBJehvc6Elx9+jIJQFRCheTBUT2Cq7iw2zRJjY24hJBfNNY6gqK6BVpXPswVLDcuuwaX+Edzr70JVdoTHCeRsQohtacyfoTf+gOwNqol1aBUyxaT4yh1ELXG0V1qyDWlXfoa+dwwxoY4JpxS4F+ni+N5niF3uCHAZkNKBdf0/u3mEuAIVtPnFq4WQGa+E0lYDQlRLJqTAHCSc/BfkXerHUpXwoJSveJ7MFSxV0tpeu0fI37H2g/V2EUzSRSP68P+VxYTsMkeMC7sQMluMkM16u/Ag6i5FNiHn9jT07ZcQpuZTl4rE89PQ355CrGrplOb6K0LIzf+BpFUq75XYZuTcFMLRGGJU/Gu2p6/9VXwW4xYremvSPHKs1MPTdlXNPZgtT3Gy2MGlp+P4nWM80xa0BRkgA2SADJABMkAGyAAZWFgM+CeEhO1Gb6MJ1u3lCFVNNGeDQIo/ClOjCYOF7hO0tMI+TDUO4US85wnYXEKI+pxi+Y3WpTHq38+2bxdCZgmWWnzuAsJVE19luUze/jy3CWn4/i+gN/4ZKZmO9kpx57F2ZnmNOoWp8LyJNwgvA+elMa71nFMIiTyOXFH+8cN20cG1DE+fvRZCZpYHed1euxDyOyS6ZLqRsm/LnjQFBxzeOYoQoiwBct3qTxxxFkJ0sYg7/Z/QG/8ZiXEqO8cYsEbY4VST3QNGtFtzf80IIXrDcedydGFY/rHw+vkDkjzw7LU9fe0vCiFu480T1/xuYd2s2F/sLzJABsgAGSADZIAMkIHXxYB/QoguHlUV4/KylsFdp9FcXI2qrM0oS0hBtCo+glJZKfm0nMllvOKkPRuMkhmmpWIAU43jOD9LbIL5JIS4TcDvfImcqo+wxCUeiZQ3LC/NKDx735FlZibLSfrZr6A3/icyVEsQpPQeFBqnUVi9yW0it6zxR/+FEF0aElpEOX9D3qlhpB5oR8LGWixdvRZBKgFH6S9l6/XEXWt77ULI51ih8owR55USTyP70h+Qu6fMbgtFCNFrCJYatPG53Adrd2fZywnZ9ivZ9tkbnFPtau4vxSPEJXiuqH90rViC9K9YleIQYDTb09f+ohBi72vF5tzypkkGyAAZIANkgAyQATJABsiAwoBfQohcSNhaVG1sh7F6CJ83OJamvKy7AUNKvPMb+hSDLIQoy1RctyLWyAUPE0dxnvkkhIiAqKJOkm4FVpz4DnrjvyNldZjb5EvKfyhPwl2FE+WziCORke+YKEsZtoCrHoUQD8FSlU5UtnN5hMjHRZYjoe4Z1nb+BSW3p+WlNKI++t7fIa0gzSnQq1Ku10KI1va+QghRzq3e+iKESJGNyBbLYy6cl72WRIDW+LM/Qd//HLERDtuL82jurzcshMht96W/is5gzGLFzdp0NybV9vS0n1w7ALPFghNFzrbxdCy/442EDJABMkAGyAAZIANkgAyQgYXIgP9CSICq4wMjEROdgbzUalw9ZMJUXSvKVW/6FY+Q3lznN/HeGG4+CiFyvdNvIF9eZnHMaXmE+J/iYZC7LdmrCamU1o0C4RFycIvT8SKbR0yTWGrh39IYVztLQUsRHFeIqKI2ZH8mYpNMYPkS9wmw10LIjEeI1+19G0KIbjlim4UXzG+RsDwQUtRx5N6ZRsnJRreMKpr7620IIarx5XV/5R7HkMWK+8fcl2S5MuD6ObfpEcyWR2jIcefA9Vh+Vl37VP1Eu9AuZIAMkAEyQAbIABkgA2RgfjPglxAiBUYjJiIWS0NCnCbuotNTC29iqnEQn6hiJCgxQoaLMt2OnwuU+SqESLqViDeIjC5/QnKqI8CpaI8ScyK/stir9kpRJ+QYHnrXlK4BxUi+8hpihAQvR/CyZASFu3uvhO8TMUu+QUqG+wTYayFkJkaI1+19C0KI6IegMovsmZO7PRW2pTI/IqtsuVufaO6vNyyESL721/IDuGqxwtRR4ZS1aa4xJumWYXfnc5gtvdgb487BXL/n/+f3xZ79w/4hA2SADJABMkAGyAAZIAM2BvwTQmJqMdxowpPtW5wmXJIuClu2irS69/CxOkilyBrzkQlThwzYEB5sn4hKgSmo2X0f5tpz2KHyIFF3ki2Y6igupLhP4tXHiX1fgqWGZteg7dZD3O3v1Jw1Rpd7F0XGaZR88pGTV4ichURkD7k2gmVRDrFICl6DRMPXKLpuwgrV8gxJl42kNhHc82tk79qB0IhIBEbnI+bQFPKvv4YYISs7ZO+V4uN1zvXULUdM03/IS3yS09wnwJIuFysvT0PfN44YD1llFPtrb6+SPtc9RohSpnrry9IYmYcldci+NY1SgwHxTX+H/pYFy13iucjHiaw3WvrLZyHES3v63F+ZqLtrhdl0Fdui3ftTbVP1vrRsLzpMVpiNDUj2Ivix+rfc502VDJABMkAGyAAZIANkgAyQgYXCgH9CSEAKavePyUFOx/adQ8v6Y2he34yOfQOwimwylbVIVwVNlXRBWJXbAYtIuXu4D9e2nIBhUytuVo/KZQyW5SNilglY0IrDGGww4WXtdVzaeEwVbHU70l1+44sQUtBswuSTF/LfSLMjU4m6I+1ZY1yCY0q6TCSe/wn6O19g5UqVwKMLRtiWKTn7ib7nC2QfHUBa/QRyu76H3vgj8g7ucFueEZDWgXV9jtgdIn5H6cXLWHnMXQiREg8jeSb4auqhPqQZ/k2O+VFgGFAFZzUgMsw2GZYC1yLp/N/lcxe2mpBe24fU2kGsPvclSsTynvYOhKv6S2m7sGdk1R+hN/6MorZJZNQPIl3+u4fYlY6JtqSxvSJeR0KL8HTRKITMlj73UB/iM6LsApuj/kux4pMfoL/1JQqvi6w5dW52F8dqrr/PQoiX9vSxv0RbEqpuYcJixd2TJQh3GR+KXdRbIV4WND+E2fIMVyuT3GyoPpb7vMGRATJABsgAGSADZIAMkAEysJAZ8EsIkRsenoP9Ze24Vz2Ip0dMmDoyClN1D66W7UFOuDscYlKdlFqDtorbMNeP43ndAIb3nUPT6ixEv2LCJuJkJCQfxpXKe5isn4ASaHWqsQWbXH7nixASUdCE6w8tGHvYj/qCaI8TwdmEEGGHwIIRWfAoPnbQaZIt6ZYgtKADGS3/B0V9P6K09yvknzMheYMeQQEOEcEJophyrNjZieSqTiRu3I3Q0EDEHBWeIs4xQqS1g68MxioHQTX+CvFqr4CoDYg79AzrOr+Rg6Xqb3+Los7fI+vQJ4iMcog4TvURIkFIDpYffIG87u/s59Qbf0D6Wuc2aGmvr0KIEmzW0zZns+f4M4GlJrneos6rS5d67F/RZk3191EIkc/jpT11vvZXcC7qbz+D2TKBKwfXIWo21kSbA5Yh+2A3RixWPL7ViPRg5z51ZYGf3a9rtAltQgbIABkgA2SADJABMkAGFg4D/gshDBI466T6dQ0ESReG5cd/ht74GyQwdsMbt/fr6rd3XU5A7FYYBoQY8hwPei6gdn2ycxYnXRASyhpg6BmHyWLF+L1zWB+7cC5e79q+PD9ZIQNkgAyQATJABsgAGSADC5MBCiELQMiRIiqRcV1kdXmAaA9LVzj4Fubgexv9JkWsxvam6xgQsT/adyFY5T0lBLYt7SKWyAg6mvYgVRWv5m3Ujecgt2SADJABMkAGyAAZIANkgAy8CwYohMwzIUTSxSBqe58jxsdHj7DmqogP8gPW7ilweqP/LoDhORfmhSowYhVyViciwEkICUbc6nzER8y+JIr9vTD7m/3GfiMDZIAMkAEyQAbIABkgA7MzQCFk3gkhyUhodQRLLe37CwraniGlrMAp9gihnh1q2oa2IQNkgAyQATJABsgAGSADZIAMkIHZGKAQMs+EkNk6it9zEJMBMkAGyAAZIANkgAyQATJABsgAGfCfAQohFEIYfJQMkAEyQAbIABkgA2SADJABMkAGyMCiYYBCCGFfNLBTOfVfOaUNaUMyQAbIABkgA2SADJABMkAGFjoDFEIohFAIIQNkgAyQATJABsgAGSADZIAMkAEysGgYoBBC2BcN7AtdtWT9qbyTATJABsgAGSADZIAMkAEyQAb8Z4BCCIUQCiFkgAyQATJABsgAGSADZIAMkAEyQAYWDQMUQgj7ooGdyqn/yiltSBuSATJABsgAGSADZIAMkAEysNAZoBBCIYRCCBkgA2SADJABMkAGyAAZIANkgAyQgUXDAIUQwr5oYF/oqiXrT+WdDJABMkAGyAAZIANkgAyQATLgPwMUQiiEUAghA2SADJABMkAGyAAZIANkgAyQATKwaBigEELYFw3sVE79V05pQ9qQDJABMkAGyAAZIANkgAyQgYXOwP8HgeaQGVpsGpMAAAAASUVORK5CYII=;" vertex="1" parent="Hp2LMigl68Y7-yu4LN-_-15">
          <mxGeometry x="414.25" y="390" width="240" height="31.05" as="geometry" />
        </mxCell>
        <mxCell id="Hp2LMigl68Y7-yu4LN-_-25" style="edgeStyle=orthogonalEdgeStyle;rounded=0;orthogonalLoop=1;jettySize=auto;html=1;entryX=0.5;entryY=0;entryDx=0;entryDy=0;" edge="1" parent="Hp2LMigl68Y7-yu4LN-_-15" source="Hp2LMigl68Y7-yu4LN-_-22" target="Hp2LMigl68Y7-yu4LN-_-24">
          <mxGeometry relative="1" as="geometry" />
        </mxCell>
        <mxCell id="Hp2LMigl68Y7-yu4LN-_-26" value="self:OnInit()" style="rounded=0;whiteSpace=wrap;html=1;fillColor=#f8cecc;strokeColor=#b85450;" vertex="1" parent="Hp2LMigl68Y7-yu4LN-_-15">
          <mxGeometry x="482.75" y="523.63" width="100" height="30" as="geometry" />
        </mxCell>
        <mxCell id="Hp2LMigl68Y7-yu4LN-_-27" style="edgeStyle=orthogonalEdgeStyle;rounded=0;orthogonalLoop=1;jettySize=auto;html=1;entryX=0.5;entryY=0;entryDx=0;entryDy=0;curved=1;" edge="1" parent="Hp2LMigl68Y7-yu4LN-_-15" source="Hp2LMigl68Y7-yu4LN-_-24" target="Hp2LMigl68Y7-yu4LN-_-26">
          <mxGeometry relative="1" as="geometry" />
        </mxCell>
        <mxCell id="Hp2LMigl68Y7-yu4LN-_-28" value="LetsGo.Script.Model.UGCEditor.PathModel.UGCPathModel:OnInit()" style="rounded=0;whiteSpace=wrap;html=1;fillColor=#f8cecc;strokeColor=#b85450;" vertex="1" parent="Hp2LMigl68Y7-yu4LN-_-15">
          <mxGeometry x="34.25" y="520" width="380" height="37.26" as="geometry" />
        </mxCell>
        <mxCell id="Hp2LMigl68Y7-yu4LN-_-29" style="edgeStyle=orthogonalEdgeStyle;rounded=0;orthogonalLoop=1;jettySize=auto;html=1;entryX=1;entryY=0.5;entryDx=0;entryDy=0;dashed=1;" edge="1" parent="Hp2LMigl68Y7-yu4LN-_-15" source="Hp2LMigl68Y7-yu4LN-_-26" target="Hp2LMigl68Y7-yu4LN-_-28">
          <mxGeometry relative="1" as="geometry" />
        </mxCell>
        <mxCell id="Hp2LMigl68Y7-yu4LN-_-30" value="" style="endArrow=none;dashed=1;html=1;rounded=0;exitX=0.5;exitY=0;exitDx=0;exitDy=0;entryX=0.5;entryY=1;entryDx=0;entryDy=0;edgeStyle=orthogonalEdgeStyle;curved=1;" edge="1" parent="Hp2LMigl68Y7-yu4LN-_-15" source="Hp2LMigl68Y7-yu4LN-_-21" target="Hp2LMigl68Y7-yu4LN-_-20">
          <mxGeometry width="50" height="50" relative="1" as="geometry">
            <mxPoint x="535" y="247.25" as="sourcePoint" />
            <mxPoint x="535" y="167.25" as="targetPoint" />
            <Array as="points">
              <mxPoint x="535" y="240" />
              <mxPoint x="535" y="208" />
              <mxPoint x="500" y="208" />
              <mxPoint x="500" y="218" />
              <mxPoint x="535" y="218" />
              <mxPoint x="535" y="167" />
            </Array>
          </mxGeometry>
        </mxCell>
        <mxCell id="Hp2LMigl68Y7-yu4LN-_-31" value="" style="endArrow=none;dashed=1;html=1;rounded=0;edgeStyle=orthogonalEdgeStyle;curved=1;entryX=0;entryY=0.5;entryDx=0;entryDy=0;exitX=0.999;exitY=0.391;exitDx=0;exitDy=0;exitPerimeter=0;" edge="1" parent="Hp2LMigl68Y7-yu4LN-_-1" source="Hp2LMigl68Y7-yu4LN-_-9" target="Hp2LMigl68Y7-yu4LN-_-12">
          <mxGeometry width="50" height="50" relative="1" as="geometry">
            <mxPoint x="350" y="515" as="sourcePoint" />
            <mxPoint x="561.1" y="500" as="targetPoint" />
            <Array as="points">
              <mxPoint x="350" y="520" />
              <mxPoint x="363" y="520" />
              <mxPoint x="363" y="585" />
              <mxPoint x="464" y="585" />
              <mxPoint x="464" y="555" />
              <mxPoint x="450" y="555" />
              <mxPoint x="450" y="595" />
              <mxPoint x="530" y="595" />
              <mxPoint x="530" y="500" />
              <mxPoint x="540" y="500" />
            </Array>
          </mxGeometry>
        </mxCell>
        <mxCell id="Hp2LMigl68Y7-yu4LN-_-32" value="" style="endArrow=none;dashed=1;html=1;rounded=0;edgeStyle=orthogonalEdgeStyle;curved=1;exitX=1;exitY=0.5;exitDx=0;exitDy=0;" edge="1" parent="Hp2LMigl68Y7-yu4LN-_-1" source="Hp2LMigl68Y7-yu4LN-_-2">
          <mxGeometry width="50" height="50" relative="1" as="geometry">
            <mxPoint x="750" y="105.63" as="sourcePoint" />
            <mxPoint x="961" y="85.63" as="targetPoint" />
            <Array as="points">
              <mxPoint x="750" y="106" />
              <mxPoint x="763" y="106" />
              <mxPoint x="763" y="171" />
              <mxPoint x="864" y="171" />
              <mxPoint x="864" y="141" />
              <mxPoint x="850" y="141" />
              <mxPoint x="850" y="181" />
              <mxPoint x="930" y="181" />
              <mxPoint x="930" y="86" />
            </Array>
          </mxGeometry>
        </mxCell>
        <mxCell id="Hp2LMigl68Y7-yu4LN-_-33" value="判定作用域是否正确" style="rhombus;whiteSpace=wrap;html=1;" vertex="1" parent="Hp2LMigl68Y7-yu4LN-_-1">
          <mxGeometry x="958.5" y="61" width="160" height="50" as="geometry" />
        </mxCell>
        <mxCell id="Hp2LMigl68Y7-yu4LN-_-34" value="防止重复Init" style="rhombus;whiteSpace=wrap;html=1;" vertex="1" parent="Hp2LMigl68Y7-yu4LN-_-1">
          <mxGeometry x="958.5" y="131" width="163" height="40" as="geometry" />
        </mxCell>
        <mxCell id="Hp2LMigl68Y7-yu4LN-_-35" style="edgeStyle=orthogonalEdgeStyle;rounded=0;orthogonalLoop=1;jettySize=auto;html=1;exitX=0.5;exitY=1;exitDx=0;exitDy=0;entryX=0.5;entryY=0;entryDx=0;entryDy=0;" edge="1" parent="Hp2LMigl68Y7-yu4LN-_-1" source="Hp2LMigl68Y7-yu4LN-_-33" target="Hp2LMigl68Y7-yu4LN-_-34">
          <mxGeometry relative="1" as="geometry" />
        </mxCell>
        <mxCell id="Hp2LMigl68Y7-yu4LN-_-36" value="" style="shape=image;verticalLabelPosition=bottom;labelBackgroundColor=default;verticalAlign=top;aspect=fixed;imageAspect=0;image=data:image/png,iVBORw0KGgoAAAANSUhEUgAABEIAAACNCAYAAACzM98LAAAgAElEQVR4Aey92VMbWdfuef6RFMVQgHkZDwYDwTwE8zwjQswIMQmwDWaymUFgbAO2MRhjWwbbYDyCDUioXGXV6y/Oec9XfdE33TfdEd192Vdfd3x9+XTsFCmlhAAlBhfDulCkhq2de6/9y2E/udba/0Xm5AJ6kQ2IAWKAGCAGiAFigBggBogBYoAYIAaIAWLgIjDwXy5CJ6mPdDATA8QAMUAMEAPEADFADBADxAAxQAwQA8QAY4CEEPKIIY8gYoAYIAaIAWKAGCAGiAFigBggBogBYuDCMEBCCMF+YWAn9ZfUX2KAGCAGiAFigBggBogBYoAYIAaIARJCSAghIYQYIAaIAWKAGCAGiAFigBggBogBYoAYuDAMkBBCsF8Y2En5JeWXGDjbDDj94gIXVw/8+qsXfnWn12m2gduvnvjF+Ve6vtA9BjFADBADxAAxQAycSgZICCEwTyWYNGE92xNWGj8av+NmwMXNE//w8YeP73+l1xmygeclHzj94kbXGbrXIAaIAWKAGCAGiIFTxQAJIQTkqQLyuCdPVB9NyImBs8+Am/slEj/OkPhhK1b94x/+JIbQvQbdaxADxAAxQAwQA6eKARJCCMhTBSRNWs/+pJXGkMbwOBn4xeVX+PgGkhByhoUQJowwz5Dj5ILqovMMMUAMEAPEADFADPwIAySEkBBCN6fEADFADJxaBjw8vUkEOeMiiOAh8oszhcj8yA0b/Zdu+IkBYoAYIAaIgeNjgIQQmgCd2gkQHejHd6CTLcmWp5UBziMcWXU9GG3NhYvMec/56B/elBdEEBLO+tbN7dKe8T2tXFK76JxJDBADxAAxQAycXgY4mRsyWifRXpePYI+994+OjB0JISSE0I0pMUAMXAAG2AUjOmEY2oYFTCdFw8mO6ODIReO4ynAydwQX9OHx+h/Y+e1P6Ker7AohZyUsxtvnMvyDw3E54DJ5sOzjwfKrhxeday7AuebYzhHeoUgarULJaAYuex3tJve42kL1nN7JEI0NjQ0xcDEZYPeRimkjfw+5/UmLzvwQOEu8tyUhhG5K6MaUGCAGLgADnHMhprt0+LdePb6rGhAg8WJxnDcanMwVQRUP8HbHCP2XFQyqshHsaf9Cfla8ILx90lA1OIOemjQSQvYTQtxJCDnO4+i81+VcVIr6N1f5V16hO12nLsB16rwzTf2zf50nu5BdjsyAZxjS6zR4/sUI/c4GbpeFQCbh/vbIQohfZjH+pztNVq+/JqsxGHI2VPuz3v7DgMnTfIXe8AYt4UcbD5/aBV5hY09qhZfe8Akd8fvXx8lKcdtgUuaE/9huH9b6n/qbGU6WjpsfjdB/HELSAQdT0s116He+QWf4jN5Uy0nMKX0EH3Z+x6beiLWb6ae+v4exRL9bxvYs24KTxaBN9R5/tC9hMibo7+UyTI0FnRH6jUXURR08wSEh5PwsF/zrPkII5xSFnNU2qFaLEeLkDNvPtsedW2kZPzkuKPU8MY45WTBSn7ZB9TTn2EVD5p3lnZuO7DsqVC23oO5VMyruK5BWFgxXp/2vsbZ2OK7P7Kmad16GqT1LLajTNkKhyUdsqvff6jnGBcci77EatY/liAg6Xruc7Pi6wDM9FZnjSlQttaLulRqVD8qQXhUCd+fj7cdxMXDUejhZJLJX28yClSBcibcneZwetd22/zspHgLaGqBaaUXdaiNS4kX3Ekm5qF5phfJ1Gyrbgk/kPHalpwWq1VrEH3FeJpxnxWOpWq1HUtT+DF80Hv7O8bVl+Lx8tr3+237er58uUc2Y3TBCv/0cdSGiY+0QAfnIQohHeBzGKzPMryc99ThLQshZb/9+IAjf/6gQ4p7ciJt9Q+bXneXf4KgQov/4HMOi/4rrUSaf/hhxSUKIbgXPXxux2pPCX8g4mQtS+jage7KIORJCTuTiLjBOW8dP9KfJVpzMA7mabegNO7hbFnAoIySEXAAhRBaOrFdtUL0qQrDMGZzNZ1t+hRv0k5xgndTEiF0jvKsqUMuEH60SBbfykd4tR8kim7S0orw91G6ImK0Njusz887yrq00ted5LfJ685HRV47yJSZMNSGv6Hyu9nNS48vGxbOwFFVsfF/Wo6i/AOndJSh+zMa3DRXdEXA74AHLcY3rz6pHmPiqnlYg42oOUu28ouJOf5Lkk+KBnyi/rIF8tg0VLaYHEJzMGQFXG6CaLEfRKRZCnOMSrcYz9wFj2DEh5KLw8HeO7886xn/2fmyv/7afD2qPb/ksNgxGvB8tcPg6emQhxLYhudXKMyWEnLf22/bnR4UQ2/rSB7ccF0IWW479CZpte07ysyQhxDCP3ltr0K/2IordwDuloff9N8y1XMe0gTxCTnKcqO4zKoS4FEKzaYT+wzCSHHj67YgQEld2E9eaShAamoPS+i5cvzmCNrUaObFX4O1zBdH5jai7OoiuvmG0NtUg4cre5Xi9faOQLG9Bw/UhUzl1K0oyYuDrE7An1MU7IB6Zldeg7hxD961BqFUKRAftDY0R2hVyJQOFde1o7dWgs6sXdaWZuOK7t17/6CKUNvbi+q1x9PaP4VprM/ISwq32L9T5Y32NRLJcbepr/wja2lpRlBplt69i+3sHJSAtJxcRgXvbLi633/t9PUJkYchgE++lfATxQoj1Z9tj/UwLIW6RyGZ9fS5HWICrWQjk3IOQ/LAVqpVqxB6z94Ot/cSfOfdIZC+3QbVYjBBfyznFKSgeBVrWznwEnjMvBtb/k5r4ck5XkMY8iZYrERMqGl+3QCRMtUK1WoeEI3rqisfttLw3CyF3kuFxhgWek+KBnyivKpB6VQnVowz48PeJwUh90oYiZSryVk+vR4gtY4HtzY4LIReEh79zfG3H57x85iTeD4j7zTlloP+TEfrNSWQ7eN366UIIn7AvKRXzHVX4pqnHv8aV0HXkYSDJF+52TqLs6UlIbCIeXK3AV00D/qWpwWZXESayLiPATic550vIyErH085KfB2rx38brcbnjgIMp/rDy079ggGPW8jhZCFofm6E/sk1FLQtYu3LDl4/bEOsZyQqJ9fwaXMLS9PXkGCTAIyTeSJC3ovbi+/xYesrtra3sLI4g/aSKLtPETiXEOR1PID23Q42t7ex+vQeGlP9kasx2A2NYS6wV/JvQPPkHd5v/Y7NL1+w/PgOWvLDDlTPjlsI4WSBUM5/g96whjY7bnZc6DVoDUZszzfCVzRuUtrPhV/n69jUlCAgqxN3X6xjfWsHa6+0GFNnwk/ED+elxMNDwnpYmI84tIcPjTFoocrvxQrrR6QzZEn9WNt5AVV8I+bsCCGcSxCSlQOYev4Obzd+w5eNdSw9fYjOsnhcspkUSmm/wLGU+tl/OKdApLfcw5M1HTZ1eqxpH6A18zLy+dCq12i2camUZH9ZIFRPjNAb5lB2OQX1Ey+wum7A5tZnLD0cQmnkybm1C/b40S3nVIjpTh2+N19FrF8JBqq12Oz4AmPHG7wqVyPVTpZqzjkUhRnDeNr8Br91beJbxxrWagehDgmw62bufCkDV0sf4WP7ZxhvvMe76i7ke8Wht0WH7+2DyBLxH5A8y+f4mIu39qxiF46OZh2+d2lQKOKI827CSo8pLwjLDcLnB+mZRZ2ddpt4OPn+clGdeGkw4stEiUNJrfabVIu/T1LdxdCtLjTcGEZTTTUKS5uh7pvC0GAnSit70XnjKkrlFSiu6UTX2AwG2isQKhI4vP0SUdh+G0NjY1CrVCiW16G6bRh9mru4Vp4Kf3HZgHSUd9/F0MgImpRKFJWqUHtdg962dqiHrXOEmNrViYaOUbTUKVFYUoOqtjEMaqbRXpFkJTz4J6jQMTaD/r5bUNXUIL+4BtXtExgcHUBJjCUB64/3NQGF1ycxNDqKZqUShXIlqtpGMaC5i5bCGHiL+iq2MXsfU6XB8Ph9tJfFW4kztuX2+7y/EHIF6c+Zh0QeAnkhxPqz7XEsVQhhXg+emWnInqxD1XIr6l40oWyiEPEZPlbHJHcpFgWHuPkzN3FbTxTOMwBhajlKHjWilvdsUaNythJZyjB4uli7kXORGShfbYOyOxzsybC4b5fK5Ch9UIOkZOvvTaE0u6Eryy1QLjej/E4xknL9rNovrsvR91xoKhSrbajpDLNqC7v38q8qRFZPGoL23Ke4wDMtxRT68aIFdS8aUTatQKoiGG6i6yprAye7hJhJ5l2iQHhAEGJ6q1D+nPWhEYrRHISFWnsLCBNSsTu+PZsL/eNCUlG62oa6ngi4JaYg+149ql+2oHahBjlN4fAUteeo4yvsy5EtF5iEEuYNMhq75/zmrlCgdkmN3EIPG1uzUCnHxleqPU1j4Bj/jvTPtowUIYS1PXqCiUFKJIRZM863MzgFcjaW44lW97uOHr98HSIe3FPSkTvTgJplNSofViKr5ooVnz+DB9NEuRLRmey4VyIh1BlcbDYqV6oQE5WAQjtCiNTjnXP2RnBTCUoX1KhbbkL53SLExHsiuNt+aIwUe4rH+7iFkPPAw5HG19kL/ops5E3VoVLbAqW2Hoq7ciQXBOwJjRSf3w7jWRgrTkL9/DHjdAmByiKUPG42hfFNlyA+2Qum0KqaPcK8FH6Odr6yvv5zMuvPQj/tbdmxU3ibRTDszskOCYthdfxUIYRdWGPy5Pi3yUb8+2gFtA3ZmGoowsZII/6aVOF1nq/VRZ3dJIRlFME42Yi/xqux0pSDe3V5WOmv53OTfG2KxGXRjQRzuVbU1+DfJxvx560SzNVl4U5dPl/+r8kGrMsD4SoqLzbiiQkhb9bwaOEeRh6s4bPhG549nsfi/dvQPNnAtsGIVzcSzRdEBldE0zPerUe3sYb7t8cxPDGHF+tMMNjBXJP1Sg9sUhrftQadwYitTy8xpRnH8N1nWPk0j/H7uj1CCC8qKRfwiQkMn1YwPTGOoYlHeP7pD+gNOjxQRlrZX2yf4xZCWN1+ykW+7dprMWYbCPu8ol6G3vAND5WB5t+ktt8sJMzO4v76J8zdvY3hiQW8/Mwm59/w4kai+UaFc89A4+gEhvnXIyxtszizNUybvzP91phuSfZnEkJeojEkCV1rRjxtiURC90foFlsQGNyKpzZCCCfzR8H4BnSGb1hfWcTEmAYDY/cxt8ZEq9+h7UixEqOktJ/ZTXL9MheEqZexZTCC521iHCN3nmN1YwFTsyzHjLUQItn+ZiHkGe5MbWD1yX2MjE7i7rMNfp/6txqkue+9GRIYOGzLRVaie58QLFM41gDkTJxy4ES4XxnOV403PTr8qZzAg9ZX0FaMYKJ0Cm+ub/Oigr403/qGzTkC6rpP+N6zic2GKdwrGcK96mfQdevwvfsl+oJtboDdMqBp3cb3ni1sN03hnnwED+vfYKdyEo+7dPhe32R1jssofIfvPW9wy+aJMeeUjylWvrkVoaJzHOdbjJuFtzDCv+7iHRN1rvcjXVRG3PeT7i/bF5c5inWDEa+7khwam/0m1eLveXFAM4HatBDLBD2yGtc1Mxi62YBoP5MHg7dPIMJKBzCk6UN+qMWrIazoFgY1w6hICjX/n/ckqRjAoGYQxVEmIYL9P0IxyH9XGnfFUtY3HKmN47xIIE6WamrXbdRnW7w6vH3CkdXKhJQWJOyKDny92U1oamtEYpClXd7+magdnEFnVZJ5Xz/a19CiXgyM9aM4JthcJ+trfM0ohka6kHXFsn+xjdl7//hKNLReQ25MkPm/tmUO+ry/EBKElEVLPg5OZv1ZzCh7L0UIYeetS4oyVLMJ1rMa5N3MR0ZvKeTP2ISsGQUKP3NiNc7tCmK68pHBv0qheMnCG5TIM39n+i0m0ZLXhpN5IXyYPSltRfV0KTLac5DaXoC8+82oY6EQXeFW9x1cXDYfNuFoXgDWfnEoTT5r/00FFEw4WlWjsMrf3H5bOznymfOMRf5KG+puJ9p9GGVbB7sv85QreHuqlndDP7qKUTTfwueJqBqItqrHciNcgdyBBlRMliCzswC5dxugZILBQh4C3SznaU7mg5AmS4hF+nj9gflgzBOFsRLkPa9HYX8BMnrkkD9l49uGsubL5vuao4yvbf8P+2xuT0+EQ+c3qeMr3Z6O839Y3+z9LkUIYf93U5Tzx0Vp/d58cZ61VfxxVKCwCP1Sjl9Wv9n+Y3LkPzfxmXGzDGXMu2m1FYqmwJ/Kg2mizLy8LiP5cRvktX7wU9dDxTwmApN54Ud8LpDOgyv81Eqe9bqn1cjryUdGfwXKnymQzZ+XrHOESLWneMyPWwg5DzxIH19PhPQ28ONVM1uO7K48pHWV8OdPxmdpU5CZT6k88+VlEuuXOcOrttp0LtYqwa4vmf0VqNCWIW+MCWnWQohUfqSer0x9sL7+H3Y/wP4jfsV3f4TesI2+DMt1Rfy77fufK4S4hWNe04i/hnNRdsnScKdL4ZgdbsRfmjyUiS+ILiG4P8q+L0FLgKU85+KL9nYV/pqswZjIxZBzC8FASxGeV0fxCdeEznIugRi7xcSUPJTZPJ0RypyYEPJ5EtmuLOY5Cm3LRuiXOviJCudaCA2bkM838q5yrB2chwK3mcv4xykU+ln6K/MrxThL3rk5g0LRk1zOoxz3WMLBd7eRJXpi4xp1DXOf9yZL5TxKMP7FCN3qKNK8RfV7Z6P/zTfov0yjQFS/YBu2lSSE7JcjpDbZLDzw/fVVYZatGrFrE2F/TP1resay/y6i0tcCstT2C0KCblOLlhiL94FzSBNmmZ110yhwtdRv2b+EZKmGVajDnMGLIotT0KwZsdAUAi6iHS9shRCPPLQ/mMP0YDWCxE+p3FLQvcqElxkUivnf9WhxtP2c1PpdCjDKGNyYQ2Ww5amce3wnnumY+GYjhEjkh3n9mDxCfsPTjhTzzTGbOGQMfeLFqOkKX6sTmDAGjmy53AlsHuDFozd8xXDu3vF1pG5zmcgR/NGjg/HqBKq8LTaSeddjiYkbV3uRIhIVYrNf4M+e95hLirCa/PjGTGCnR4ff5LlW/U3OX8X3ni94nZMMz916OJkvFKVvYezR4Xd5nnmSwyYIDbU6fO+5jxoRJ6ytnI8aq6ydZcVWF1FzP1gZt0os9OjwXVUPf1GbxWVkJ9xfvq2742ZPALVqy+7F7aCJtfAbLw4Mq83CAvve2ycLNSMzuFWXaTVp905S45bmNioSBXEkDvKeGfS3FCPQxhvCOyAXqpEZdFel8HV4+8Sj9OYM+tSFVl4i/P52hZc9QshoG5JtwmAuF3RjSNOL3OD9RQe+Tt9YlHTPYKhNjoDdtv1oX1l9N1VZVt4o/L5CK3BVM4W69L1hQ+z343jtL4RcRvJ8G1SPs+HHe4RYf7blQpIQwkI/XrRB9SgXgZcs5wPuUgjS5tqgelGMEDuCrOCZcFiyVOGpct1kEjzE3ljOfogZUaLsQS6CRMerZCHEPQo5LJTmaRFCfETXbZ9IZLEQjCX77be12X6f2QOVoK5GqFZboOhLRWiCH9zsXBeF/3OuYchkk8oX5YgOFoV+uPohdlIN1WoDUuJEdjZ7hLRA3hhkvgdg+73cUc9PTvOKrAViYV9se9hYmye+SxWIDRO1xysMmUxceyVH6A+Mr7gtjrw3t8dRIUTi+FomFo7Zkw99OgL/jvSVlTELIfvlCCm9bL6G8eV94lH4ug2q+2m4JLoOcTJvxN5rg+p1OSJ8RPxIPH7N9l+qRHyE5ZrtFJSIQnYcvSxGiJ15gKPHu6N2EcqZJsq1iLviDP79nWJkzbehuMqbF22YN5aVECKVB/do5DIvtIUCBInOb05hKSjU7vUI+REeJAkhF4QH6eMbhqRRBfLaY6291VyDkPJol0/R+Vcqz5y7xPqdd8/n2lJEBlrOn85R6ZAzrmyFEKnH4xHO/5zM+vpv+1k4tvbbRlx7Ayn3/z9XCIlIxx+TjfhauXfFgszKGvw1qYQmQnQCDE7B9mQj/tUQvufm3is6CbMNeeiKtjyZ2c8o7HtFfQP+mixDu5+lfnH5ExNC1voQy9/Y+aJ61gj9rIo/+XMykxeB/vlVPiaatYVLHcJ7gxFvb2VaTZbYb8m3PkNv2ERvqqX9XGw3XhuMWB/JtyrPJkxVbF82q8ZwqYP4YDBi6XqsVXlWf2T72p76xfaRIoTYrhQjfNbP1FhNDpkHQ/Xs79AbVngxQdgfF6TGE+blMqsyi0TsN6ntF4QQ/aN6q7Ao5jolv8e8YOyvqiMtR8iu+1XqIN4amM2XUB/kDMH939FVYwommB1eoUkUinLU9gt2FG/t1h96Dc9ZiIKm2PpGReYP5Tzri40QIpEfixBi3S9+LDNGec+klU6LR5S4vafl/ZX0Rd7z43WGrdt4OjTtJiEk2SxgJKC/VYfvjWqEiG7w+L4E92CzR4ed4izzscfJ4nCLle8YRZ5IGGPlfZNMITArov1ysmQMX7Pep9lOuwLGWlaUuX7zb7uCAnf5BjZYG0qy9y1zkv0V2iMIWMcuhNxSIUokZHj7ZPJCiFiY4Cf8CY3o1UyiKmlXCPHNQZ1mBtcVcXsm+94+ESjomMFQSxEvfHj75qGelS2NtVM2G3Vj9kJjVIgWtYu1wTe7HUOaARSGWwsh/qGpSC+uRXl9O5qv96Nj8C6GmFfLdQUui4WQH+zrza4uNKjbbV596GF9k+/t23GIIKyO/YQQgQ1Ht4dNjsX1cPHZvPeComFvYl7vRvYktQkpdlZDc3RixHnHo4h5mwxEmyf54v3bvrcVQmwTErJkkxHRlhtSLsHkQVJ19cqe4zbgKhMw7Lffdr8HfeZc/RB+owpVr02rf6iWGyAfzkVMut+ePnERptCeupuRVtcNVr9rSiqybhYjPtlyX2aZuFs/WWTlObZyxmobypstnp+27TxsrIWJgmoszsqjktUT1MmEGRUS7XgGOjq+tu057LPQHhaqc1hZ9rvU8ZVqz6Py70jb+fYfsmqMajjW6v6dhX9HakwT9Lhg0f1sQCKK2XE0Fm/tZSnx+BXsr9LE29xvuiB0gHkJWXtICP08KR5ME2VTSIws3nQsq1arEBPoDC4sHWW2QojE452LTOdD7faGtnkgcoxNZK37+yM8SBFCbEPbhM/njQep4yvwZm97pZfxaX2ePCrPDtcfnMp7JSnZ+Up038qO06hxO0KI1OPRLIRY94u1z5Hzv71+HPbd6RZC4nPwr8lGfCrc+xQ4srAMLHzlgeiGhAtPx++TjTBUXHbogsKM43E5CpqWcnzV1PMhMuIlfv+arEBXoOXEKzbmqRBC8if5kAFt697JTFjraz58Yizf0n7BxXy127Riibg/9pKlcrv1v10YN68GI6zoMrywsad+cX1ShBC9hGSp3tXzfIjQ0xbLTUNgw3PoDL9jhrn8ilyepLZfEBI22URfVA97f1B/pAkh73A1miVJTULT9AIejlTzoQxcjEmkshVC3KOq0PNgBW83v/JhQYJIxLa2wsxR2i+p/qQBXryxbSOzT/44E2ZshBCJ/FiEkDmU2XgacZHNuL/8BnNte9m1Hau/83OenIW5rOLWZctxx9rDOWdjsFmLNUUF/wSb/86vFW+ZV4b63m4oym5ISvE4tG1f8L1nDSOhogmCpxLaHh3+WV1p9pYR+hqR+ZwPr5mKtjzRYh4di8yjo7bGSthj/2ECBgvHmRaVF+oStm5xd/HPHh2W0/ZOqIQyJ9lfYR+nTggJKESjZgZtJdF2xI1Q5F6dwdA1kxDhvVv2akmMnbKZqB2xL4SIBRp7QggLjQnNaUeXZgaDI2NoVbegvLwKOVk5UDAh5riEkIAiNGlm0NtxFdV1arsvRebevp1pISSzkHfFr7ydb7UCAhMcMm4zF+UWZGZaH9+MVUcnRuxJdsykKcxGMVqI1OZUxMijEZzgD1d7T55tQmOEib4wUWDb3AKRELLb/lKl357rmJeyZt/2C8ebpK1vAIKKUpDcw0IJWJ/UKGm6YiUw2Ao5h9VvmbgrEG7jmcGFJiL/QS0K6/Y+HBPqFexjm5dF+F2YKNgTHvgQhNVmpNnkXGH/dXR8hf04uj2oPfbq4CSOr1R7CvVL5d9eW+19Z/YIkZAc07VEwR+T8lrLXMCjooJnOa/E4r3L9ie1/QfZ/6CJ/EnxYJoomxLkck6XETtUhoLOWN4DVBAVrTxCpPKQnIsaJiaq9x5D9pbPlWpP8ZgfZD+h3EXjQer4Mjs5h8UgZbQWVUtMELReenqPcCXKeSPYWNjuNx6S6o/dP1TTrjAj8Xoq9Xwl9O1HtqdbCEnIxf84TAhJsNyQSBVCON9oaFkozWQdNlpzcEe0vO/zm8wj5JQLIQV3eFFgfyHkD4wViOyzG2vvsBCyW7948i1+rzdY1y8G8SDhQCjHyUpxm3lFSBBCOJ9a3Ncbodde2102MRCqhW/Q6+ZRLnKPZPvgJLb/KEICvx+ZlNCY97gWYxkTsy3sCCFcUC3uszWuDXosPZzEgCi/xfTrvR4qUtsvuf7kAbyzCd8R2m8S0myEEKn2N4fG7BVChP2c5i1zx1OrWCjKDKpEror7tdklegJ/2iQmZclJ/9m1js3mBxiOi7J+QhVyC/oeHdbzrL1iWAxmiYIJJ0vo8LewxQV34UuPDlsFaXsmRPnydb78jQBLedt2xuYs4XvPZ0xGiNzrRQLhSfdXaA+XM44vBiNe2PFME8qIt45MwvlwkaN6SfgkobxvBjfrsuBj47nh7ZOC8v4Z3FRm8MKH8PmWvdCSKwq0ao4qhKSicmAGfW0KhO7mM2H9Zh4p+e3HKIT4JPN97a1J3yPkOGLnHy3zt3iE7N64iYUG8XsWl531A0IIz6rPFcR0lEI+3wTlrlcF24dKW4O0LG+rpKgHCQlsMihdCLHffvExdJT3nOdlJLBQlxUlEkXnjIPab28/B90I2ytv+x0JIdbjK9WewsRXzLz4/X78247Dfp+PMvHlvOOQz8JjplJNggBLonq7FapXCoSLwrzZPqW2/3QKISokijXhLgsAACAASURBVLzdBVseTQix4eGIQoiYAfH7g3jYb+It9Icfr10PIT4HisjDQFzG9v1Z5sEkhEgY34A45PP5atRQjBYgXbTcdN7sXo8lqTxzUuu3EebFY2MvWark49HsEbJXCBfv6zjfR15nEQ4GDOXsfz8s3t/PDY05YY+Q2JIK3qvkfdFed0656gwIIT/JI2SuIXjPREoMhb33JyaEyHxR8YDlM1lGAwsp8avHox0jNh/UWsWPsjYJHiGOtl+qkCD0W5pHiONCiOng/IanbTF73I3tevCYV71xzKNFcv2Jt7BmJxSLJe0tvsuEGRshZJdPh+1/wkLISSdL5WQZpvCXtm4kOnBBj87S4nvPOjSivEUCU/a2vrsrwMzHe1sdj5wsFNebWHLVO1CInih7xk/xYTrPk61d/FkiqZb63fI2ITbCflk4mKJiE997nuOqjcBoKXOy/TXvJ2VgNwQww6rfwu+2W0cm3z8mhAQjoW4cQyM3kGmTsyMg/Spuam6jLt2UhNXbJxjJDbf3lPX2ucwnUWVhLOJQHHvtYv2xDY3x9i9Ag52wFO8rxWgeOU4hJBiJrK+DV5EiSsrK2uQfW4qyMgXi7CwtLIwB81wJDArZIxgJvx+2/TuFkKIK6+PMljPbz0d9Qsy5uMM9OBABOanIYzkqXpQgVBS7f5CQIAghOfl/k0eISBjl7ZGWj9rVNpTU+JiP1YPab2tD9lnqxN22DhJCrD2WpNpTmLhI5d92HPb7fCQhhK2OOMqehu+GiPjEo2ilDcqROKuHBTw/u0Kmo+2XOnEU+nXU4134/35byRPln+QR4qg9xf06MSHkDPMgdXx96lk4Zivkqr1Jru168Ej0CJFcf0wmKlbbYBt6yR7IhfTbCdWRejz+DUJISh9LJfEZ3XY8AcU8C+9/rhByaI6QWqtJBHdAjhDv2BQ8aS7AzRiLq3mBso5PoDpqsywXS8pV38I8RU65R8ihOUK+oCfFonBxcT1YsZsjxPvAHCHilWoEEA7bnpQQwvbrVT7LhwQ9brwCn+p56AxfMWUniaaQI8TR9p82ISRrdMd0cCZZxpD1n7lWVz5kyUmtc5ZIbb/k+v1MS/zq5hvhLZroc06J6GTJW22FkN0cIQ7b/6SFkBNOlsrthq58r6kyJzI96DjJLv6I7z0r6LUJo9nvPwm5r/lwlkmb+HXOowqLLBFrSwdiROPCwmWYh8mDWEu4DM+Pezm/wsw/lXXmMB3bfXKyCNxgy+t2jqNIlNBRXO6k+yvsiwtsxmO2UtGsyoo74Xfb7WGTa/a7PcHB0Rwh7P/eVwrRODyDgd6rKMhIR3RMGlIKW3B9ZAZ91xQIEXmKeIcr0MqWue1pQ156GqJi0pGuuIHumwO4PnREIcQnCnnX72GovwuluVmIjopHbHo5lF0a3Bo+PiHE1NciNA3PoK+rFQWs/dEpSM5Vorl/xiSQXLbOWyK2f1hxH7/Mrjo/6kgeJX+LELIb01ze5HiILWPQ0YkR5+oJd39vuHlaxAuBYdNNqXUOD/HyueKYbPYf36a6PaEuUnNICPt2dOtdX8svmZiZtbf9srR8fjWBsiZLDg/hKbbdHCFpGcgdkCMhxXJfJnXibttuR4WQU5MjROLyuVLHV6o9hZwQUvm3HYf9Ph9FCGF1uRbKebaKKr3hxofKtCCv0DoshpWT2v4zL4RIzhFiytmzN0eI+4E5Qo7Cw0kJIWeZB6lCiClvUSOSY23nAe6IGLWT00WiECK5fh/TEs6q8UQrEZKFcSWz5K22OUskXk+lnq/2O884+j3LPVk7x+ZTWtQd4CEtru/YhJBYOfPGUOFhgp2L6e5TBs6BVWMUIhd07oBVYzra6/eIHuGFCvzFQm/kAeaYVrbUm1d4Ct5pDvYIcaT9YsMd9p6ThaD5uRF6KclSD101xnpVF/OqMe9tV41pw/ymnYk1W/WDrZby/i7y/SzjxLlFQ/3oMz58egDFPk+LTclUd6Cxc6ESbHGU0Bj2X86rEtM6I3SP1FDe+Q163SzkNu6RfDmJ7ZcqJFj6EYWrL/eu4iL8LmxNy+c67hES0vKSXylF25Eo4tMFl5K78dTeeEn0CJFcvywSai3LBfIZM+ocXPHxhId/HIr7FrH6yc7yuVLtf8JCiDAOJ7XlQm5C16PD54Jk89PQg/YVnf2CXwb3VWaUaHzdcDlmDOs3NvA2N8nKEyg2Z5kXNt7lJljKOwVCLn/Frxjzz6oKq6RxggfJRlG6+XvOyQ/5Ja/xz54veJK4N0ZYaC/nVIBpfnndq4gQiSvC72x70v0V9sXJ4tHBhDbdY1SIVoUSfrfdiifi+73/USGE1esXloeK6+Po18zwy+AOjU2gra4I4QF7hYGAGAVUPXcwuFu2/2YHcqJSobh1NCGE71dYHqo6Jsx1Do2MoaEoC4UsR8kx5QgR7OcXlovyaxr0CX3V3EP39WZkRh68LG5Ifhe/4o4qy7IcsFCnI9u/RQhhWe7ZahFPinBFtOoK5+qPOE0jqp6WIMze9Ubmh4SHbVAtFyNEtOqLLZ8shLd8tQ21gzHWN5IyD4T2s2V1G5AsCp/k3CKRvdwGlbYUEaIs/ZxXGDIem1bNiBQdF5zEVSTE7XOOTUHhghq1C+WIsxFQzeXS8vkcA7WTKfAW5fDg3PwQM86SjaqRmSG6XxBWjVmyt2oMe8rfYHWT/6M3wo4KIUrtPqvGvNxv1RjHxtdsJxbb74A9OacrSGOr+SxXICbEEobIuQYgfoo9YTXlixDqlTq+Uu3JrxJyBP5Z+xzq7xFCIVjd3KUY5L1sQ50mCVF9LVC9lCPM03pyyJeTePweXQg5GR6kTpQl8yCsGvNk76oxRUt2Qi0k2lPglG1NyaXVyLInmgrzvAvGg9TxvVRbzecFkTNhfvdejM1TXePSUWJvvCQKIZLrl/khbpqdtxuRVxsKTy83OPsGIORqOcqfse+tk5xKPZ9IPV+JeTvKe86/DrNsNdWVbkTuc69rW++xCSEuISn4fLsR/2OkDPO1GRg35+eIQpx5sF0QkyfHv0024t9HK6BtyMJUQxE2Rkx5PV7l+Npkl3ZGWEYRjJNs6dtqvG7Mxl1lHl7314MlQf3aFMEnphQ6xV0KxwJfVz101/MwVZuNudYK/KkpwnwLW253f48QR9ov7MeR7ZGEEJkrIpqeYYM9Ld1Yw/2JcQxNzOHFOhM1dvCoPsrGPu6I71rjk25ufXyJKY0Gw5OLeL2+gKlHdpbPlbkgTLWIdVH9A6P3Mb9m4BOlLt3K2ROOIvTVOb4bSztG6NZf4vbwsCjZai2izOO7myNkv+Vz+4agTLasDy/UzTwiFNNfoddtYG3diC9TlXafwDNXLSntP7oQ4oaE7nfQGb7h/YtZjI1OYJh/aVAZbblQSxVCOD8F7qwzT4vfsLIwg+GRCUzMruHjlzncfsC8RX7MI0Rq/cz+bkmd0G4ZIc4V80V7A1cn7SRLlWr/My6E+CQ95IWKhURLQjeBWXtbzkcFbSfLKbKBD7XjmCgZwUPVa/zeo8M39QDybG7ynIO7+VVcWDjN+5pxTMjH8VT9DsvVs/xSuxu2uUM8yzDfYar/ffUIxopGMN/8kU+Aul1Zbn0udElGY+Fusla2lc/yq9Z8b52Fxvx9L2pEy5KfdH/FNgtRL/P5kFaH8+we6+Kyjkywj7OMb2AkwiOjEGCz5K3tPliYiH9wDCLCw+F/SFnb/+73mYXYBITEISo6FsEBl4/kdbFf3Xa/DwhHWFQ8QoKDHQ538fU7eruOWwipvFOEjK58O68E+JqvSy7wKivnJ/sqrRL5N/OR1lWCosdskt8KxdVQKwFDYI+FCPqrmYdGG6pm5MgS7SdSFP7GOfsj7h67YWxF5Z0SZLTnILU9Hzl3G/gn3sr76fARhayx65hPVSUfcqJ6UYeCW/lI7ylF6VM2aWmFvCnI5jrvAu+qClP53fZn3FRA8Zw9rVOjsNzPfEMttF3Ysie4Qvx/1fUQu4Iu5+SDiOEmvlzd0xrk3cxHerccxQst/HdVY/HwFHmRsZt2T7mCX+1FtVyPwv4CpHcVo3B+t3x/tFXyZ6k3wlxoNJJFcfPp4/V8OyrGxcluE+G/m4BbmPhWDxej4JkKRX2s/aWQ8/ZsQ1nzZSt7CrZxdHyF8mzriD1ZOc8iOapWmRjC7JPP26foMWOkDRXd1kurMx6kjK9ke8qOxr+j/TV7hOy3XOrVHETFWXsxsrqZp3bYEBNAGlD5rA3KwRjzAwH2u/Bi9pFy/Ao82Euee5BHw0nxIHWiLJ0HV/ipWbhFG+qeViOvOw8ZfWwSW4a83dV54sWrEUq0pzAObOsUlQHF6zbUPatGdkeOKPl0rHmFx4vGg+Tx9YlEzjN27m5B+e1iZNzIR/aYEtUvFMgeZdckm1V+JAohnMT6+XGNTUfpsnXSVuV0GhL67ITGSORH6vlKzJvU92zF1KyRT/x89nGT9UqPB9V1bEIIO3hD41Ow2F2DP8cbeaGCiRV/TeahTKTKsFj16KQUzHdUwThej3+NK6HryEN/oq/5Kae4wazekLhEPLhWgd81DfjvmlpsdRVhIjsIAaKbC+E/HgHhGGxWQDei4st+uZaNljB3FCkPFkIcbb+wn8O2RxFCWJ1syaLwkh7cfvoBH7e/Ymt7CyuLM7hebJ1oUdg/53IFuR338fzdDjZ1Oqxp76Ml8zLs5Zww1e+BkKJOjD95jw/bv+PLxgZePn2AzqpkeItudoT6hS0bt+D8btx7sY5Pum/mibPeMINC8w2nSQgRT6pt3z+stV4JRqjfU/EAm/zys19xR7F/LDcnc7z9RxVCeDu5R0F+awHLH3f4CRvrh+261FKFEFave1gpbkwtY+XTDr58+YyX8+OoS/JFNh8282NCiNT6Bdu7BGWgTN2Nzp5uqGvyEOzhDNNyu9Y5Qni7SLH/GRdCUgve4HvPWwyKlvgTbLbf1juoFpraJWzf2ITxxntsNM/iTpYcMaInrcJ/GcsxCUPQtn6EsXMDOvUjTKamIXo3d4g9AcYzsAqamiXobmziz65P+Nz8AJq0LFy2ORdyge1Yt5O4lYXWCC+2Gs5NURjPSfdX6Dfbcq4p6HzFxLZtPGpLh88B5x4f38CTFwR8/yvt4yfY4FcPL/MER8yD1PeCl4AwybfdqlaLrZawZpOcS1npyJpUoWq5FUptA8ruliC55DJcD2CPeUWEXS1D2VM1v8oF2w+7gc1ItwjifNt9ghB1rRSl802oZUkgX6tRNV+DvKsJ8Bd5oQj9ZNdT77wMZN9h7WlB3atmVEzLkcLaI7pfEpf3ys1A9l0VqpdboFxuRvmdYiRm+9md5Av/c45PR9GiGsrFSiTEW8JVhN+FLefijcuVecibrufrr3upRuWDcmTUhsNT5KVrLi9zgWd6KjLHlahaaoVyqRHl0wqklQXDzfZcJDFGnEvPN9vadlyFz6rVCkTtes0IE9/arnC4J6cie6oBNS9bUfukBjlN4fC0aY/QB7Z1eHx3J+YO23PXPlkTzD4tEOyZXhUCdzvtYTw4Or5HmVgclX9H+itMfIWxsbfdb8Ufl/wSfqzZMZWTfwCfEo5fgQepQshJ8SB1osy3QwIPfHlnbwQ3lUC+oIaSnUum2BLWXrCXc8JU/xHPh4zrzHTkzjSg+qVl4iw+3140Ho4yvs5XIpE0WIXyZ2ooXzSibDwf0bEeCOr6cSGEja+U+ll5/hVwBeE1GUhuSUecPAye7s4IubnXI0QqP0c5X5nbJLTNgS3n5I+kNtOD/q3lHsTauW7tV++xCSH77YC+tyjbZAuyxVlggD2pkU8xLyRTAtuz0Obz1Mb0wrf43vMOg1dsJlsOXAzOkh2cgsqhWWNiyDd8eH4P14si7T7Z/oe3P4kUP0GksOsxcsz7dXPb6xF4lpiltp6+a7gw8VV2hx+LyEZjfPrGmMaExoQY+LkMMPE0bIB5rlQjxsFcG3/HGPHOEoXd0Dzf5KMjNt/cQVGQNFuREHLOJhd/B4i0T2kH3Wm3F+dTDM0nI/RfJpElWrXktLf7PLSPhYnV1bDwl0do2HX9Pg/92q8PnFcCKvueYo3FdM7U2H0a7uHpTULIMQsSP0P0sLePX5z3usjvxwZ9f76uKyc1noIQYs8D4KT2SfUSm8QAMXCeGeC8IpDFQnheFCDIjhfbaek786wum2E559Yx26dEtJ18X4e1lYQQEkLoKcoFZoCT+SKtacic86VvZAqP37Kn9F/xtC3+QLfrw04u9Lv0GwVOloD+Vh2+tw8i046L/Hm1qbNXBJITQu3y9ovLr6DwmLMfuuN5ybIE63nlmPol/Zz3ozYjIeTn2/xHx4z+T2NGDJweBpiYEFhlyfmS1lmE4gWWH6QF8roAu566p2X8mOdKcEImrnhZEnpLbRsJIRd4EiwVFip/ek5cxzUWbInIhkVLslTd9iZWtHPoLo8/NInlcbWB6rFwxTnLMcuWzlU1IvACCSGHMeDmfom8Qs6wV8g//uEPp1/IG+Qwzul3y7nQUVuQECLdZo7alsqRbYmB888A80SOuWPJ+VK33ITy6VKkFFpWYD3PHJAQQkIIeYQQA8QAMXDqGXBx88Q/fChfiL2Qk9P8HfMEIRHk/N9Mn+cbZeob8UsMEAPEwPlkgIQQmgCd+gkQnXzO58mHxpXGVSoDTr+4wMXVA7/+6gW2FCu9Tq8N3H71xC/Ov9L1he4xiAFigBggBogBYuBUMkBCCIF5KsGUOkGi8jSpJgaIAWKAGCAGiAFigBggBogBYoAYcIQBEkJICCEhhBggBogBYoAYIAaIAWKAGCAGiAFigBi4MAyQEEKwXxjYHVEGqQwpyMQAMUAMEAPEADFADBADxAAxQAycbwZICCEhhIQQYoAYIAaIAWKAGCAGiAFigBggBogBYuDCMEBCCMF+YWAnVfd8q7o0vjS+xAAxQAwQA8QAMUAMEAPEADHgCAMkhJAQQkIIMUAMEAPEADFADBADxAAxQAwQA8QAMXBhGCAhhGC/MLA7ogxSGVKQiQFigBggBogBYoAYIAaIAWKAGDjfDJAQQkIICSHEADFADBADxAAxQAwQA8QAMUAMEAPEwIVhgIQQgv3CwE6q7vlWdWl8aXyJAWKAGCAGiAFigBggBogBYsARBkgIISGEhBBigBggBogBYoAYIAaIAWKAGCAGiAFi4MIwQEIIwX5hYHdEGaQypCATA8QAMUAMEAPEADFADBADxAAxcL4ZICGEhBASQogBYoAYIAaIAWKAGCAGiAFigBggBoiBC8MACSEE+4WBnVTd863q0vjS+BIDxAAxQAwQA8QAMUAMEAPEgCMMnEshhJM5wyUwHFFlhci9XgP5zTqUdlchV5WJ8NBLkMmcrSb/nCwEyY+6UfuoEP42vzlixLNUhku4iTeGb9DtGLF2K91sB84tB4Mfv2FL/w36TyNIPgk75I5jw2DE0vVY836l2I7zqML0jhE7v/1p9XrTm7pvfZzMBQUTv1mVt/2/fr4J3ifR32MU2Vg/cjU70Bve4mqUNb9iG/6t43uM/RX3id7TxYwYIAaIAWKAGCAGiAFigBggBo6TgXMnhHAyV3il5aOwrx6Km5XIVuYgQZGF1PoyFLHvblUgLtzdauJ8kYQQ9/JZ6AxrePHyd+hmauC6KwD4K59gc2MJT1aN0M83wucEhIFg9RL0hj9wW25tf0eB5gIK0NI3hJu7r5Enn3mBY6bK12o8xfVxsnC0vDBCv72K26L/CnWwbWdZ9L7/F9f1d75njDY/N0K/8wDFrvsLIX/n+P6d9qF904WRGCAGiAFigBggBogBYoAYIAYcZeDcCSGu0dko6q9HUX0ifD0tILAn6q7h6cjrr0dpY6xZAGCGukhCSFzXB+gNi+gfXIP+VRciZM7gnJPQufoN2u5eTOmN+NCfdezCgKMeDY6Cy8ol3/oMvWEDnUn7CwOcUxE020boF9UIOAFxR0p7f6Qs51SAsS0j9K+7EXlAP/6u8f2RvtF/LecpsgXZghggBogBYoAYIAaIAWKAGDh5Bs6VEMI5BSC2vR6Kjiz4e+ydHHMyT4Q31kPRlQFfj0TkabuhfNFz4Cuv2JMXBTjZJYQPdKJW24KEcDt1B2eiRNuNmsFks8jCCd91RMMtPgOZ462ofNqJqoeNyFJFwcPZTj0yV3imZSNzTI3yxU7ULFyDfESBuDRfOB0wAXbkYGH9L5v5Bv3WbRQxzxDdXeQ6OcNLfh8bm7OQ5/XjrcGI2bpAKyGEc49EQdskZl9uYF33FZubn/FidgyV8T5W5YQ2OAfloWX8OV6vG7C5uYnl2QHkB4ft69HAuYUht2UcD5fX+fq/bGxAO6uBKi1w3z5zMl/UPDJCb1hAhddeOwpt4UKuQmsw4v1Att22CuXYlnMqNIkma32Is2Pr4EYttgxGvLyRZNUuKe33qJjlvVgeqSIRV6vB7Osv2NjaxurSHDqLwuEi2i+XreFDiWxDecSf9YY1tO2Gyhx1fJ2DCtB6Zwlrnw3YeP8KGmUCglRPoTd8w2SpiX/BTlLaL/xHSv38OHgloLJvDi8+7GBzexsr82MoDk3A9RUj9Ouje8K2pNifcy7BuM4I/fINREWUofvBCtY+/4bNz+tYnGxDks/+LAn9oe3JX5jIxmRjYoAYIAaIAWKAGCAGiIGTZOBcCSGy8AwU99cjM/2S3UkvC5u5oqyH4kYafFxDEH1NjjT+VQX5027UPm1Gjvk702/R8ZYwDpesclRru1GmDt2TZ8Srthm12k7k5FsmjmYhZKACOXOtyO8pRVpHFYofdaFW2w15fbD1hFrmgkslNahkgspcE3I6S5B2owrFc6x8O3JL/PfsVwocnCwRnWtG6Jc6EJrYhzXDEuqDItGi/YaV7hQE8JPfbdxKt0wGOddoND5huSn+wIelOWhGxzE+9x6fDUboN5+gMshSlrWF887D8No36A2/Y23xIUZHbmNycR0bD6cx9WWvRwPnGoX6eT30hq9YezYLzYgGY/df4f0OCwN5i84kiz3FfeVk6bj50Qj9uwEkiMQDcRn+ff4kvhiMeFjrb5cJcXlOdgWNz5i4MocyT5t+uWZi4D3r8yzkosmy1PbHdb6H3rCD6clHWFt9ionRcWgEexrW0Z1s4c09udEcBnTzwTteQHn/ZNLyHR/q04D43VCZI41vgAIT79l47eDVoykMa2bxYn0J43c+QW94j+sx1naQ0n5mW05i/ZxrLFqeGXgR5sPSI2jGbuPOsw18mZ3FfSZgPGmGn2i8pdqfC72G5wYjtuemcHvtPR7dvY0hzSy0n77x9v2gKYKbqH4xH/SeLsbEADFADBADxAAxQAwQA8TA+WDgXAkhl/LKoOgvRYSvafLGnpD7Zecit6MW8p4KpGWGIaq5HoqmWKvJjqOhMZxLJNLnulE7V4JAF8sEkZMFIP5eN2oXK3DFXfS94BHypA4xoW7miTjnFYn02W7UPqtCiLi8WzQyF7pRO1OMgEuiei6FIXWmG7UL5Vb1Sz0IOfdKPtno9t1yuHgr8dCwhaFODT7oFlEZ4IysER30hmeo9bPsO7JtBTrDVzy7kQ5PJ9P3nMwDSbfe8xPHJ82hln7JXJB0a52fVM82Rpu9G5j3RrHmMzbZBPRehfl71v7o62vYNmxiqjbK7EnDvveRT+OTwYiN0QJz/eL+cj51mGVizGwdPA+YuIa0vORFFu2UJbeIJT+IGik23iRZI9vQG9bRmWixAdtvQO0C3/6XNxKtxCsp7Wd2U0wz0cGAV2PlCDQLGJ5IH1zn7fnqRqLd/gY2aHlx4I7CvjDE2ih1fNnxkTO2Cb1hG9O1EeZxcUnshnbrD+h3ZiEX8ymx/VLrZ30Ia3mJbcNXPO/JwCWBNyd/lN7ZxrbBiPWRfCv7SLE/z0/ebV4Y23o3BUWw5ZiUBTXjMRPf3g8i8QCe+DooKazVGJBNzsfNAI0jjSMxQAwQA8QAMUAMXCQGflgI4WQ+CC5MR3zJ3ld4mOXptmDUkyrPe3vUqviwF+GJsUd6MeT99ShpK0BSWQ6yrlejuLcexYorVjfyDgshMhf4q1t574z0NMskigvLQam2G5Ud0VaTZMEjpHYgyTzJFOxw+Vr7njAbLrYAFdpulCitQ1PYf7zrmMfJNSTHWk/Qhfoc2XJxPVgxGLHSmQhOloG+T0Zs6b5ibSAbLrIraGLeEOujSNmdCHKyGFx7ZYR+4zaybBN0Fk/xE/eXHQlmW5o9EtY1SLMJ+/FWPuHLL3fEi8onoYt5qGivIdh28pk0gDWDER+Hcs3lxX3kUgbw3mDEWm+a3d9ZWZaXJE9j4PcrDicR3ut1U8izaaef6ilffrrSEvbDuSSjm7VzcxalYm8QmbT2c7I4tLNktDuLqN4V64Q+Ocvv77GP8BvbZgxuQW/4iPa4/cdf8vi6FkGzaYR+tccq7wgnK8E4EwXWbiJGNC5S289Jrj/MlNh28y5ybXgT+HmiDjOPNyfR/syOQepl3s5P1eHmetj3nCwLAxtMCDnEw4hEECu7iRml93TzRAwQA8QAMUAMEAPEADFwVhj4cSHEIxqZ/fUoG2iwein6VUiO2QsCd0LlOZk/Yq7VQ7GbCJV9jr1eD0VbCryEyW6EKXQmK8PL6mbeUSGEDaogelR1x8J5d5Loo1KjVnsdqUmu1vUKHiEde1cl8Ws0CSqpIs8DLq0UNdpulI/KkawutHqljV7lQ2/S0/afCB8GnWlFESOmK33ByQKhWjBCr19CfbAzzMk4HzebV4zhfBswZzBCd78G7qIJMduPMDF9UGMJOeECm/GYlZ+usvLuYOXD2lZ2c054mG3ERbTjhcGIzZez1uEeg/cw9/Yr9DsbuJVhKS/un1fNAj+hvV990IoxYVBrjdB/GEKSTfvFdYnfc6lD+GAwQrwkr0/5LB8K9LLT2htEavs5VwXuMIHBjvDjp1rk+zNVYc0maxtjeptmBQAAIABJREFUWTlvP2RH3HbJ4xvdhVfMy8LG64bjvYVM4y4OE5Hafk5q/ZdqcJ95+Tyqh5fNeJlWHPqK0XzLOUWq/ZmtskZZGNYn3Ii3Po441zz0LL2BdrwGvjb7FtuY3lvsT7YgWxADxAAxQAwQA8QAMUAMnFUGflgIOS0d51zCkdZXjyJ5ED/R5rxikdVfj/x80UQ9IhMl/XVIjLSZBMlCkPyoG7WPCuF/yCSIhXnETLB8ItUI83IGJwtC4v1u1M4Wwn/XlV+wieARUuOoEJKu4IWQ/RK41mq7kCHK3yHsx9Ft7A2Wn8L+KitcSBufO+HDoCWpKJdmEgVWupPN4oWwr+RbG9AbvqAnxWJLLnOUD2exDe9gnhkFE7/xOSeuiXJOuBRP8clHBQ8NYavT7eDty8foLYvZI6gI+0/i97+BrgNXjNldaUXCcsCcFwsZMkL/UMmH3HBOsbj+6pvJG8TGi0Nq+7moG1g2GPFlvGRPrpe0ARaiso4bCRZ7Cn1l+VBufTo8H4rU8XWRz/DhJo+bbDykkkxJc23HXWr7Jdcf34tVlti2P3MPb6awrVWowyz2kWx/WRAanuwKSnaSKQv2pi1d0IkBYoAYIAaIAWKAGCAGiIHzzcD5EUICk5HPEqWmmXIocHziVBVS4iwD6JEh53OIhIvCGxjgUjxCWHn3EiVqtF3IK/ECF5UHhbYbpQ3B4GxEFMlCyK5HSH6pJSzjuA5AS36KeZSL8o+Y699NKjqnMglJ7HvB62O60ttqYsrJvFE5yyaUi6gU2ZKFlbCVRu6WWSer5WS7nhk7syhxs0xkI6694fOJDGRZvjO354AQBBZeVc3vfwGVNjk+xP/nrrThGQuvGcyxar+4jO17PtzirUV08CyawjpbKabLeqUY9j+p7XfeFX60rVFW7eFkfgd6fJjFmVkVLtkwJrT/KOMbeX2Nt/9gtuUYYfV5Vs7x3im24y61/VLrdy29D53BiPmGYBv77Cax1c+gUBQyI9X+nCzbFP7ytt/uqkCCLWlrzQPZg+xBDBADxAAxQAwQA8QAMXDeGDg3QogsLhel/TWIDzVNql2SCqDor0TM7qomzCvhcqUSiq5M+Nl6bkjwCGEAcJ7xyGGrzIyl4UoDC3FRIy5k72ReEEKk5ggpFYkRxwUcJ4tHB8tPsc8k0JRUdBt9GZZ+xHS85RONjuZbvuP7z3I/sBVgltoRIpqYJ/SwlUb0GMi0Ke+jxEMWEmKTiyJjkCUmPTjvhb3+c7JU9LIVXA7L55A7wYe0PG609niwV6fwnXkJWsNjVHhFQK1l3iCPoLDxBmHlpbY/nA8P+gpNoXXuHCFfy35jwyWxFX7se0pY2i19fLPH2GpA1l4onMwNeRqWNHcdXaKwLbYfqe2XWr8QHiROwMv26xR+Dc8YP6+7ESHiTar9Ob9GPtSLeft4iOoRbEhbusATA8QAMUAMEAPEADFADBADF4OBcyOEeOWVQ9FfhNBdl3fnxHyU9tchM8sfLi7u8IhOQ87NehSVWi9Zy0Bnq77E3WXhLuW4InrivN9BwCaLwR2mZKelLCxmMtPuyiWCEFK9oERMqCV/iHnVmKd2Vo15wsJsyhDsbQGQcw1AzNBVVDyqQOgBHhD7tZfvo1sFpnaM0D2o3ZPvQ0gqqjdooQywiBgsLwMLV1nuTjYne2XeIEmdr7Bp+B1P1JFWT+5NwskfeNwcbg794Jwvo2D0PR8Co5uqtAp1MXkM/IEnrTGi+t0QWDKJ15s7eNGZYs7DIu4bJyuChi2lajMxFpdh7015JQwYzrXY0raMvc/RHcxT4j26mkbxzmDEq65kqyS4wn+ktN8SHrSG1giLjVldnI8Kj3bDcexN0Ln8Sd5+4kSzQhuELXeE8TWFm/yBuYYQ83h5JvVg4TMLY3qNZpG4d5T2S6mf9cM5ZxwbLMfM2hQq4oPg4e6LoFQVxh6v83lbfpQflv/lsAS7gj1pK+2YIXuRvYgBYoAYIAaIAWKAGCAGzhID50YICaxQQdGdCWHFGM4tBIkdKqsErvK2dPjbyQ3AVpzxa2AJT7tRPlmFjGtypPGvEoTvepjYDqpTQhG/wgv7T0GZ/VAWQQipvFWOvLkW5HfJkdpeheJHXfy+5PXWogybbF6SK1Gp7UbtvBq5nSVIvVaBgvs3+ESpJepws2Bg257DPnMx3fyKMavdKVbiBfufOXRlQ4M00ZNyLqgej7ZYCMwOXj6awtDoXUy/2OTzSnycbUSIaAlhVo9TfA9esyf3O9vQPriDwbEpPHz9GbMPnvJLlu7JHRLShDlx/cMTmFz4gI0dI768HEOWaBlfcf84WSRaXrBlaHfwYkaDvj5hadxBlO8m6GW2zOE9HnRYvC38brNVpVkJM8I+TLknvuL9+g70W3Mos+MNwttNQvvNNtbfR5GN2MalDu5J0Cq0hd8PSyrL7LrxGrcHLX3oKo81j+VRxtez8B4f9qPXb+DJ3QmM3H2BtXUtGlvumZaYXf+A57eKeOaO0n4p9fP9dI5B0+IOL74J+WL022vovj7JCxivu5LM/ZVqf1beu/bwBLusHL3IBsQAMUAMEAPEADFADBADxMD5ZuBcCCH80rnKeihupFmv+ODhj6D0RMTkJyI88TLcbSbuYrg5N3+Eqmsgf9RhTlhaq+1EmigZqFV5p1CksASrz5WIEOXJsCqzu2pM1fVIuCVmInO8DZVPO1E124gsVRQ8hNVsRJMv1pdLGTnIGFOj4mknqh9fRammAokFwXC1CekR7+uw966KB3z+hekK63wf7H+cUxE020bon6jNQpJQn1diAwYereH95lds6fRYW1rAUEsBgm0m83w9MjeElQ7h0eo2NnU7eP96EYOqFEQ1aHdzh5jytwh1s61XQj0GZtfwbvN3bG5uYnV5EaNXyxF1iOeLW2Q1Bubf4cPWN/PEma0G0rG7Ggi3uxywMKG2t90vdwgXdg1ag5Gv93W3fW8QoQ+Otp9flYfZ2I4Xi/fuCjgzVfZXwOFkXoipm8STtW1s7raL9efFdYsQcpTxZYl/U1oeQPtpB18+b0D7cAhlMV7gXGOhvLeGTzoj3t7K4IWBo7RfSv2CPZmAmV59DR29t3BNXYu04EsQ7CNe0lgo76j9Wfmkm+vQGz6jO9naI0eoi7bn+2JH40vjSwwQA8QAMUAMEAPEADEgMHBOhBBnBJTVQNFfwq/kInTuJLdcYDqKtN2o7k+061XA9i14hFS3WyfHPMl2Ud10cJ8nBphnT/ogW1HnPcQrDp2nPlJf6JglBogBYoAYIAaIAWKAGCAGfi4D50IIYdA4x+SguL8eRcoYXDrA8+O4APOubebDVbKyPfZ1pReEEHvL5x5XO6ien3vAkL1/sr0vV2Nq3Qj9m17EiMK2aBx+8jiIvNbI9mR7YoAYIAaIAWKAGCAGiIGzzsC5EUJY+EBwTRVK++sh71QgrTITCSXpiC9JR3jo/mLFUQaQcwpCIkuSulBmN0REqJOEEDpBCCzQ9nAWOJdEVN+y5EAZ0DzCi41v0OvW0JXita/gSLY93LZkI7IRMUAMEAPEADFADBADxAAxYGHg3AghbFA5p0vwS01DmroCRT0qKPrroehXITna0uFjGfy4QpRru1FxLdLuaiLCPkgIOWa701Ppcy0GcOHXzblZ9IbfsfH+LZ5M9UEe7Wte1UY4tmhLxxYxQAwQA8QAMUAMEAPEADFADByVgXMlhBzVCPQ/OoCIAWKAGCAGiAFigBggBogBYoAYIAaIgYvBAAkh5GVwrr0M6ER2MU5kNM40zsQAMUAMEAPEADFADBADxAAx4CgDJISQEEJCCDFADBADxAAxQAwQA8QAMUAMEAPEADFwYRggIYRgvzCwO6oOUjlSkokBYoAYIAaIAWKAGCAGiAFigBg4vwyQEEJCCAkhxAAxQAwQA8QAMUAMEAPEADFADBADxMCFYYCEEIL9wsBOiu75VXRpbGlsiQFigBggBogBYoAYIAaIAWLAUQZICCEhhIQQYoAYIAaIAWKAGCAGiAFigBggBogBYuDCMEBCCMF+YWB3VB2kcqQkEwPEADFADBADxAAxQAwQA8QAMXB+GSAhhIQQEkKIAWKAGCAGiAFigBggBogBYoAYIAaIgQvDAAkhBPuFgZ0U3fOr6NLY0tgSA8QAMUAMEAPEADFADBADxICjDJAQQkIICSHEADFADBADxAAxQAwQA8QAMUAMEAPEwIVhgIQQgv3CwO6oOkjlSEkmBogBYoAYIAaIAWKAGCAGiAFi4PwyQEIICSEkhBADxAAxQAwQAyfCAOcRjqy6Hoy25sJF5mzeBydzQ0brJNrr8hHsYfmebjjP7w0njS2NLTFADBADxMBpYoCEELr5Nd+YniYwqS10oiQGiAFi4OwywMncEVzQh8frf2Dntz+hn66yEULcoZg28r9tf9KiMz8EziKhhMb+7I49jR2NHTFADBADxMBZYICEEBJCSAghBogBYoAYIAaOjQFO5oqgigd4u2OE/ssKBlXZCPa0c1PoGYb0Og2efzFCv7OB22UhkJEYcmzjcBZuQqmNdo4LOhfRMUAMEAPEwE9h4NQKIb5JD/FvvXqr1/eeVdy87JgLLeccguLcu3jT9hHfunXmevRFmT/FsBf54s7J0nHzoxH6j0NIOuCmNunmOvQ736AzfEZvquVmwCl9BB92fsem3oi1m+k0XnQylMxAnuYr9IY3aAl37Hxhe7z61C7wT6rZk2zhpTd8Qkf8/vVxslLcNpiecAv/sd0+rPWX3Bfbtp30Zzp+Leeik7b1j9bPyTIQMfufKFz9/1AwesvKo4ILm0Xmyn8iq6X45zMXpsaCzgj9xiLqotwP3b9LVDNmN4zQbz9HXcjZsf+Pjh/9n8aaGCAGiAFigBj4+xg4tUKIe3AdRgpvmV+zzV8gRQgJT3+CP3t00DdNQlNkqedmTMShN2UE5I8BKWkipVvB89dGrPak8OPCyVyQ0rcB3ZNFzJEQQqweUQT6USHEPbkRN/uGzK87y7/BUSFE//E5hkX/FdejTL506seUjt8fO//9zOsH53IVCa92hZDnb+AjFp5zN5G/8p9ILA74qcxxMg/karahN+zgbpnj+/Ytn8WGwYj3owVWITQ/0560r7PDPo0VjRUxQAwQA8TAjzJwaoUQ245lFX1wWAhhSdjKK7bxvecJ1N77P8G13Qd9Pp4DStJEyjCP3ltr0K/2IkrmDM4pDb3vv2Gu5TqmDeQRQkwejckfFUJs7Z4+uOW4ELLYggDxhPSIYo5tG37WZzp+j8bczxof8X4Er4/Muf8dBSv/M0KDLNc7z4b/BQUr/yciYy3fif97Uu85l0JoNo3QfxhGkpPj++acMtD/yQj95iSynR3/30n1g+o9O8cBjRWNFTFADBADxMBRGPhhIYRzi0FV3l28bnmL37p0+GfXJ2yq53EvMxdX7NzMsARqoZFXMa16CV3nJowd7/C+ToOOyJADnwJJE0LcUV2lw/eeeTR6Hs8NFScLQfNzI/RPrqGgbRFrX3bw+mEbYj0jUTm5hk+bW1iavoYErx/bH7PPlfwb0Dx5h/dbv2PzyxcsP76DlvwwK/twskAo579Bb1hDW9TefXKh16A1GLE93whf0aTM0foZTFz4db6OTU0JArI6cffFOta3drD2SosxdSb8ROPLeSnx8JCwABYmIA4N4ENjDFqo8nuxwvoR6QxZUj/Wdl5AFd+IOTtCCOcShGTlAKaev8Pbjd/wZWMdS08forMsHpdsbrqltF84eKTUz9vIKRDpLffwZE2HTZ0ea9oHaM28jHw+NOM1mkOsx0aS/WWBUD0xQm+YQ9nlFNRPvMDqugGbW5+x9HAIpZGeP/VJr2AjR7ZHPV44mSci5L24vfgeH7a+Ymt7CyuLM2gviYKbiGOhDZxLCPI6HkD7bgeb29tYfXoPjan+yNUY7IbGSLG/sA+2PW4hhI5fOn6P5fjlvT7+A3Ftr5Cz8v8iIc+bPycwr4zAvv8HBStGBNlcAznXePjVvkXy/f8DuS//A/na/wvpY28QkhBqlZ/Ds/F/RcHrDfgLx13CEnJW/tMqBMet4r+j4NU/ESR64MBFdeKlwYgvEyVWoTri48nee/YAo/A287zavRacMQHRXp/oO7oxJwaIAWKAGCAGTi8DPySEcLIg1FR/xPeeLegapzBZfAsjxSOYb/6If/Zs47M8H97CTRSbWMtcEJb8ADs9Ovx5/Tnmy4YwoZjGm+tb+N7zCYvJ4XASlReDc5gQwiZepTlCCEw/FluZELIGrVz4zrQ9amiMeWL3Zg2PFu5h5MEaPhu+4dnjeSzevw3Nkw1sG4x4dSPxyJNTZp8Q5QI+MQHj0wqmJ8YxNPEIzz/9Ab1BhwfKSCv7+CkXoTMYob0Ws2efV9TL0Bu+4aEy0Pyb1PrNQsLsLO6vf8Lc3dsYnljAy89scv4NL24kmm90OfcMNI5OYJh/PcLSNov3XsO0+TvTb43pXub2mISQl2gMSULXmhFPWyKR0P0RusUWBAa34qmNEMLJ/FEwvgGd4RvWVxYxMabBwNh9zK2xSe/v0HakWItFgpDjQPsZa5LrZzyrl7FlMEK3sYb7E+MYufMcqxsLmJplOSqshRDJ9jcLIc9wZ2oDq0/uY2R0EnefbfD71L/VIM3dWmgRHzOHveciK9G9TwiHKZxjAHImTh1hQnKU44UlWIxoesa7x/P2vD2O4Yk5vFhngt8O5pqirfhnokZ81xp/DGx9eokpzTiG7z7Dyqd5jN/X7RFCpNpf3O/jFkJY3XT80vH7I8cvY8jk9fG/ISKhC0mvWT6QEv545WRpCH/4nyh4rIWX6JrKuSQjZPz/RsHKfyD7/2/vTL+iyNJ1/5dEshgWIAtQljIuZXYxqMwkTgvnAS2kUJBCsKUsRVPBAbQQtFAQ0VQEEQTJJNUylb63+97TfbrPuV3n9l197jk1dPfpW1Vddao4H5+7diSRGTkgGZkOIM8HVkQmkTv2fvdvR8R+4t3ve96CjI8GkHHydyi6PQ397f+N5HTH9XmJ8CjpH8FS4amnC0ZUzVco7v0b9IYT8nVW3P/jDD+h1HDc+bqbfwojFivuHMnWfO3IbBiG2TKBpjzfrjvqMcv9+fvgyb5h35ABMkAGyMB8YMA/ISR0B7obTXhZ8QFWqB+2Alehamcfhg40oTTI8UAjBZehvc6Elx9+jIJQFQCheTBUT2Cq7iw2BTuOVxtobiEkF801jqCoroFWlc++Bku1T+wetaIwWDwYpuDgLSvMfXVIFA+KwWUwCIGg6wPnddoaJpFS2EacGbPCdPcU1kaq7BNZiI/vPYd5rA36MId9pOgKdIio/DN1UOwl6eJReUNE4e/G9mjV8VrLnxESTOO9+DDN4X0QmFCJDuH6bGqD3kN/aXOtv4uqpEDIokj3RRgGrLhWmQBp1WHcdBVCwkpw+HIn2j7ZiVi1N0pILhruCuGlHWUhqvZqrL+ktfwgPU6JPh/txPa4EPtDf2hmPW6YxOTdRQjRan+7EPIE1+tyETozxiRdBPJOPJTFqLZt0fbzKv3v7VYqPovxV3jxmC1PcbLYYU9vyxXH+TJepLBytAiuhi+ibKmK/6WbcUYE3x1vR5ma/7CtuCACMg62oEDliRWcUoPOR+7BUrWOL3V7NQkhs8UI2Z1jFw5lG3H82ibtHL8+jWHh9RFj9/rIxcrL09C3nEawfD86KMcO0Tf/wok5IZyUGv+CrM05Tt4fQcVjKDZOo7h+r70u4fu+gP7WsE0ICSxHWve3yDox5TjHkiPIvv0TcjYn2n8jcz1zXfEk0KvHlKf9VTX34M91x1OZ/E51LdXwPEK70W5kgAyQATLwvjPgnxASthu9jSZYt5fbJ2mvMpgUfxSmRhMGC909GNIK+zDVOIQT8Z4nXnMJIerzijfFb2xpzEAT0uU3ZNHY2WGFuaMCS+TPNq8Gc88hxKpEIXW95tqX1nyCBxYr+mrTnR4sxe+SDw/AbBnH0TUO+wgPhp0dz2C2GGUxQSlfiq3CZxYrHndUOIkymsufERLMV/Y5v1XUhWDTBeGl4jkrhzYhZMYNes0nuG8RniZ92BcbCMW92tusMfqzwg63UalaiqJ4tGitv2JH9dZj+Yk16BEu4IYNTpMK0S97ukRbXIQQzf2rLI1xbpeol5R3SvYcMtb77oGkbt/r3rcLIRrGi7TmBIYsVtw/5p7ZKefYI3f+0xtwx2LFSHOp03iRdFHYIcamC59a+VfbRIsQ4popRvlsbt8lT1KVcjl+HQ8YHseXj9cfxb7qrcfyF/j4lXRrbF4fn/UiUheMpfXfQt83Ii9ZVGKHqDPGSLpSJHdOQ3/xvNv9WkrvQaFxGkWHd9rHUnjF/4L+5qAshOiy+lHU9xjxO38J/bmz8jK1wFITSu78EnEqsV3YXBFYKYQ4+FazyH3ahQyQATJABsjA/GDAPyFEF4+qinF5WcvgrtNoLq5GVdZmlCWkIFr1xl7pbCn5tJzJZbzipD0bjJIZpqViAFON4zg/iyv+ohBCSlvlJQ/3r52xZ6tQMk6cvDYqL/84XeoQQoRdI3d2yUtyrn/oyIazfH8PTJZnaN/hnKpT0li+IiSMi4m+y5ukV00MtQkhgziUKoKkZqOy7Ro+bd4pexdJabZJrqsQEpqyA42Xjbg//lReEqFMMsXWbeI7M5HSUn9N5Wcfl8Ub1zoKW5WeEcKMixCi1f52j5BObFF5QojypeQDuHTrHjoP2rLtuPbPu/7skxAyY5/e6hQ33pKq77jxL8244N9tcLeBp2CpWvlX2/BVvCvHKelzzRqCpXL8qtMTOwurvlx/FtP4lYJnvD5ONcleH0Hlv4Te+EesFCmjZzLGZKsyxkgJbVhnnEbJ5UmkHupz/B0eRW7XD9Df+RKp2Y6sRuF7/xn63gFE60IQXfs1SppqEFo+JQspIboliPnFdyg90+wk7omxQCFkfjzcKdclbtkfZIAMkAEyQAY8M+CXECIbNWwtqja2w1g9hM8bHEtTXtbdgCEl3vlNeYpBFkKUZSquWxFr5IKHwJ/iPItCCNGfk0UN9eRevW+2fI7TemchRIrajUtmK8y9NYiTPVOWo+Lac5hNXdga5XKsxvJ9mYiIvtImhAyhJs25nnIZHoQQKXY3Lo2KN/1m9H3aiuOq+BZtd9w9VLTWX3P5Occx6LJ8Rx4TAUGwTcRdhBCt9n+FEKKcZ75ufRJCZuwzuxDizL9mIUSj/dW2fVNCCMevLUUxx6/nG7SaQdd9Keky8ozTKDy4WRYOpdTPUGCcRvaG5Qiv+INbxpiAokdyOt2yu/8F9Z++/1sUXrIiRb/W6X4dtuf30PfcRVTgVqRd/zsyi6IRtPkF9O2XEBZcgYzen5G7xSHAK/WTis5gzGLFTQ+ejcoxs22Ta4XnowUnitzvCbP9ht9rZ4c2o83IABkgA2SADATBfyFE7SkQGImY6AzkpVbj6iETpupaUa4K5qh4hPTmxrq98Z2rMxaFEDLzRrxzf5zX9pF00dh2WcRDuIX9YknJ0n24MmnF+OXd8pIdtV2VN+Lelq9VSFDO9aaEENtD8nNcP5jmtO5dnNejB4BGjxDN5Wcdw4CHpRwisOCG80KYcRFCNPavyCxizxrj4hGi2Nqf7VsJlqplacxb8gjxln+1bd+YEMLxK1/rOH61P5Apwkb2xhU2ISSoGpm3bMtbljV8D73xhVPGGJs48i3Scr0TGcJ2/w76G7cRlWNEUd8ElocGImijFfqOToTn3kXRnV8jfpl7WVLu8Zklbnle38eUsZbbJJbAPUJDjnu5yjHcameFNqPNyAAZIANkgAy4M+CXECIFRiMmIhZLQxyBIhUjpxbexFTjID5RxfxQYoQMF2VqfkBaFELITAwJrZlnIrZ2yEtqrn4Qj6idXTBZnuKihyCaSowEb8ufb0JIwalJ20NytvNDsqSLxPZPRXBS/1zrNZe/1Jbi19T1gXN2pIAs1Ivgra5CiMb+feNCyNsIlqpFCJkzRsgYGlWTOCmjEUaPMUIiXxkjxFv+lWuZ2L4pIUSUzfHL8atmzdt9m7DxNVIybNdDSZeKxPPT0LfdQLLBPWNM9OG/Qm/8E1bNsvzU9byhu/8R+u7bWHn4zyhtqpEzNgVu+Bz6zm4kHPoK+laD27IYUYa0/ACuikxaHRVO10XX8l0/i5g5uzvFdbwXe2Ocr/Gux/Kz+8McbUKbkAEyQAbIABnQxoB/QkhMLYYbTXiyfYvTA48IVrhlq0irew8fxzkeaOSsMR+ZMHXIgA3hwXYxRApMQc3u+zDXnsMOlQeJujNtwVRHcSElzP479f/V+74ESw3NrsGV+5MYHexGlWqdtFKuL67+ym+93cpZLUTWjKHzKF2qsk9IKqquPMKDh5dR7rLcRZQtRWxHm8kK05Uq7Dn3BGZTBzapsmgo59davu9CSAoO9btncVHqoWxt6XO9XxqT8GG/nCmlty7Lnq5RpERdktOA6+P+CyGay9clo6pXxAJ5hPaqIsRHhSNsWQY2NHXj7kMP6XNF1hgN/fumhRClH97E1pfxMnfWGJesSUrWmCHXrDEH0eWJB432V9vFFqx4EoYyR/Yk9f/Fvi8xQuTfcfxy/Ko9KwOCMPf9KBTLm36E3vgSsaprfVTNN9Df/iPyRVDUU8ecPOfkLDDGn7Bmz1p7GmpxrwwpGkb+ze+w7sB6p6Uxobt+C33nf0fu1b8js9iWnSpw/VPor7xATuc0cre5x/KxjYNM1Akh2HQV21wCqbqOGfVnadledIgsUMYGJPsYcFxdHve1PQzSXrQXGSADZIAMLDYG/BNCAlJQu39MDnI6tu8cWtYfQ/P6ZnTsG4BVZJOprEW6KmiqmLSuyu2ARaTcPdyHa1tOwLCpFTerR+UyBsvynbKTqDsjaMVhDDaY8LL2Oi5tPKYKtrpdzuKiPtYXIUS88VXicQwdL3QTW3zCdoDBAAAZT0lEQVSZ2Knr5M2+sE9SRTdGxNu00QFcOnsGx09dQteARQ4U2XesyG25iyhXeESUtz2F2TSKgRErxi5uR7iHB0mt5fsuhIRgdcMgTJbnGLrZgdOnzuKk/GfA9lSHMKZVCJGWluPciPC0eALjtXacbD6Lsx0DGB7rRMtl4S3in0eI1vKF7UOy69H72GpnRzA01vsRDrV6CJaqsX8XnRCiC8aqyhsYVfF/4mwnbo4IkWsSV/al2CdwNu5DkXlkQA6a+3i4HxcNBpxs7cadkWu4eMVD+lyN9leP2cDMBvRNWmEa6UfLyZOqYMa7kWJPa7wZLSLz0Wzpc5tOYE+OIxilUj7HL8evwoKynft+lIOkS9PQf3bT6SVEYJkFeuO0HAOk4MONTvcxaUUzcvumoTd+i3zDKNLqBrH67J9QcmcapZeNiHYR2UN2/gb6vu9ResskL4sRdQsQ5fd9jxLjPyDhFV4bCVW35HhXd0+WeLwXKe1UtuLlSUGzSAn+DFcrk5zqrRzDLR/QyQAZIANkgAyQgdfJgF9CiFyR8BzsL2vHvepBPD1iwtSRUZiqe3C1bA9ywt07S4gUSak1aKu4DXP9OJ7XDWB43zk0rc5CtIfJu9JYSReChOTDuFJ5D5P1E1ACrU41tmCTy+98EULC1tSja8iCR0O9OLgmwu1B7G0IIaKtki4MCevrceazITyYeIax0VH0X7+M+h05iAxwiAiKXZRtePlljMvpZ5/iXHmkW/2V47SU76sQIrcjNAWbjl3DreFJewBYs+UpThY72qBVCBHlhiZtxkcXb8H4cBJjY4/Q33UGe7OjUSgvm/FPCNFavmLToNg8bKlqQH1jA6p2lSAuLBC2dJ3OMUJku2jo38UmhNjsE46VGxvRcv0Bhiee4vHEYxi721G7IcWzG35QPIrrLqFncBLjJhMGei/hw/wVHmPGaLW/0r+234UgrrQBF26O4KHpuV34MlvaUeYihCiCqqftp7udMzkp5+D49V/IFLbUcn1QbD8fx++c96PAKmT2T0NvOG73jpM5TbwkB1AVwVCzNy53uw8EpR5H2ukvUHTzR5Tc/DPyL00hvaIGS5Y4rsuKXUJ3/oMsqCjLYuTv9ZPyd0oKXeVY160UnIv620IMnsCVg+sQ9Yp7lxSwDNkHbS8AHt9qRHqwe11cy+dn92cr2oQ2IQNkgAyQATKgjQH/hRAXl152gK0DRBDTvAO2jAhKClyP2wNFs3rB0JbaYJ4v9hJC3KaLwovBFsB2vtSL9ViYPLHf3m6/cfy+HnsHxG6FYUCIIc/xoOcCatcnOy29ER6KCWUNMPSMy15d4/fOYX3s6zk3xwztSAbIABkgA2SADMzFAIWQNyTkKB4knt4Kq78z9xxCrItHy1ydxv/P74EtRW2A4aEV5rFWFATx7SZ5nd+8sn+c+4fj19ke/vAhRazG9qbrGBCxP9p3OXl1Ce/ELe0ilsgIOpr2IFUV68Sfc/K3r6//aEvakgyQATJABt5nBiiEvCEh5H2Ghm1zXBSF58/aSofnT1PzRVy9L96CPsX1g5lOMS1oN4fdaAvaYj4wwPH7djgMjFiFnNWJTtdDkWY8bnU+4iMcgcHnAxOsw9thgnamnckAGSADZOBdM0AhhEKI2zrydw3lQjq/pIvD/m5HsFTTxDiMvZ1o2JrpVZDAhdRW1pU3rPeNAY5fMv2+Mc32kGkyQAbIABkgA94xQCGEQgiFEDJABsgAGSADZIAMkAEyQAbIABkgA4uGAQohhH3RwE511Dt1lHaincgAGSADZIAMkAEyQAbIABl4nxmgEEIhhEIIGSADZIAMkAEyQAbIABkgA2SADJCBRcMAhRDCvmhgf58VTbaNij0ZIANkgAyQATJABsgAGSADZMA7BiiEUAihEEIGyAAZIANkgAyQATJABsgAGSADZGDRMEAhhLAvGtipjnqnjtJOtBMZIANkgAyQATJABsgAGSAD7zMDFEIohFAIIQNkgAyQATJABsgAGSADZIAMkAEysGgYoBBC2BcN7O+zosm2UbEnA2SADJABMkAGyAAZIANkgAx4xwCFEAohFELIABkgA2SADJABMkAGyAAZIANkgAwsGgYohBD2RQM71VHv1FHaiXYiA2SADJABMkAGyAAZIANk4H1mgEIIhRAKIWSADJABMkAGyAAZIANkgAyQATJABhYNAxRCCPuigf19VjTZNir2ZIAMkAEyQAbIABkgA2SADJAB7xigEEIhhELIe86AFLYSBXsbcaq6GEG6QHt/S7oQ5FW34vDeUsSFOb7nxdO7iyftRDuRATJABsgAGSADZIAMkIGFyQCFkPdkEixF7kLyqd9gbXMXoiM4qeUFKQiSLhRx+iZcHfkck09ewNy2w0UICUV5m1X+38TDXtSXJiBQJZTQhgvzos5+Y7+RATJABsgAGSADZIAMkIFXM0Ah5D0RQgLLnqDs7n/Jf1ll0fa3/hwArx4A76t9JF0wYrddxv1JK8xjRnxSUYi4cA+2CE/Cur0G9IxZYZ4cRcuWBOgohnD8vCfXxfd1fLNdHq5lZJbXLTJABsgAGSADZEADA/NWCInO/hS/PGp2+ptqvItfrPDO20EKTMCG4vO4d3AYzxtM9nLM6/N9BkSKPYd1xmm74CCEB33/tyjq+DUy9x9EWIh3dXsTD7FS3FFkdX2Hkq5JxHppI2/rIek2IbV7GvruPkS+w0mypPsQmS72V8QfZZuzOdbn/vXWHv4e91bsmVSFayYrzKPd2JsSOqdNglIOoGPUCvNED/YmcJLhbx/z92SIDJABMkAGyAAZIANkgAzMXwbmrRASGrcXzWXH7H8dB8agRQhZue4zvGg0wVzZCsN6Rzm/SFs156RwNmAVIaS04wlSD/XZ/upGkf3pf8jiSMm5NoQHvzsxZLZ6+/v9W5m4e6HeKUKIvvtXSFfs77KNz4jyuX/9tZO3v3/T9pR0YSg2TMBsmcT5LTFe2yN6awdGLVYMndI7LaHxtl08bv5e6Nk37BsyQAbIABkgA2SADJABMuBgYN4KIa6dVLD+gddCiAgCuXXbBKYaP0NV5OsTJuxCSEOl0+RSClyFFU3fQG/8EdmbEp3+59qOhfj5TU/cvbWJXQhpPYOQd+iZ4m19ZzvuTdtTCiqDYdwK84OTyA7wnn8pIA8fP7TCPN6KwkDvfzdbO/m940JLW9AWZIAMkAEyQAbIABkgA2Rg/jDgtxAihaRhR8l53PnwPp4cMeHlkYcYr+rChfxixHuYTIkAjonJh9BW0Q9T/TisdYMY2mtAXXLCK99CaxNCQrFzhwlTjV34INy7CV1E/jF0D1vw6GEf6vM9x9iYTQgRQEuZvSgyTqO0oRKSapIu6cIRmncZma1/RFHfjyjt/QZ5Zx8iKS8DAarjlEEhBSQievco1nT9DaX9/w+FbSaszEnCsoYfoDf+HomxjvYoE2plWYiyfdXyECk8DyuqzFh75SsU909DL87R8Wtk7KlAaJCq7CVHkTPHMhRxPtdzaWmvpEtEQss09MbPsSJmPRKO/k/k3/geJX1fI6+5DysSI51EJS1CiKRLQPyZn6A3/guSkhztsts57ry8zKnUcNKJO031j79oK6PhAIJzPkVW27+juO9bFH76a2Ts2oJgFf+Sr/b0sr+UdsksptSj32LF2NmNmoKfCgGxrOUJzJYBHEx2t5n6HNyfPxdx9gX7ggyQATJABsgAGSADZIAMaGPALyFE0sVi185hTDU+humDi2jdcAzNG5rRdWAYLxsn8GhTqVNMCUkXhKScy5hsNOFFbQ+6tpzA2fI23Kt9jKnGh+jOWelRHBCdOpcQIia+m4uUJTAfo7taCCED6N2kfGfbzrY0pqDZJGfPENk1RppLnCbgClTeCCEl9RX234qAlaHlL1AsBJLr/4SsowNIO/oUa6+LCfrfkF2e7RSYUtgnbNdvUGqchr7nC2QfvY/0pl+hoOcFsk55EkIyEPPBzBKdQ31IM/ybvETHVZyw11+3CrEn/wq98ScUXbQg/XAfUg8PIbv9ryg1/oyC+v12UUAKKUdC/SDS5b+nyLs1Df2tL5Bl/872v4Qsh2ikvb2KEPLfsPr4VyhomUB6/QNknf/SZoOrdxGliruiRQgRbQ4un5LLWVex1t4nii1Cd/1WtkPOZocHj+b6K0LIqUlk3/hX5DYNIf3oC+T3CnHnJ6yrLLH3r2/29L6/lHaJrZR/CiMWK+4cyXZrt/o4T/uZDcMwWybQlEchxJN9+J22GwztRXuRATJABsgAGSADZIAMzEcG/BNCQnegu9GElxUfYIXKu0EsFana2YehA00oVXsZBJehvc6Elx9+jIJQFRCheTBUT2Cq7iw2zRJjY24hJBfNNY6gqK6BVpXPswVLDcuuwaX+Edzr70JVdoTHCeRsQohtacyfoTf+gOwNqol1aBUyxaT4yh1ELXG0V1qyDWlXfoa+dwwxoY4JpxS4F+ni+N5niF3uCHAZkNKBdf0/u3mEuAIVtPnFq4WQGa+E0lYDQlRLJqTAHCSc/BfkXerHUpXwoJSveJ7MFSxV0tpeu0fI37H2g/V2EUzSRSP68P+VxYTsMkeMC7sQMluMkM16u/Ag6i5FNiHn9jT07ZcQpuZTl4rE89PQ355CrGrplOb6K0LIzf+BpFUq75XYZuTcFMLRGGJU/Gu2p6/9VXwW4xYremvSPHKs1MPTdlXNPZgtT3Gy2MGlp+P4nWM80xa0BRkgA2SADJABMkAGyAAZWFgM+CeEhO1Gb6MJ1u3lCFVNNGeDQIo/ClOjCYOF7hO0tMI+TDUO4US85wnYXEKI+pxi+Y3WpTHq38+2bxdCZgmWWnzuAsJVE19luUze/jy3CWn4/i+gN/4ZKZmO9kpx57F2ZnmNOoWp8LyJNwgvA+elMa71nFMIiTyOXFH+8cN20cG1DE+fvRZCZpYHed1euxDyOyS6ZLqRsm/LnjQFBxzeOYoQoiwBct3qTxxxFkJ0sYg7/Z/QG/8ZiXEqO8cYsEbY4VST3QNGtFtzf80IIXrDcedydGFY/rHw+vkDkjzw7LU9fe0vCiFu480T1/xuYd2s2F/sLzJABsgAGSADZIAMkIHXxYB/QoguHlUV4/KylsFdp9FcXI2qrM0oS0hBtCo+glJZKfm0nMllvOKkPRuMkhmmpWIAU43jOD9LbIL5JIS4TcDvfImcqo+wxCUeiZQ3LC/NKDx735FlZibLSfrZr6A3/icyVEsQpPQeFBqnUVi9yW0it6zxR/+FEF0aElpEOX9D3qlhpB5oR8LGWixdvRZBKgFH6S9l6/XEXWt77ULI51ih8owR55USTyP70h+Qu6fMbgtFCNFrCJYatPG53Adrd2fZywnZ9ivZ9tkbnFPtau4vxSPEJXiuqH90rViC9K9YleIQYDTb09f+ohBi72vF5tzypkkGyAAZIANkgAyQATJABsiAwoBfQohcSNhaVG1sh7F6CJ83OJamvKy7AUNKvPMb+hSDLIQoy1RctyLWyAUPE0dxnvkkhIiAqKJOkm4FVpz4DnrjvyNldZjb5EvKfyhPwl2FE+WziCORke+YKEsZtoCrHoUQD8FSlU5UtnN5hMjHRZYjoe4Z1nb+BSW3p+WlNKI++t7fIa0gzSnQq1Ku10KI1va+QghRzq3e+iKESJGNyBbLYy6cl72WRIDW+LM/Qd//HLERDtuL82jurzcshMht96W/is5gzGLFzdp0NybV9vS0n1w7ALPFghNFzrbxdCy/442EDJABMkAGyAAZIANkgAyQgYXIgP9CSICq4wMjEROdgbzUalw9ZMJUXSvKVW/6FY+Q3lznN/HeGG4+CiFyvdNvIF9eZnHMaXmE+J/iYZC7LdmrCamU1o0C4RFycIvT8SKbR0yTWGrh39IYVztLQUsRHFeIqKI2ZH8mYpNMYPkS9wmw10LIjEeI1+19G0KIbjlim4UXzG+RsDwQUtRx5N6ZRsnJRreMKpr7620IIarx5XV/5R7HkMWK+8fcl2S5MuD6ObfpEcyWR2jIcefA9Vh+Vl37VP1Eu9AuZIAMkAEyQAbIABkgA2RgfjPglxAiBUYjJiIWS0NCnCbuotNTC29iqnEQn6hiJCgxQoaLMt2OnwuU+SqESLqViDeIjC5/QnKqI8CpaI8ScyK/stir9kpRJ+QYHnrXlK4BxUi+8hpihAQvR/CyZASFu3uvhO8TMUu+QUqG+wTYayFkJkaI1+19C0KI6IegMovsmZO7PRW2pTI/IqtsuVufaO6vNyyESL721/IDuGqxwtRR4ZS1aa4xJumWYXfnc5gtvdgb487BXL/n/+f3xZ79w/4hA2SADJABMkAGyAAZIAM2BvwTQmJqMdxowpPtW5wmXJIuClu2irS69/CxOkilyBrzkQlThwzYEB5sn4hKgSmo2X0f5tpz2KHyIFF3ki2Y6igupLhP4tXHiX1fgqWGZteg7dZD3O3v1Jw1Rpd7F0XGaZR88pGTV4ichURkD7k2gmVRDrFICl6DRMPXKLpuwgrV8gxJl42kNhHc82tk79qB0IhIBEbnI+bQFPKvv4YYISs7ZO+V4uN1zvXULUdM03/IS3yS09wnwJIuFysvT0PfN44YD1llFPtrb6+SPtc9RohSpnrry9IYmYcldci+NY1SgwHxTX+H/pYFy13iucjHiaw3WvrLZyHES3v63F+ZqLtrhdl0Fdui3ftTbVP1vrRsLzpMVpiNDUj2Ivix+rfc502VDJABMkAGyAAZIANkgAyQgYXCgH9CSEAKavePyUFOx/adQ8v6Y2he34yOfQOwimwylbVIVwVNlXRBWJXbAYtIuXu4D9e2nIBhUytuVo/KZQyW5SNilglY0IrDGGww4WXtdVzaeEwVbHU70l1+44sQUtBswuSTF/LfSLMjU4m6I+1ZY1yCY0q6TCSe/wn6O19g5UqVwKMLRtiWKTn7ib7nC2QfHUBa/QRyu76H3vgj8g7ucFueEZDWgXV9jtgdIn5H6cXLWHnMXQiREg8jeSb4auqhPqQZ/k2O+VFgGFAFZzUgMsw2GZYC1yLp/N/lcxe2mpBe24fU2kGsPvclSsTynvYOhKv6S2m7sGdk1R+hN/6MorZJZNQPIl3+u4fYlY6JtqSxvSJeR0KL8HTRKITMlj73UB/iM6LsApuj/kux4pMfoL/1JQqvi6w5dW52F8dqrr/PQoiX9vSxv0RbEqpuYcJixd2TJQh3GR+KXdRbIV4WND+E2fIMVyuT3GyoPpb7vMGRATJABsgAGSADZIAMkAEysJAZ8EsIkRsenoP9Ze24Vz2Ip0dMmDoyClN1D66W7UFOuDscYlKdlFqDtorbMNeP43ndAIb3nUPT6ixEv2LCJuJkJCQfxpXKe5isn4ASaHWqsQWbXH7nixASUdCE6w8tGHvYj/qCaI8TwdmEEGGHwIIRWfAoPnbQaZIt6ZYgtKADGS3/B0V9P6K09yvknzMheYMeQQEOEcEJophyrNjZieSqTiRu3I3Q0EDEHBWeIs4xQqS1g68MxioHQTX+CvFqr4CoDYg79AzrOr+Rg6Xqb3+Los7fI+vQJ4iMcog4TvURIkFIDpYffIG87u/s59Qbf0D6Wuc2aGmvr0KIEmzW0zZns+f4M4GlJrneos6rS5d67F/RZk3191EIkc/jpT11vvZXcC7qbz+D2TKBKwfXIWo21kSbA5Yh+2A3RixWPL7ViPRg5z51ZYGf3a9rtAltQgbIABkgA2SADJABMkAGFg4D/gshDBI466T6dQ0ESReG5cd/ht74GyQwdsMbt/fr6rd3XU5A7FYYBoQY8hwPei6gdn2ycxYnXRASyhpg6BmHyWLF+L1zWB+7cC5e79q+PD9ZIQNkgAyQATJABsgAGSADC5MBCiELQMiRIiqRcV1kdXmAaA9LVzj4Fubgexv9JkWsxvam6xgQsT/adyFY5T0lBLYt7SKWyAg6mvYgVRWv5m3Ujecgt2SADJABMkAGyAAZIANkgAy8CwYohMwzIUTSxSBqe58jxsdHj7DmqogP8gPW7ilweqP/LoDhORfmhSowYhVyViciwEkICUbc6nzER8y+JIr9vTD7m/3GfiMDZIAMkAEyQAbIABkgA7MzQCFk3gkhyUhodQRLLe37CwraniGlrMAp9gihnh1q2oa2IQNkgAyQATJABsgAGSADZIAMkIHZGKAQMs+EkNk6it9zEJMBMkAGyAAZIANkgAyQATJABsgAGfCfAQohFEIYfJQMkAEyQAbIABkgA2SADJABMkAGyMCiYYBCCGFfNLBTOfVfOaUNaUMyQAbIABkgA2SADJABMkAGFjoDFEIohFAIIQNkgAyQATJABsgAGSADZIAMkAEysGgYoBBC2BcN7AtdtWT9qbyTATJABsgAGSADZIAMkAEyQAb8Z4BCCIUQCiFkgAyQATJABsgAGSADZIAMkAEyQAYWDQMUQgj7ooGdyqn/yiltSBuSATJABsgAGSADZIAMkAEysNAZoBBCIYRCCBkgA2SADJABMkAGyAAZIANkgAyQgUXDAIUQwr5oYF/oqiXrT+WdDJABMkAGyAAZIANkgAyQATLgPwMUQiiEUAghA2SADJABMkAGyAAZIANkgAyQATKwaBigEELYFw3sVE79V05pQ9qQDJABMkAGyAAZIANkgAyQgYXOwP8HgeaQGVpsGpMAAAAASUVORK5CYII=;" vertex="1" parent="Hp2LMigl68Y7-yu4LN-_-1">
          <mxGeometry x="920" y="211" width="240" height="31.05" as="geometry" />
        </mxCell>
        <mxCell id="Hp2LMigl68Y7-yu4LN-_-37" style="edgeStyle=orthogonalEdgeStyle;rounded=0;orthogonalLoop=1;jettySize=auto;html=1;entryX=0.5;entryY=0;entryDx=0;entryDy=0;" edge="1" parent="Hp2LMigl68Y7-yu4LN-_-1" source="Hp2LMigl68Y7-yu4LN-_-34" target="Hp2LMigl68Y7-yu4LN-_-36">
          <mxGeometry relative="1" as="geometry" />
        </mxCell>
        <mxCell id="Hp2LMigl68Y7-yu4LN-_-38" value="self:OnInit()" style="rounded=0;whiteSpace=wrap;html=1;" vertex="1" parent="Hp2LMigl68Y7-yu4LN-_-1">
          <mxGeometry x="990" y="296" width="100" height="30" as="geometry" />
        </mxCell>
        <mxCell id="Hp2LMigl68Y7-yu4LN-_-39" style="edgeStyle=orthogonalEdgeStyle;rounded=0;orthogonalLoop=1;jettySize=auto;html=1;entryX=0.5;entryY=0;entryDx=0;entryDy=0;curved=1;" edge="1" parent="Hp2LMigl68Y7-yu4LN-_-1" source="Hp2LMigl68Y7-yu4LN-_-36" target="Hp2LMigl68Y7-yu4LN-_-38">
          <mxGeometry relative="1" as="geometry" />
        </mxCell>
        <mxCell id="Hp2LMigl68Y7-yu4LN-_-40" value="" style="endArrow=none;dashed=1;html=1;rounded=0;exitX=0.5;exitY=0;exitDx=0;exitDy=0;entryX=0.5;entryY=1;entryDx=0;entryDy=0;edgeStyle=orthogonalEdgeStyle;curved=1;" edge="1" parent="Hp2LMigl68Y7-yu4LN-_-1" source="Hp2LMigl68Y7-yu4LN-_-9" target="Hp2LMigl68Y7-yu4LN-_-6">
          <mxGeometry width="50" height="50" relative="1" as="geometry">
            <mxPoint x="170" y="461" as="sourcePoint" />
            <mxPoint x="220" y="411" as="targetPoint" />
            <Array as="points">
              <mxPoint x="205" y="451" />
              <mxPoint x="170" y="451" />
              <mxPoint x="170" y="461" />
              <mxPoint x="205" y="461" />
            </Array>
          </mxGeometry>
        </mxCell>
        <mxCell id="Hp2LMigl68Y7-yu4LN-_-41" value="" style="endArrow=none;dashed=1;html=1;rounded=0;" edge="1" parent="Hp2LMigl68Y7-yu4LN-_-1">
          <mxGeometry width="50" height="50" relative="1" as="geometry">
            <mxPoint x="1550" y="46.41" as="sourcePoint" />
            <mxPoint x="1610" y="46.41" as="targetPoint" />
            <Array as="points">
              <mxPoint x="1610" y="46.41" />
            </Array>
          </mxGeometry>
        </mxCell>
        <mxCell id="Hp2LMigl68Y7-yu4LN-_-42" value="进入函数" style="text;html=1;strokeColor=none;fillColor=none;align=center;verticalAlign=middle;whiteSpace=wrap;rounded=0;" vertex="1" parent="Hp2LMigl68Y7-yu4LN-_-1">
          <mxGeometry x="1610" y="32" width="60" height="30" as="geometry" />
        </mxCell>
        <mxCell id="Hp2LMigl68Y7-yu4LN-_-43" value="" style="endArrow=classic;dashed=1;html=1;rounded=0;endFill=1;" edge="1" parent="Hp2LMigl68Y7-yu4LN-_-1">
          <mxGeometry width="50" height="50" relative="1" as="geometry">
            <mxPoint x="1550" y="72" as="sourcePoint" />
            <mxPoint x="1610" y="72" as="targetPoint" />
            <Array as="points">
              <mxPoint x="1610" y="72" />
            </Array>
          </mxGeometry>
        </mxCell>
        <mxCell id="Hp2LMigl68Y7-yu4LN-_-44" value="&amp;nbsp;基类调用/多态" style="text;html=1;strokeColor=none;fillColor=none;align=center;verticalAlign=middle;whiteSpace=wrap;rounded=0;" vertex="1" parent="Hp2LMigl68Y7-yu4LN-_-1">
          <mxGeometry x="1610" y="62" width="100" height="18" as="geometry" />
        </mxCell>
        <mxCell id="Hp2LMigl68Y7-yu4LN-_-45" value="" style="rounded=0;whiteSpace=wrap;html=1;fillColor=#ffe6cc;strokeColor=#d79b00;" vertex="1" parent="Hp2LMigl68Y7-yu4LN-_-1">
          <mxGeometry x="1560" y="93" width="40" height="19" as="geometry" />
        </mxCell>
        <mxCell id="Hp2LMigl68Y7-yu4LN-_-46" value="UGCGameStatic" style="text;html=1;align=center;verticalAlign=middle;resizable=0;points=[];autosize=1;strokeColor=none;fillColor=none;" vertex="1" parent="Hp2LMigl68Y7-yu4LN-_-1">
          <mxGeometry x="1610" y="87.5" width="110" height="30" as="geometry" />
        </mxCell>
        <mxCell id="Hp2LMigl68Y7-yu4LN-_-47" value="" style="rounded=0;whiteSpace=wrap;html=1;fillColor=#f8cecc;strokeColor=#b85450;" vertex="1" parent="Hp2LMigl68Y7-yu4LN-_-1">
          <mxGeometry x="1560" y="121" width="40" height="19" as="geometry" />
        </mxCell>
        <mxCell id="Hp2LMigl68Y7-yu4LN-_-48" value="LetsGo.Script.Model.UGCEditor.PathModel.UGCPathModel&lt;br&gt;" style="text;html=1;align=center;verticalAlign=middle;resizable=0;points=[];autosize=1;strokeColor=none;fillColor=none;" vertex="1" parent="Hp2LMigl68Y7-yu4LN-_-1">
          <mxGeometry x="1600" y="117.5" width="340" height="30" as="geometry" />
        </mxCell>
        <mxCell id="Hp2LMigl68Y7-yu4LN-_-49" value="" style="rounded=0;whiteSpace=wrap;html=1;" vertex="1" parent="Hp2LMigl68Y7-yu4LN-_-1">
          <mxGeometry x="1560" y="152" width="40" height="19" as="geometry" />
        </mxCell>
        <mxCell id="Hp2LMigl68Y7-yu4LN-_-50" value="LetsGo.Script.Model.UGCEditor.UGCDSLoadMapModel" style="text;html=1;align=center;verticalAlign=middle;resizable=0;points=[];autosize=1;strokeColor=none;fillColor=none;" vertex="1" parent="Hp2LMigl68Y7-yu4LN-_-1">
          <mxGeometry x="1600" y="152" width="320" height="30" as="geometry" />
        </mxCell>
        <mxCell id="Hp2LMigl68Y7-yu4LN-_-51" value="UGCDSLoadMapModel:LoadUGCMap(properties, LoadUGCMapFinishCallback)" style="swimlane;" vertex="1" parent="1">
          <mxGeometry x="-726" y="-1024" width="2280" height="820" as="geometry" />
        </mxCell>
        <mxCell id="Hp2LMigl68Y7-yu4LN-_-52" style="edgeStyle=orthogonalEdgeStyle;rounded=0;orthogonalLoop=1;jettySize=auto;html=1;" edge="1" parent="Hp2LMigl68Y7-yu4LN-_-51" source="Hp2LMigl68Y7-yu4LN-_-55">
          <mxGeometry relative="1" as="geometry">
            <mxPoint x="549.28" y="165" as="targetPoint" />
          </mxGeometry>
        </mxCell>
        <mxCell id="Hp2LMigl68Y7-yu4LN-_-53" value="nil" style="edgeLabel;html=1;align=center;verticalAlign=middle;resizable=0;points=[];" vertex="1" connectable="0" parent="Hp2LMigl68Y7-yu4LN-_-52">
          <mxGeometry x="-0.1615" y="-1" relative="1" as="geometry">
            <mxPoint y="-1" as="offset" />
          </mxGeometry>
        </mxCell>
        <mxCell id="Hp2LMigl68Y7-yu4LN-_-54" style="edgeStyle=orthogonalEdgeStyle;rounded=0;orthogonalLoop=1;jettySize=auto;html=1;" edge="1" parent="Hp2LMigl68Y7-yu4LN-_-51" source="Hp2LMigl68Y7-yu4LN-_-99">
          <mxGeometry relative="1" as="geometry">
            <mxPoint x="270.27999999999975" y="260" as="targetPoint" />
          </mxGeometry>
        </mxCell>
        <mxCell id="Hp2LMigl68Y7-yu4LN-_-55" value="properties" style="rhombus;whiteSpace=wrap;html=1;" vertex="1" parent="Hp2LMigl68Y7-yu4LN-_-51">
          <mxGeometry x="160.28" y="140" width="220" height="50" as="geometry" />
        </mxCell>
        <mxCell id="Hp2LMigl68Y7-yu4LN-_-56" style="edgeStyle=orthogonalEdgeStyle;rounded=0;orthogonalLoop=1;jettySize=auto;html=1;" edge="1" parent="Hp2LMigl68Y7-yu4LN-_-51" source="Hp2LMigl68Y7-yu4LN-_-57" target="Hp2LMigl68Y7-yu4LN-_-117">
          <mxGeometry relative="1" as="geometry" />
        </mxCell>
        <mxCell id="Hp2LMigl68Y7-yu4LN-_-57" value="LoadUGCMapFinish回调 loadmap失败&lt;br&gt;" style="rounded=0;whiteSpace=wrap;html=1;fillColor=#f8cecc;strokeColor=#b85450;" vertex="1" parent="Hp2LMigl68Y7-yu4LN-_-51">
          <mxGeometry x="552.28" y="140" width="151" height="40" as="geometry" />
        </mxCell>
        <mxCell id="Hp2LMigl68Y7-yu4LN-_-58" style="edgeStyle=orthogonalEdgeStyle;rounded=0;orthogonalLoop=1;jettySize=auto;html=1;entryX=0.128;entryY=1.011;entryDx=0;entryDy=0;entryPerimeter=0;" edge="1" parent="Hp2LMigl68Y7-yu4LN-_-51" source="Hp2LMigl68Y7-yu4LN-_-99" target="Hp2LMigl68Y7-yu4LN-_-57">
          <mxGeometry relative="1" as="geometry">
            <mxPoint x="570.28" y="190" as="targetPoint" />
          </mxGeometry>
        </mxCell>
        <mxCell id="Hp2LMigl68Y7-yu4LN-_-59" value="#&amp;gt;50 or ~=table" style="edgeLabel;html=1;align=center;verticalAlign=middle;resizable=0;points=[];" vertex="1" connectable="0" parent="Hp2LMigl68Y7-yu4LN-_-58">
          <mxGeometry x="-0.3967" y="1" relative="1" as="geometry">
            <mxPoint as="offset" />
          </mxGeometry>
        </mxCell>
        <mxCell id="Hp2LMigl68Y7-yu4LN-_-60" style="edgeStyle=orthogonalEdgeStyle;rounded=0;orthogonalLoop=1;jettySize=auto;html=1;entryX=0.542;entryY=0.01;entryDx=0;entryDy=0;entryPerimeter=0;" edge="1" parent="Hp2LMigl68Y7-yu4LN-_-51" source="Hp2LMigl68Y7-yu4LN-_-99">
          <mxGeometry relative="1" as="geometry">
            <mxPoint x="270.03600000000006" y="371.6077" as="targetPoint" />
          </mxGeometry>
        </mxCell>
        <mxCell id="Hp2LMigl68Y7-yu4LN-_-61" style="edgeStyle=orthogonalEdgeStyle;rounded=0;orthogonalLoop=1;jettySize=auto;html=1;entryX=0.5;entryY=0;entryDx=0;entryDy=0;" edge="1" parent="Hp2LMigl68Y7-yu4LN-_-51" source="Hp2LMigl68Y7-yu4LN-_-62" target="Hp2LMigl68Y7-yu4LN-_-55">
          <mxGeometry relative="1" as="geometry" />
        </mxCell>
        <mxCell id="Hp2LMigl68Y7-yu4LN-_-62" value="self.finishCallback =&amp;nbsp;LoadUGCMapFinishCallback" style="rounded=0;whiteSpace=wrap;html=1;" vertex="1" parent="Hp2LMigl68Y7-yu4LN-_-51">
          <mxGeometry x="165.28" y="60" width="210" height="40" as="geometry" />
        </mxCell>
        <mxCell id="Hp2LMigl68Y7-yu4LN-_-63" style="edgeStyle=orthogonalEdgeStyle;rounded=0;orthogonalLoop=1;jettySize=auto;html=1;" edge="1" parent="Hp2LMigl68Y7-yu4LN-_-51" source="Hp2LMigl68Y7-yu4LN-_-66" target="Hp2LMigl68Y7-yu4LN-_-97">
          <mxGeometry relative="1" as="geometry">
            <mxPoint x="440.28" y="400" as="targetPoint" />
          </mxGeometry>
        </mxCell>
        <mxCell id="Hp2LMigl68Y7-yu4LN-_-64" value="true" style="edgeLabel;html=1;align=center;verticalAlign=middle;resizable=0;points=[];" vertex="1" connectable="0" parent="Hp2LMigl68Y7-yu4LN-_-63">
          <mxGeometry x="-0.0456" y="-4" relative="1" as="geometry">
            <mxPoint as="offset" />
          </mxGeometry>
        </mxCell>
        <mxCell id="Hp2LMigl68Y7-yu4LN-_-65" style="edgeStyle=orthogonalEdgeStyle;rounded=0;orthogonalLoop=1;jettySize=auto;html=1;entryX=0.5;entryY=0;entryDx=0;entryDy=0;" edge="1" parent="Hp2LMigl68Y7-yu4LN-_-51" source="Hp2LMigl68Y7-yu4LN-_-66" target="Hp2LMigl68Y7-yu4LN-_-70">
          <mxGeometry relative="1" as="geometry" />
        </mxCell>
        <mxCell id="Hp2LMigl68Y7-yu4LN-_-66" value="self.filePath and self.fileMD5" style="rhombus;" vertex="1" parent="Hp2LMigl68Y7-yu4LN-_-51">
          <mxGeometry x="170.23999999999998" y="370" width="199.5" height="60" as="geometry" />
        </mxCell>
        <mxCell id="Hp2LMigl68Y7-yu4LN-_-67" style="edgeStyle=orthogonalEdgeStyle;rounded=0;orthogonalLoop=1;jettySize=auto;html=1;entryX=0.25;entryY=1;entryDx=0;entryDy=0;" edge="1" parent="Hp2LMigl68Y7-yu4LN-_-51" source="Hp2LMigl68Y7-yu4LN-_-70" target="Hp2LMigl68Y7-yu4LN-_-57">
          <mxGeometry relative="1" as="geometry">
            <mxPoint x="626.28" y="300" as="targetPoint" />
          </mxGeometry>
        </mxCell>
        <mxCell id="Hp2LMigl68Y7-yu4LN-_-68" value="false&lt;br&gt;" style="edgeLabel;html=1;align=center;verticalAlign=middle;resizable=0;points=[];" vertex="1" connectable="0" parent="Hp2LMigl68Y7-yu4LN-_-67">
          <mxGeometry x="-0.6733" y="2" relative="1" as="geometry">
            <mxPoint as="offset" />
          </mxGeometry>
        </mxCell>
        <mxCell id="Hp2LMigl68Y7-yu4LN-_-69" style="edgeStyle=orthogonalEdgeStyle;rounded=0;orthogonalLoop=1;jettySize=auto;html=1;entryX=0.5;entryY=0;entryDx=0;entryDy=0;" edge="1" parent="Hp2LMigl68Y7-yu4LN-_-51" source="Hp2LMigl68Y7-yu4LN-_-70" target="Hp2LMigl68Y7-yu4LN-_-73">
          <mxGeometry relative="1" as="geometry" />
        </mxCell>
        <mxCell id="Hp2LMigl68Y7-yu4LN-_-70" value="self.mapId and properties[&#39;test_use_local_ugc_pbin&#39;]" style="rhombus;" vertex="1" parent="Hp2LMigl68Y7-yu4LN-_-51">
          <mxGeometry x="105.9" y="460" width="328.75" height="60" as="geometry" />
        </mxCell>
        <mxCell id="Hp2LMigl68Y7-yu4LN-_-71" style="edgeStyle=orthogonalEdgeStyle;rounded=0;orthogonalLoop=1;jettySize=auto;html=1;entryX=0.409;entryY=1.05;entryDx=0;entryDy=0;entryPerimeter=0;" edge="1" parent="Hp2LMigl68Y7-yu4LN-_-51" source="Hp2LMigl68Y7-yu4LN-_-73" target="Hp2LMigl68Y7-yu4LN-_-57">
          <mxGeometry relative="1" as="geometry" />
        </mxCell>
        <mxCell id="Hp2LMigl68Y7-yu4LN-_-72" style="edgeStyle=orthogonalEdgeStyle;rounded=0;orthogonalLoop=1;jettySize=auto;html=1;entryX=0.5;entryY=0;entryDx=0;entryDy=0;" edge="1" parent="Hp2LMigl68Y7-yu4LN-_-51" source="Hp2LMigl68Y7-yu4LN-_-73" target="Hp2LMigl68Y7-yu4LN-_-78">
          <mxGeometry relative="1" as="geometry" />
        </mxCell>
        <mxCell id="Hp2LMigl68Y7-yu4LN-_-73" value="UE4.UBlueprintPathsLibrary.FileExists(dataPath)" style="rhombus;" vertex="1" parent="Hp2LMigl68Y7-yu4LN-_-51">
          <mxGeometry x="99.47" y="590" width="341.62" height="80" as="geometry" />
        </mxCell>
        <mxCell id="Hp2LMigl68Y7-yu4LN-_-74" style="edgeStyle=orthogonalEdgeStyle;rounded=0;orthogonalLoop=1;jettySize=auto;html=1;entryX=0.5;entryY=1;entryDx=0;entryDy=0;" edge="1" parent="Hp2LMigl68Y7-yu4LN-_-51" source="Hp2LMigl68Y7-yu4LN-_-78" target="Hp2LMigl68Y7-yu4LN-_-110">
          <mxGeometry relative="1" as="geometry" />
        </mxCell>
        <mxCell id="Hp2LMigl68Y7-yu4LN-_-75" value="true" style="edgeLabel;html=1;align=center;verticalAlign=middle;resizable=0;points=[];" vertex="1" connectable="0" parent="Hp2LMigl68Y7-yu4LN-_-74">
          <mxGeometry x="0.8338" relative="1" as="geometry">
            <mxPoint as="offset" />
          </mxGeometry>
        </mxCell>
        <mxCell id="Hp2LMigl68Y7-yu4LN-_-76" style="edgeStyle=orthogonalEdgeStyle;rounded=0;orthogonalLoop=1;jettySize=auto;html=1;entryX=0.5;entryY=1;entryDx=0;entryDy=0;" edge="1" parent="Hp2LMigl68Y7-yu4LN-_-51" source="Hp2LMigl68Y7-yu4LN-_-78" target="Hp2LMigl68Y7-yu4LN-_-113">
          <mxGeometry relative="1" as="geometry" />
        </mxCell>
        <mxCell id="Hp2LMigl68Y7-yu4LN-_-77" value="false&lt;br&gt;" style="edgeLabel;html=1;align=center;verticalAlign=middle;resizable=0;points=[];" vertex="1" connectable="0" parent="Hp2LMigl68Y7-yu4LN-_-76">
          <mxGeometry x="0.8338" y="2" relative="1" as="geometry">
            <mxPoint as="offset" />
          </mxGeometry>
        </mxCell>
        <mxCell id="Hp2LMigl68Y7-yu4LN-_-78" value="decryptPath and UE4.UBlueprintPathsLibrary.FileExists(decryptPath)" style="rhombus;" vertex="1" parent="Hp2LMigl68Y7-yu4LN-_-51">
          <mxGeometry x="40" y="720" width="460.28" height="80" as="geometry" />
        </mxCell>
        <mxCell id="Hp2LMigl68Y7-yu4LN-_-79" value="流程图中的变量" style="swimlane;fontStyle=0;childLayout=stackLayout;horizontal=1;startSize=30;horizontalStack=0;resizeParent=1;resizeParentMax=0;resizeLast=0;collapsible=1;marginBottom=0;" vertex="1" parent="Hp2LMigl68Y7-yu4LN-_-51">
          <mxGeometry x="1260" y="82" width="900" height="300" as="geometry" />
        </mxCell>
        <mxCell id="Hp2LMigl68Y7-yu4LN-_-80" value="properties[&quot;ban_res_id_list&quot;]: 由&quot;,&quot;分隔, 格式错误或者个数超过50则回调loadmap失败。" style="text;strokeColor=none;fillColor=none;align=left;verticalAlign=middle;spacingLeft=4;spacingRight=4;overflow=hidden;points=[[0,0.5],[1,0.5]];portConstraint=eastwest;rotatable=0;" vertex="1" parent="Hp2LMigl68Y7-yu4LN-_-79">
          <mxGeometry y="30" width="900" height="30" as="geometry" />
        </mxCell>
        <mxCell id="Hp2LMigl68Y7-yu4LN-_-81" value="self.filePath = properties[&#39;ugc_map_file_dir&#39;] " style="text;strokeColor=none;fillColor=none;align=left;verticalAlign=middle;spacingLeft=4;spacingRight=4;overflow=hidden;points=[[0,0.5],[1,0.5]];portConstraint=eastwest;rotatable=0;" vertex="1" parent="Hp2LMigl68Y7-yu4LN-_-79">
          <mxGeometry y="60" width="900" height="30" as="geometry" />
        </mxCell>
        <mxCell id="Hp2LMigl68Y7-yu4LN-_-82" value="self.fileMD5 = properties[&quot;pre_md5&quot;] : 优先使用pre_md5, 没有就用ugc_md5" style="text;strokeColor=none;fillColor=none;align=left;verticalAlign=middle;spacingLeft=4;spacingRight=4;overflow=hidden;points=[[0,0.5],[1,0.5]];portConstraint=eastwest;rotatable=0;" vertex="1" parent="Hp2LMigl68Y7-yu4LN-_-79">
          <mxGeometry y="90" width="900" height="30" as="geometry" />
        </mxCell>
        <mxCell id="Hp2LMigl68Y7-yu4LN-_-83" value="self.fileMD5 = properties[&quot;ugc_md5&quot;]: self.filePath和self.fileMd5同时存在，则直接return 不回调 " style="text;strokeColor=none;fillColor=none;align=left;verticalAlign=middle;spacingLeft=4;spacingRight=4;overflow=hidden;points=[[0,0.5],[1,0.5]];portConstraint=eastwest;rotatable=0;" vertex="1" parent="Hp2LMigl68Y7-yu4LN-_-79">
          <mxGeometry y="120" width="900" height="30" as="geometry" />
        </mxCell>
        <mxCell id="Hp2LMigl68Y7-yu4LN-_-84" value="self.mapId = properties[&#39;ugc_id&#39;]" style="text;strokeColor=none;fillColor=none;align=left;verticalAlign=middle;spacingLeft=4;spacingRight=4;overflow=hidden;points=[[0,0.5],[1,0.5]];portConstraint=eastwest;rotatable=0;" vertex="1" parent="Hp2LMigl68Y7-yu4LN-_-79">
          <mxGeometry y="150" width="900" height="30" as="geometry" />
        </mxCell>
        <mxCell id="Hp2LMigl68Y7-yu4LN-_-85" value="properties[&#39;test_use_local_ugc_pbin&#39;]: 与self.mapId同时存在，则代表本地读取ugc pbin，localds测试用" style="text;strokeColor=none;fillColor=none;align=left;verticalAlign=middle;spacingLeft=4;spacingRight=4;overflow=hidden;points=[[0,0.5],[1,0.5]];portConstraint=eastwest;rotatable=0;" vertex="1" parent="Hp2LMigl68Y7-yu4LN-_-79">
          <mxGeometry y="180" width="900" height="30" as="geometry" />
        </mxCell>
        <mxCell id="Hp2LMigl68Y7-yu4LN-_-86" value="properties[&#39;ds_level_survival_rate&#39;]" style="text;strokeColor=none;fillColor=none;align=left;verticalAlign=middle;spacingLeft=4;spacingRight=4;overflow=hidden;points=[[0,0.5],[1,0.5]];portConstraint=eastwest;rotatable=0;" vertex="1" parent="Hp2LMigl68Y7-yu4LN-_-79">
          <mxGeometry y="210" width="900" height="30" as="geometry" />
        </mxCell>
        <mxCell id="Hp2LMigl68Y7-yu4LN-_-87" value="local dataPath = _G.UGCPath_PlayerLevelDir ..  _MOE.UGCGameStatic.Path.GetPublishLevelDataPath(self.mapId, _MOE.UGCGameStatic.FilePath_LevelData)" style="text;strokeColor=none;fillColor=none;align=left;verticalAlign=middle;spacingLeft=4;spacingRight=4;overflow=hidden;points=[[0,0.5],[1,0.5]];portConstraint=eastwest;rotatable=0;" vertex="1" parent="Hp2LMigl68Y7-yu4LN-_-79">
          <mxGeometry y="240" width="900" height="30" as="geometry" />
        </mxCell>
        <mxCell id="Hp2LMigl68Y7-yu4LN-_-88" value="local decryptPath = self:TryDecryptLocalDsPbinFile(dataPath, properties)" style="text;strokeColor=none;fillColor=none;align=left;verticalAlign=middle;spacingLeft=4;spacingRight=4;overflow=hidden;points=[[0,0.5],[1,0.5]];portConstraint=eastwest;rotatable=0;" vertex="1" parent="Hp2LMigl68Y7-yu4LN-_-79">
          <mxGeometry y="270" width="900" height="30" as="geometry" />
        </mxCell>
        <mxCell id="Hp2LMigl68Y7-yu4LN-_-89" value="_MOE.UGCLevelBuilderModel:BuildUGCLevel需要的参数" style="swimlane;fontStyle=0;childLayout=stackLayout;horizontal=1;startSize=30;horizontalStack=0;resizeParent=1;resizeParentMax=0;resizeLast=0;collapsible=1;marginBottom=0;" vertex="1" parent="Hp2LMigl68Y7-yu4LN-_-51">
          <mxGeometry x="1260" y="428.5" width="500" height="240" as="geometry" />
        </mxCell>
        <mxCell id="Hp2LMigl68Y7-yu4LN-_-90" value="UGCMapId = self.mapId" style="text;strokeColor=none;fillColor=none;align=left;verticalAlign=middle;spacingLeft=4;spacingRight=4;overflow=hidden;points=[[0,0.5],[1,0.5]];portConstraint=eastwest;rotatable=0;" vertex="1" parent="Hp2LMigl68Y7-yu4LN-_-89">
          <mxGeometry y="30" width="500" height="30" as="geometry" />
        </mxCell>
        <mxCell id="Hp2LMigl68Y7-yu4LN-_-91" value="decryptKey = self.decryptKey = properties[&quot;aes_key&quot;] " style="text;strokeColor=none;fillColor=none;align=left;verticalAlign=middle;spacingLeft=4;spacingRight=4;overflow=hidden;points=[[0,0.5],[1,0.5]];portConstraint=eastwest;rotatable=0;" vertex="1" parent="Hp2LMigl68Y7-yu4LN-_-89">
          <mxGeometry y="60" width="500" height="30" as="geometry" />
        </mxCell>
        <mxCell id="Hp2LMigl68Y7-yu4LN-_-92" value="UGCMD5 = self.fileMD5" style="text;strokeColor=none;fillColor=none;align=left;verticalAlign=middle;spacingLeft=4;spacingRight=4;overflow=hidden;points=[[0,0.5],[1,0.5]];portConstraint=eastwest;rotatable=0;" vertex="1" parent="Hp2LMigl68Y7-yu4LN-_-89">
          <mxGeometry y="90" width="500" height="30" as="geometry" />
        </mxCell>
        <mxCell id="Hp2LMigl68Y7-yu4LN-_-93" value="UGCType = self.ugcType = properties[&#39;ugc_type&#39;]" style="text;strokeColor=none;fillColor=none;align=left;verticalAlign=middle;spacingLeft=4;spacingRight=4;overflow=hidden;points=[[0,0.5],[1,0.5]];portConstraint=eastwest;rotatable=0;" vertex="1" parent="Hp2LMigl68Y7-yu4LN-_-89">
          <mxGeometry y="120" width="500" height="30" as="geometry" />
        </mxCell>
        <mxCell id="Hp2LMigl68Y7-yu4LN-_-94" value="filePath = self.filePath," style="text;strokeColor=none;fillColor=none;align=left;verticalAlign=middle;spacingLeft=4;spacingRight=4;overflow=hidden;points=[[0,0.5],[1,0.5]];portConstraint=eastwest;rotatable=0;" vertex="1" parent="Hp2LMigl68Y7-yu4LN-_-89">
          <mxGeometry y="150" width="500" height="30" as="geometry" />
        </mxCell>
        <mxCell id="Hp2LMigl68Y7-yu4LN-_-95" value="level = self.LoadedLevel = properties[&quot;level&quot;]" style="text;strokeColor=none;fillColor=none;align=left;verticalAlign=middle;spacingLeft=4;spacingRight=4;overflow=hidden;points=[[0,0.5],[1,0.5]];portConstraint=eastwest;rotatable=0;" vertex="1" parent="Hp2LMigl68Y7-yu4LN-_-89">
          <mxGeometry y="180" width="500" height="30" as="geometry" />
        </mxCell>
        <mxCell id="Hp2LMigl68Y7-yu4LN-_-96" value="UGCMapData = mapData" style="text;strokeColor=none;fillColor=none;align=left;verticalAlign=middle;spacingLeft=4;spacingRight=4;overflow=hidden;points=[[0,0.5],[1,0.5]];portConstraint=eastwest;rotatable=0;" vertex="1" parent="Hp2LMigl68Y7-yu4LN-_-89">
          <mxGeometry y="210" width="500" height="30" as="geometry" />
        </mxCell>
        <mxCell id="Hp2LMigl68Y7-yu4LN-_-97" value="end" style="ellipse;whiteSpace=wrap;html=1;" vertex="1" parent="Hp2LMigl68Y7-yu4LN-_-51">
          <mxGeometry x="39.46999999999997" y="378.5" width="60" height="43" as="geometry" />
        </mxCell>
        <mxCell id="Hp2LMigl68Y7-yu4LN-_-98" value="" style="edgeStyle=orthogonalEdgeStyle;rounded=0;orthogonalLoop=1;jettySize=auto;html=1;" edge="1" parent="Hp2LMigl68Y7-yu4LN-_-51" source="Hp2LMigl68Y7-yu4LN-_-55" target="Hp2LMigl68Y7-yu4LN-_-99">
          <mxGeometry relative="1" as="geometry">
            <mxPoint x="140.27999999999977" y="-1880" as="targetPoint" />
            <mxPoint x="140.28" y="-1950" as="sourcePoint" />
          </mxGeometry>
        </mxCell>
        <mxCell id="Hp2LMigl68Y7-yu4LN-_-99" value="properties[&quot;ban_res_id_list&quot;]" style="rhombus;" vertex="1" parent="Hp2LMigl68Y7-yu4LN-_-51">
          <mxGeometry x="160.28" y="220" width="220" height="70" as="geometry" />
        </mxCell>
        <mxCell id="Hp2LMigl68Y7-yu4LN-_-100" style="edgeStyle=orthogonalEdgeStyle;rounded=0;orthogonalLoop=1;jettySize=auto;html=1;entryX=0.4;entryY=0.942;entryDx=0;entryDy=0;entryPerimeter=0;" edge="1" parent="Hp2LMigl68Y7-yu4LN-_-51" source="Hp2LMigl68Y7-yu4LN-_-101" target="Hp2LMigl68Y7-yu4LN-_-103">
          <mxGeometry relative="1" as="geometry" />
        </mxCell>
        <mxCell id="Hp2LMigl68Y7-yu4LN-_-101" value="LoadUGCMapFinish回调 loadmap成功" style="rounded=0;whiteSpace=wrap;html=1;fillColor=#f8cecc;strokeColor=#b85450;" vertex="1" parent="Hp2LMigl68Y7-yu4LN-_-51">
          <mxGeometry x="720.28" y="397" width="151" height="40" as="geometry" />
        </mxCell>
        <mxCell id="Hp2LMigl68Y7-yu4LN-_-102" style="edgeStyle=orthogonalEdgeStyle;rounded=0;orthogonalLoop=1;jettySize=auto;html=1;entryX=0.5;entryY=1;entryDx=0;entryDy=0;exitX=0.5;exitY=0;exitDx=0;exitDy=0;" edge="1" parent="Hp2LMigl68Y7-yu4LN-_-51" source="Hp2LMigl68Y7-yu4LN-_-103" target="Hp2LMigl68Y7-yu4LN-_-117">
          <mxGeometry relative="1" as="geometry" />
        </mxCell>
        <mxCell id="Hp2LMigl68Y7-yu4LN-_-103" value="UE4.USPLuaUtility.DeleteFile(decryptPath)" style="rounded=0;" vertex="1" parent="Hp2LMigl68Y7-yu4LN-_-51">
          <mxGeometry x="703.28" y="320" width="230" height="30" as="geometry" />
        </mxCell>
        <mxCell id="Hp2LMigl68Y7-yu4LN-_-104" style="edgeStyle=orthogonalEdgeStyle;rounded=0;orthogonalLoop=1;jettySize=auto;html=1;entryX=1;entryY=1;entryDx=0;entryDy=0;" edge="1" parent="Hp2LMigl68Y7-yu4LN-_-51" source="Hp2LMigl68Y7-yu4LN-_-105" target="Hp2LMigl68Y7-yu4LN-_-117">
          <mxGeometry relative="1" as="geometry" />
        </mxCell>
        <mxCell id="Hp2LMigl68Y7-yu4LN-_-105" value="LoadUGCMapFinish回调 loadmap成功" style="rounded=0;whiteSpace=wrap;html=1;fillColor=#f8cecc;strokeColor=#b85450;" vertex="1" parent="Hp2LMigl68Y7-yu4LN-_-51">
          <mxGeometry x="1014.5" y="397" width="151" height="40" as="geometry" />
        </mxCell>
        <mxCell id="Hp2LMigl68Y7-yu4LN-_-106" style="edgeStyle=orthogonalEdgeStyle;rounded=0;orthogonalLoop=1;jettySize=auto;html=1;entryX=0.134;entryY=1;entryDx=0;entryDy=0;entryPerimeter=0;" edge="1" parent="Hp2LMigl68Y7-yu4LN-_-51" source="Hp2LMigl68Y7-yu4LN-_-110">
          <mxGeometry relative="1" as="geometry">
            <mxPoint x="784.8400000000001" y="500" as="targetPoint" />
          </mxGeometry>
        </mxCell>
        <mxCell id="Hp2LMigl68Y7-yu4LN-_-107" value="not nil" style="edgeLabel;html=1;align=center;verticalAlign=middle;resizable=0;points=[];" vertex="1" connectable="0" parent="Hp2LMigl68Y7-yu4LN-_-106">
          <mxGeometry x="-0.0198" y="-2" relative="1" as="geometry">
            <mxPoint as="offset" />
          </mxGeometry>
        </mxCell>
        <mxCell id="Hp2LMigl68Y7-yu4LN-_-108" style="edgeStyle=orthogonalEdgeStyle;rounded=0;orthogonalLoop=1;jettySize=auto;html=1;entryX=0.5;entryY=1;entryDx=0;entryDy=0;" edge="1" parent="Hp2LMigl68Y7-yu4LN-_-51" source="Hp2LMigl68Y7-yu4LN-_-110" target="Hp2LMigl68Y7-yu4LN-_-57">
          <mxGeometry relative="1" as="geometry">
            <Array as="points">
              <mxPoint x="628" y="605" />
            </Array>
          </mxGeometry>
        </mxCell>
        <mxCell id="Hp2LMigl68Y7-yu4LN-_-109" value="nil&lt;br&gt;" style="edgeLabel;html=1;align=center;verticalAlign=middle;resizable=0;points=[];" vertex="1" connectable="0" parent="Hp2LMigl68Y7-yu4LN-_-108">
          <mxGeometry x="-0.9119" y="-2" relative="1" as="geometry">
            <mxPoint as="offset" />
          </mxGeometry>
        </mxCell>
        <mxCell id="Hp2LMigl68Y7-yu4LN-_-110" value="mapdata = _G.UELoadRawFile(decryptPath)" style="rhombus;whiteSpace=wrap;html=1;" vertex="1" parent="Hp2LMigl68Y7-yu4LN-_-51">
          <mxGeometry x="679.28" y="560" width="211" height="90" as="geometry" />
        </mxCell>
        <mxCell id="Hp2LMigl68Y7-yu4LN-_-111" style="edgeStyle=orthogonalEdgeStyle;rounded=0;orthogonalLoop=1;jettySize=auto;html=1;entryX=0.5;entryY=1;entryDx=0;entryDy=0;" edge="1" parent="Hp2LMigl68Y7-yu4LN-_-51" source="Hp2LMigl68Y7-yu4LN-_-113" target="Hp2LMigl68Y7-yu4LN-_-124">
          <mxGeometry relative="1" as="geometry">
            <mxPoint x="997" y="500.8000000000002" as="targetPoint" />
          </mxGeometry>
        </mxCell>
        <mxCell id="Hp2LMigl68Y7-yu4LN-_-112" value="not nil" style="edgeLabel;html=1;align=center;verticalAlign=middle;resizable=0;points=[];" vertex="1" connectable="0" parent="Hp2LMigl68Y7-yu4LN-_-111">
          <mxGeometry x="0.2527" y="-1" relative="1" as="geometry">
            <mxPoint as="offset" />
          </mxGeometry>
        </mxCell>
        <mxCell id="Hp2LMigl68Y7-yu4LN-_-113" value="mapdata = _G.UELoadRawFile(dataPath)" style="rhombus;whiteSpace=wrap;html=1;" vertex="1" parent="Hp2LMigl68Y7-yu4LN-_-51">
          <mxGeometry x="990" y="550" width="190" height="100" as="geometry" />
        </mxCell>
        <mxCell id="Hp2LMigl68Y7-yu4LN-_-114" value="其他" style="swimlane;fontStyle=0;childLayout=stackLayout;horizontal=1;startSize=30;horizontalStack=0;resizeParent=1;resizeParentMax=0;resizeLast=0;collapsible=1;marginBottom=0;" vertex="1" parent="Hp2LMigl68Y7-yu4LN-_-51">
          <mxGeometry x="1260" y="693.5" width="410" height="60" as="geometry" />
        </mxCell>
        <mxCell id="Hp2LMigl68Y7-yu4LN-_-115" value="self.fileName = properties[&#39;file_name&#39;]" style="text;strokeColor=none;fillColor=none;align=left;verticalAlign=middle;spacingLeft=4;spacingRight=4;overflow=hidden;points=[[0,0.5],[1,0.5]];portConstraint=eastwest;rotatable=0;" vertex="1" parent="Hp2LMigl68Y7-yu4LN-_-114">
          <mxGeometry y="30" width="410" height="30" as="geometry" />
        </mxCell>
        <mxCell id="Hp2LMigl68Y7-yu4LN-_-116" style="edgeStyle=orthogonalEdgeStyle;rounded=0;orthogonalLoop=1;jettySize=auto;html=1;" edge="1" parent="Hp2LMigl68Y7-yu4LN-_-51" source="Hp2LMigl68Y7-yu4LN-_-117" target="Hp2LMigl68Y7-yu4LN-_-118">
          <mxGeometry relative="1" as="geometry" />
        </mxCell>
        <mxCell id="Hp2LMigl68Y7-yu4LN-_-117" value="self.filePath = nil" style="rounded=0;whiteSpace=wrap;html=1;" vertex="1" parent="Hp2LMigl68Y7-yu4LN-_-51">
          <mxGeometry x="820" y="145" width="125" height="30" as="geometry" />
        </mxCell>
        <mxCell id="Hp2LMigl68Y7-yu4LN-_-118" value="end" style="ellipse;whiteSpace=wrap;html=1;" vertex="1" parent="Hp2LMigl68Y7-yu4LN-_-51">
          <mxGeometry x="1014.5" y="138.5" width="60" height="43" as="geometry" />
        </mxCell>
        <mxCell id="Hp2LMigl68Y7-yu4LN-_-119" style="edgeStyle=orthogonalEdgeStyle;rounded=0;orthogonalLoop=1;jettySize=auto;html=1;entryX=0;entryY=0.5;entryDx=0;entryDy=0;" edge="1" parent="Hp2LMigl68Y7-yu4LN-_-51" source="Hp2LMigl68Y7-yu4LN-_-120" target="Hp2LMigl68Y7-yu4LN-_-62">
          <mxGeometry relative="1" as="geometry" />
        </mxCell>
        <mxCell id="Hp2LMigl68Y7-yu4LN-_-120" value="start" style="ellipse;whiteSpace=wrap;html=1;" vertex="1" parent="Hp2LMigl68Y7-yu4LN-_-51">
          <mxGeometry x="45.89999999999998" y="60" width="60" height="43" as="geometry" />
        </mxCell>
        <mxCell id="Hp2LMigl68Y7-yu4LN-_-121" style="edgeStyle=orthogonalEdgeStyle;rounded=0;orthogonalLoop=1;jettySize=auto;html=1;entryX=0.56;entryY=0.987;entryDx=0;entryDy=0;entryPerimeter=0;" edge="1" parent="Hp2LMigl68Y7-yu4LN-_-51" source="Hp2LMigl68Y7-yu4LN-_-122" target="Hp2LMigl68Y7-yu4LN-_-101">
          <mxGeometry relative="1" as="geometry" />
        </mxCell>
        <mxCell id="Hp2LMigl68Y7-yu4LN-_-122" value="_MOE.UGCGameStatic:InitUGCFeaturesModel()&#xa;_MOE.UGCLevelBuilderModel:BuildUGCLevel" style="rounded=0;" vertex="1" parent="Hp2LMigl68Y7-yu4LN-_-51">
          <mxGeometry x="673.28" y="460" width="260" height="40" as="geometry" />
        </mxCell>
        <mxCell id="Hp2LMigl68Y7-yu4LN-_-123" style="edgeStyle=orthogonalEdgeStyle;rounded=0;orthogonalLoop=1;jettySize=auto;html=1;exitX=0.5;exitY=0;exitDx=0;exitDy=0;" edge="1" parent="Hp2LMigl68Y7-yu4LN-_-51" source="Hp2LMigl68Y7-yu4LN-_-124">
          <mxGeometry relative="1" as="geometry">
            <mxPoint x="1089.4705882352941" y="440" as="targetPoint" />
          </mxGeometry>
        </mxCell>
        <mxCell id="Hp2LMigl68Y7-yu4LN-_-124" value="_MOE.UGCGameStatic:InitUGCFeaturesModel()&#xa;_MOE.UGCLevelBuilderModel:BuildUGCLevel" style="rounded=0;" vertex="1" parent="Hp2LMigl68Y7-yu4LN-_-51">
          <mxGeometry x="960" y="460" width="260" height="40" as="geometry" />
        </mxCell>
      </root>
    </mxGraphModel>
  </diagram>
</mxfile>
